<svg width="116" height="67" viewBox="0 0 116 67" fill="none" xmlns="http://www.w3.org/2000/svg">
<path fill-rule="evenodd" clip-rule="evenodd" d="M55.0236 62.0645L55.0236 26.0645L60.0236 26.0645L60.0236 62.0645L55.0236 62.0645Z" fill="#E5F6FB"/>
<path fill-rule="evenodd" clip-rule="evenodd" d="M116 66.5H0V61.5H116V66.5Z" fill="#E5F6FB"/>
<path d="M71.5471 13.5C71.5471 20.9558 65.6043 27 58.2735 27C50.9428 27 45 20.9558 45 13.5C45 6.04416 50.9428 0 58.2735 0C65.6043 0 71.5471 6.04416 71.5471 13.5Z" fill="white"/>
<path fill-rule="evenodd" clip-rule="evenodd" d="M58.2735 22C62.7635 22 66.5471 18.2745 66.5471 13.5C66.5471 8.7255 62.7635 5 58.2735 5C53.7836 5 50 8.7255 50 13.5C50 18.2745 53.7836 22 58.2735 22ZM58.2735 27C65.6043 27 71.5471 20.9558 71.5471 13.5C71.5471 6.04416 65.6043 0 58.2735 0C50.9428 0 45 6.04416 45 13.5C45 20.9558 50.9428 27 58.2735 27Z" fill="#99DAEE" fill-opacity="0.26"/>
</svg>
