<svg width="71" height="71" viewBox="0 0 71 71" fill="none" xmlns="http://www.w3.org/2000/svg">
<path d="M17.4044 10.8584C17.5687 9.71048 17.9672 9.20966 19.1632 9.05832C23.2061 8.46528 27.1592 19.081 27.7554 21.9938C28.1025 23.6892 28.1757 25.0917 27.3649 26.6776C25.5747 30.179 22.2668 29.1552 20.5814 31.7468C19.6362 33.2002 20.8042 34.8828 21.5673 36.1357C24.115 40.3181 31.672 49.2461 36.9642 48.0064C38.6522 47.6109 39.0562 46.5672 39.8883 45.2392C41.294 42.9958 44.0357 41.802 46.6287 42.1689C49.3807 42.5585 53.4834 44.1768 56.0079 45.3143C57.815 46.1286 60.7065 47.3137 61.1782 49.4629C61.4728 50.8055 61.1007 50.8519 60.6698 51.7999C60.5016 52.1702 60.4418 52.5601 60.2461 52.928C59.8164 53.7355 59.2251 54.3032 58.7524 55.046L58.7207 55.0966C57.5109 55.9378 56.9581 56.88 55.3822 57.6341C54.4696 58.0707 54.4887 58.089 53.7085 58.6171C50.6738 60.6708 49.2598 61.2253 45.439 60.9805C31.2433 60.0712 17.9109 48.2267 11.9076 35.974C8.85231 29.7385 6.37404 21.6078 11.7924 15.964C12.7158 15.002 12.7388 14.8702 13.4887 13.8848C14.4715 12.593 15.888 11.4669 17.4044 10.8584ZM19.1632 10.8584C18.4919 11.0429 20.0483 13.8535 20.1973 14.1467C21.2399 16.1992 22.4075 18.188 23.5516 20.1848C24.4639 21.777 25.2654 23.4331 26.1942 25.0163L26.2314 25.0095C26.8827 22.1356 23.7995 15.7999 22.2407 13.3313C21.5681 12.2665 20.5749 10.6311 19.1632 10.8584ZM17.6208 12.7355C16.5282 13.1959 15.6785 13.9186 14.8713 14.7723C16.6216 16.8895 17.9879 19.1923 19.4093 21.5385C20.6194 23.5361 21.8272 25.5085 22.9586 27.5543L23.2056 28.0097C23.896 27.7616 24.596 27.4825 25.1676 27.011C24.7485 25.7278 23.9657 24.5058 23.3169 23.3237L19.1974 15.9857C18.9382 15.513 17.7149 12.782 17.6478 12.7384L17.6208 12.7355ZM13.8646 16.3546C9.46867 20.4561 9.73244 24.6919 11.3968 30.0897C15.7479 44.2018 31.065 58.8235 46.1725 59.3143C48.4686 59.3889 50.247 59.1472 52.0873 57.6452C52.263 57.4982 52.4368 57.3528 52.5982 57.19C51.7972 56.6462 51.0218 56.0624 50.2286 55.5067L42.3779 50.0229C41.5482 49.4534 40.7431 48.8436 39.8961 48.3C33.4197 54.1829 22.9619 41.8277 20.0288 36.8922C18.0064 33.4893 17.5924 30.8674 21.6076 28.6963C20.656 26.856 15.0676 17.2176 13.8646 16.3546ZM45.1205 43.7844L49.2865 45.9057C52.2019 47.3801 54.9079 48.4531 57.8908 49.7457C58.1982 49.8789 59.2763 50.5006 59.5267 50.4975C59.5815 49.9756 59.5136 49.6135 59.1777 49.1962C57.6228 47.2637 47.8818 43.6348 45.1205 43.7844ZM42.8372 44.5923C41.9704 44.9823 41.2688 45.9718 40.8404 46.7896C41.8069 47.6578 43.2613 48.5356 44.348 49.2968L50.4323 53.5611C51.7166 54.4579 53.0369 55.3158 54.2628 56.2924C54.8339 56.0149 55.3509 55.7085 55.8498 55.3126C56.9082 54.4489 58.0035 53.4052 58.7207 52.2362C57.8336 51.4895 56.3884 51.0105 55.3139 50.5676C52.1537 49.265 49.1165 47.817 46.0929 46.2171C45.4272 45.8648 43.5227 44.6254 42.8372 44.5923Z" fill="#1CC2FA"/>
<path d="M55.7345 27.5544C56.1145 20.6873 50.1884 14.4865 43.2426 15.1943C40.5773 15.466 37.8302 16.9332 36.1443 19.0156C32.6508 23.3309 32.9068 28.6724 36.0507 33.0556C36.5109 33.6973 37.6877 34.8083 36.9399 35.6377C36.084 36.5872 35.2113 34.8146 34.8147 34.2572C34.3441 33.596 33.8794 32.9255 33.489 32.2127C29.0112 24.0349 34.6568 13.6042 44.0383 13.4876C47.7119 13.2232 51.5343 15.1776 53.9634 17.8358C58.6958 23.0145 58.6474 31.2597 53.3783 36.0531C50.7168 38.4742 47.1358 39.3984 43.6078 39.1558C42.078 39.0506 42.3877 38.984 40.9329 39.4987C39.3319 40.065 36.3511 40.1256 35.1595 38.7506C34.8171 38.3554 34.7256 37.6557 35.184 37.3025C35.8499 36.7894 36.3341 37.5494 36.8539 37.8483C38.092 38.5603 39.8277 38.1645 41.0646 37.6686C42.5559 37.0707 42.0983 37.2583 43.6024 37.4581C48.8756 38.1585 54.0384 34.7675 55.3798 29.6169C55.5565 28.9382 55.649 28.2493 55.7345 27.5544Z" fill="#1CC2FA"/>
<path d="M43.9406 28.3005C41.6537 28.295 41.7886 26.2138 41.5828 24.5242C41.4221 23.2045 41.2485 21.8838 41.111 20.5615C40.9214 18.7387 41.535 17.1281 43.5556 16.921C44.2469 16.8877 44.827 17.0674 45.3657 17.5094C46.9247 18.7887 46.3547 20.4774 46.1941 22.2213C46.031 23.9937 46.3095 28.1475 43.9406 28.3005ZM43.5556 18.6563C42.8795 18.8715 42.7496 19.1817 42.7787 19.8441C42.8141 20.6489 43.2867 25.6264 43.5711 26.3732C43.6444 26.5659 43.8766 26.5097 44.0382 26.4977C44.1814 24.8939 44.3797 23.287 44.5488 21.685C44.6547 20.682 45.2724 18.5371 43.5556 18.6563Z" fill="#1CC2FA"/>
<path d="M44.2508 34.0812C41.0662 34.4448 40.2504 29.308 43.9406 28.9185C47.0253 28.7035 47.8897 33.5776 44.2508 34.0812ZM43.9406 30.6197C42.8027 31.0764 42.924 32.4659 44.2508 32.3949C45.3343 32.0489 45.115 30.5494 43.9406 30.6197Z" fill="#1CC2FA"/>
</svg>
