<svg width="71" height="71" viewBox="0 0 71 71" fill="none" xmlns="http://www.w3.org/2000/svg">
<path d="M31.6571 12.8282C29.8826 10.8091 31.6993 8.33759 33.9853 8.03383C36.566 7.65522 38.7503 10.3504 37.0937 12.8282C48.0596 14.5233 56.1232 23.0044 57.0721 34.1787C58.2038 47.5065 47.9452 59.8293 34.3228 59.688C28.6936 59.8074 23.089 57.588 18.9197 53.8423C9.1584 45.0726 8.58225 29.9155 17.3034 20.2159C20.5941 16.556 26.5865 13.1 31.6571 12.8282ZM34.1187 9.50043C31.7166 9.88666 31.9652 12.7624 34.5466 12.6234C36.9598 12.3519 36.6279 9.31745 34.1187 9.50043ZM33.5516 14.038C32.2756 14.1661 30.9972 14.272 29.7416 14.543C11.8421 18.4071 6.42317 41.9093 20.6926 53.5021C24.8165 56.8523 29.5536 58.3321 34.7866 58.3064C45.5436 58.1735 54.3271 49.4557 55.5626 38.9643C57.105 25.8664 47.1843 13.8545 33.804 14.0326L33.5516 14.038Z" fill="#1CC2FA"/>
<path d="M35.0543 56.1382C30.162 56.1963 25.7668 54.9315 21.9751 51.7571C13.2843 44.4815 12.2191 31.754 19.4943 23.0856C23.1279 18.7562 27.7753 16.7356 33.2535 16.2573C44.3658 15.8344 52.9278 24.3142 53.6081 35.266C54.2837 46.1425 45.9473 55.4822 35.0543 56.1382ZM34.1187 17.6902C23.8766 17.7002 16.01 26.2717 16.047 36.3695C16.0828 46.1691 24.139 54.7888 34.0788 54.7496L34.1187 54.7493C44.1756 54.7499 52.2008 46.4254 52.202 36.4252C52.2032 26.5837 44.607 17.6544 34.4592 17.6861L34.1187 17.6902Z" fill="#1CC2FA"/>
<path d="M34.3227 21.5347C32.175 21.5717 32.0904 18.9076 34.1186 18.5925C35.8716 18.4372 36.4507 21.2657 34.3227 21.5347Z" fill="#1CC2FA"/>
<path d="M33.5515 33.5577L33.5509 29.1063C33.5503 28.1179 33.1634 26.0461 34.1186 25.5962C35.5341 25.526 35.0565 27.5861 35.0563 28.6343L35.0542 33.5577C35.2102 33.5698 35.8411 33.6789 35.9315 33.6587C36.1792 33.6035 42.753 29.7406 43.3764 29.3952C44.2433 28.9147 47.8208 26.275 47.6987 28.7702C47.3965 29.2352 46.0913 30.1754 45.5776 30.6005L43.4629 32.3858C42.5213 33.2214 38.7834 36.2142 37.5982 36.6498C37.416 39.0121 34.8915 40.503 32.8017 39.323C30.3282 37.9264 30.9106 34.2801 33.5515 33.5577ZM43.1248 31.0574C42.9067 31.1273 42.0854 31.6703 41.8053 31.8349L38.9872 33.4953C38.283 33.9032 37.576 34.323 36.8238 34.6374C36.9142 34.7789 37.0129 34.9194 37.0936 35.0662L37.1547 35.2077L37.199 35.2187L40.9355 32.6247C41.264 32.3927 43.0226 31.3141 43.1248 31.0574ZM33.9852 34.9291C31.9357 35.3752 32.202 38.6073 34.7866 38.2318C36.7179 37.7021 36.7822 34.7749 33.9852 34.9291Z" fill="#1CC2FA"/>
<path d="M19.3745 37.6592C16.8498 37.35 17.3326 34.88 18.8926 34.6374C20.4314 34.1788 21.5957 36.7658 19.3745 37.6592Z" fill="#1CC2FA"/>
<path d="M49.4509 37.6591C47.4394 37.7337 47.1645 34.9927 49.1748 34.6373C51.1834 34.7305 51.3093 37.2288 49.4509 37.6591Z" fill="#1CC2FA"/>
<path d="M34.3227 53.6213C32.3342 53.8129 31.951 50.9835 33.9852 50.6523C35.8651 50.5831 36.2515 53.1427 34.3227 53.6213Z" fill="#1CC2FA"/>
</svg>
