<svg width="71" height="71" viewBox="0 0 71 71" fill="none" xmlns="http://www.w3.org/2000/svg">
<path d="M15.5412 34.418C13.0781 35.11 9.78404 35.3697 9.49724 32.0045C9.29226 29.5993 11.9904 27.4845 13.6313 26.0761L23.1623 18.0503C26.0439 15.6449 29.0096 13.3454 31.8468 10.8862C32.8243 10.0389 33.8227 8.90264 35.1883 8.78781C36.5502 8.68612 37.7841 10.2069 38.7228 11.0157C40.5182 12.5626 42.2926 14.1335 44.1142 15.6497L52.8064 22.8963C54.7888 24.5699 59.8075 28.5488 60.9607 30.7491C61.6415 32.0485 60.5409 33.9142 59.3533 34.4995C58.0789 35.1277 56.5683 34.6854 55.3069 34.2589C54.6286 41.0004 52.8699 48.3952 51.1949 55.0444C50.9375 56.0668 50.7805 57.5009 50.094 58.3473C49.2984 59.3284 46.9879 59.9398 45.9364 59.0472C45.632 58.7888 45.5503 58.1393 45.8467 57.8435C46.2901 57.4008 47.042 57.7638 47.5827 57.7698C49.0715 57.7864 49.1543 56.3432 49.4431 55.2205C50.9372 49.4117 52.3035 43.247 53.2448 37.3499C53.4299 36.1902 53.6457 34.9323 53.6032 33.7577C52.8546 33.4469 52.0954 33.1958 51.3638 32.8403C45.6844 30.0815 40.3034 25.4741 35.6501 21.2223C35.5361 21.1209 35.4263 21.0153 35.3161 20.9099C34.8627 21.2459 34.4516 21.6706 34.0303 22.0482C29.4692 26.1337 24.0771 30.5367 18.4765 33.111C18.0525 33.3058 17.5926 33.4802 17.1979 33.7285L17.1522 33.7577C17.0343 37.9989 20.549 56.076 21.9977 57.3925C22.6134 57.952 23.2888 57.658 24.0007 57.6301C25.2365 57.5816 25.4896 59.54 22.8718 59.4393C20.0739 59.3318 19.4458 56.116 18.844 53.9293C17.9074 50.5262 17.296 46.5856 16.6884 43.1108C16.2709 40.7231 15.4505 36.8297 15.5412 34.418ZM35.1883 10.4483C34.4587 10.7578 33.8461 11.4216 33.2433 11.9299L19.9009 23.0798C18.1854 24.5231 12.0778 29.0515 11.2861 31.0108C10.988 31.7484 11.2339 32.8177 12.032 33.1343C13.3368 33.6521 16.1776 32.3362 17.3998 31.771C23.4795 28.9593 28.6015 24.607 33.5667 20.1924C34.0703 19.7449 34.6042 19.0303 35.3161 18.9327C35.9629 19.0508 36.5087 19.7129 36.9663 20.1377C41.9376 24.7534 49.1368 30.9029 55.7958 32.7062C56.6195 32.9294 58.0543 33.372 58.8143 32.8542C60.4333 31.7514 58.3039 30.044 57.4589 29.2279C55.6568 27.4868 53.7512 25.8841 51.8338 24.2725L44.6916 18.3044C42.92 16.8117 41.1377 15.3317 39.3848 13.817C38.7893 13.3022 35.7977 10.4132 35.1883 10.4483Z" fill="#1CC2FA"/>
<path d="M35.5425 39.829C30.5354 40.5599 27.3205 28.2638 35.0124 27.8262C42.213 27.4812 41.2963 39.0597 35.5425 39.829ZM35.0124 29.5011C30.0311 29.8457 32.1822 38.6205 35.5425 38.1614C39.2022 37.2239 39.9053 29.1597 35.0124 29.5011Z" fill="#1CC2FA"/>
<path d="M35.3811 42.2206C33.1187 42.2396 29.1388 43.0833 27.8203 44.8531C26.0143 47.2774 27.1124 53.7158 28.1118 56.5488C28.2878 57.048 28.8089 57.9188 28.3985 58.4225C26.7813 60.408 25.6366 53.8289 25.5387 53.2617C25.0659 50.5196 24.8364 45.6966 26.6762 43.6342C28.5045 41.5846 32.2415 40.6913 34.9016 40.5359C37.3799 40.4931 40.4903 40.8376 42.5553 42.3265C46.1499 44.9181 45.1631 53.1496 43.9972 56.7138C43.8006 57.3149 43.2499 59.5374 42.1195 58.5401C41.4678 57.965 42.3786 56.3881 42.5682 55.759C43.4241 52.9177 44.2195 46.1104 41.8524 43.9297C40.384 42.5768 37.3538 42.1434 35.3811 42.2206Z" fill="#1CC2FA"/>
<path d="M30.6646 56.7956C28.5984 56.8757 28.7314 50.3663 28.7609 49.063C28.7772 48.3415 28.588 47.2471 29.4543 46.9945C30.9603 46.6063 30.4398 48.9475 30.4251 49.6867C30.3927 51.3293 30.458 52.9272 30.8912 54.5221C31.101 55.294 31.7714 56.4242 30.6646 56.7956Z" fill="#1CC2FA"/>
<path d="M39.067 55.9965C39.17 55.4931 39.3791 55.0111 39.5059 54.5126C39.8944 52.9859 40.0063 51.3307 39.9356 49.7553C39.8916 48.7766 39.4078 47.4784 40.4198 46.9946C41.5904 46.8612 41.5253 47.947 41.5835 48.8037C41.6868 50.3259 41.727 55.9713 40.114 56.7957C39.5647 56.8324 39.2423 56.4849 39.067 55.9965Z" fill="#1CC2FA"/>
</svg>
