<svg width="356" height="18" viewBox="0 0 356 18" fill="none" xmlns="http://www.w3.org/2000/svg">
<path fill-rule="evenodd" clip-rule="evenodd" d="M9 6.50003L347 6.5L347 11.5L9 11.5L9 6.50003Z" fill="#99DAEE" fill-opacity="0.26"/>
<path d="M18 9C18 13.9706 13.9706 18 9 18C4.02944 18 0 13.9706 0 9C0 4.02944 4.02944 0 9 0C13.9706 0 18 4.02944 18 9Z" fill="white"/>
<path fill-rule="evenodd" clip-rule="evenodd" d="M9 13C11.2091 13 13 11.2091 13 9C13 6.79086 11.2091 5 9 5C6.79086 5 5 6.79086 5 9C5 11.2091 6.79086 13 9 13ZM9 18C13.9706 18 18 13.9706 18 9C18 4.02944 13.9706 0 9 0C4.02944 0 0 4.02944 0 9C0 13.9706 4.02944 18 9 18Z" fill="#99DAEE" fill-opacity="0.26"/>
<path d="M356 9C356 13.9706 351.971 18 347 18C342.029 18 338 13.9706 338 9C338 4.02944 342.029 0 347 0C351.971 0 356 4.02944 356 9Z" fill="white"/>
<path fill-rule="evenodd" clip-rule="evenodd" d="M347 13C349.209 13 351 11.2091 351 9C351 6.79086 349.209 5 347 5C344.791 5 343 6.79086 343 9C343 11.2091 344.791 13 347 13ZM347 18C351.971 18 356 13.9706 356 9C356 4.02944 351.971 0 347 0C342.029 0 338 4.02944 338 9C338 13.9706 342.029 18 347 18Z" fill="#99DAEE" fill-opacity="0.26"/>
</svg>
