<svg width="765" height="122" viewBox="0 0 765 122" fill="none" xmlns="http://www.w3.org/2000/svg">
<path fill-rule="evenodd" clip-rule="evenodd" d="M372.5 108V48.5H377.5V108H372.5Z" fill="#E5F6FB"/>
<path fill-rule="evenodd" clip-rule="evenodd" d="M16.5577 36.8185C11.5845 29.1206 10.2599 19.9854 10.5342 13.8877L15.5292 14.1124C15.2885 19.461 16.4872 27.4953 20.7575 34.1053C24.9289 40.562 32.1283 45.839 44.4443 45.839H721.924L722.221 45.9131C726.762 47.0439 733.535 46.8322 739.114 42.6811C744.604 38.5966 749.5 30.2696 749.5 14.0001H754.5C754.5 31.2547 749.269 41.3582 742.099 46.6926C735.147 51.8651 726.905 52.1475 721.32 50.839H44.4443C30.3943 50.839 21.63 44.6698 16.5577 36.8185Z" fill="#E5F6FB"/>
<path d="M26.5471 18.5C26.5471 25.9558 20.6043 32 13.2735 32C5.94276 32 0 25.9558 0 18.5C0 11.0442 5.94276 5 13.2735 5C20.6043 5 26.5471 11.0442 26.5471 18.5Z" fill="white"/>
<path fill-rule="evenodd" clip-rule="evenodd" d="M13.2735 27C17.7635 27 21.5471 23.2745 21.5471 18.5C21.5471 13.7255 17.7635 10 13.2735 10C8.7836 10 5 13.7255 5 18.5C5 23.2745 8.7836 27 13.2735 27ZM13.2735 32C20.6043 32 26.5471 25.9558 26.5471 18.5C26.5471 11.0442 20.6043 5 13.2735 5C5.94276 5 0 11.0442 0 18.5C0 25.9558 5.94276 32 13.2735 32Z" fill="#99DAEE" fill-opacity="0.26"/>
<path d="M764.547 13.5C764.547 20.9558 758.604 27 751.274 27C743.943 27 738 20.9558 738 13.5C738 6.04416 743.943 0 751.274 0C758.604 0 764.547 6.04416 764.547 13.5Z" fill="white"/>
<path fill-rule="evenodd" clip-rule="evenodd" d="M751.274 22C755.763 22 759.547 18.2745 759.547 13.5C759.547 8.7255 755.763 5 751.274 5C746.784 5 743 8.7255 743 13.5C743 18.2745 746.784 22 751.274 22ZM751.274 27C758.604 27 764.547 20.9558 764.547 13.5C764.547 6.04416 758.604 0 751.274 0C743.943 0 738 6.04416 738 13.5C738 20.9558 743.943 27 751.274 27Z" fill="#99DAEE" fill-opacity="0.26"/>
<path d="M388.547 108.5C388.547 115.956 382.604 122 375.274 122C367.943 122 362 115.956 362 108.5C362 101.044 367.943 95 375.274 95C382.604 95 388.547 101.044 388.547 108.5Z" fill="white"/>
<path fill-rule="evenodd" clip-rule="evenodd" d="M375.274 117C379.763 117 383.547 113.275 383.547 108.5C383.547 103.725 379.763 100 375.274 100C370.784 100 367 103.725 367 108.5C367 113.275 370.784 117 375.274 117ZM375.274 122C382.604 122 388.547 115.956 388.547 108.5C388.547 101.044 382.604 95 375.274 95C367.943 95 362 101.044 362 108.5C362 115.956 367.943 122 375.274 122Z" fill="#99DAEE" fill-opacity="0.26"/>
</svg>
