<svg width="27" height="161" viewBox="0 0 27 161" fill="none" xmlns="http://www.w3.org/2000/svg">
<path fill-rule="evenodd" clip-rule="evenodd" d="M11 160.5V0H16V160.5H11Z" fill="#99DAEE" fill-opacity="0.26"/>
<path d="M26.5471 147C26.5471 154.456 20.6043 160.5 13.2735 160.5C5.94276 160.5 0 154.456 0 147C0 139.544 5.94276 133.5 13.2735 133.5C20.6043 133.5 26.5471 139.544 26.5471 147Z" fill="white"/>
<path fill-rule="evenodd" clip-rule="evenodd" d="M13.2735 155.5C17.7635 155.5 21.5471 151.775 21.5471 147C21.5471 142.225 17.7635 138.5 13.2735 138.5C8.7836 138.5 5 142.225 5 147C5 151.775 8.7836 155.5 13.2735 155.5ZM13.2735 160.5C20.6043 160.5 26.5471 154.456 26.5471 147C26.5471 139.544 20.6043 133.5 13.2735 133.5C5.94276 133.5 0 139.544 0 147C0 154.456 5.94276 160.5 13.2735 160.5Z" fill="#99DAEE" fill-opacity="0.26"/>
</svg>
