<svg width="35" height="36" viewBox="0 0 35 36" fill="none" xmlns="http://www.w3.org/2000/svg">
<g clip-path="url(#clip0_63_251)">
<path d="M17.5 0.592041C12.8587 0.592041 8.40752 2.43579 5.12563 5.71767C1.84375 8.99956 0 13.4508 0 18.092C0 22.7333 1.84375 27.1845 5.12563 30.4664C8.40752 33.7483 12.8587 35.592 17.5 35.592C22.1413 35.592 26.5925 33.7483 29.8744 30.4664C33.1563 27.1845 35 22.7333 35 18.092C35 13.4508 33.1563 8.99956 29.8744 5.71767C26.5925 2.43579 22.1413 0.592041 17.5 0.592041ZM8.75 9.34204H26.25C26.565 9.3435 26.8632 9.40767 27.1447 9.53454L17.5 20.7849L7.85531 9.53454C8.13663 9.40801 8.44153 9.34241 8.75 9.34204ZM6.5625 24.6545V11.5295L6.56688 11.3917L12.9806 18.8752L6.63687 25.2189C6.58761 25.0348 6.5626 24.8451 6.5625 24.6545ZM26.25 26.842H8.75C8.55604 26.842 8.36792 26.8172 8.18563 26.7677L14.4112 20.542L17.5022 24.147L20.5931 20.542L26.8188 26.7677C26.6347 26.8169 26.4449 26.8419 26.2544 26.842H26.25ZM28.4375 24.6545C28.4375 24.8485 28.4127 25.0366 28.3631 25.2189L22.0194 18.8752L28.4331 11.3917L28.4375 11.5295V24.6545Z" fill="white"/>
</g>
<defs>
<clipPath id="clip0_63_251">
<rect width="35" height="35" fill="white" transform="translate(0 0.592041)"/>
</clipPath>
</defs>
</svg>
