<svg width="302" height="248" viewBox="0 0 302 248" fill="none" xmlns="http://www.w3.org/2000/svg">
<g clip-path="url(#clip0_463_284)">
<path d="M21.3249 146.29L7.01489 154.56L16.1049 159.81H20.0649L21.3249 146.29Z" fill="#2F6B8E"/>
<path d="M180.185 228.54L160.815 239.72L173.105 246.82H178.475L180.185 228.54Z" fill="#2F6B8E"/>
<path d="M292.815 169.96L278.495 178.22L287.585 183.47H291.555L292.815 169.96Z" fill="#2F6B8E"/>
<path d="M291.555 183.47L282.675 178.35V174.48L291.555 179.6V183.47Z" fill="#C0BBB1"/>
<path d="M301.195 177.91L291.555 183.47V179.6L301.195 174.04V177.91Z" fill="#ECE7DE"/>
<path d="M291.555 179.6L282.675 174.48L292.315 168.91L301.195 174.04L291.555 179.6Z" fill="#FAF6F0"/>
<path d="M233.175 138.71L224.305 133.58V129.72L233.175 134.84V138.71Z" fill="#C0BBB1"/>
<path d="M242.815 133.14L233.175 138.71V134.84L242.815 129.28V133.14Z" fill="#ECE7DE"/>
<path d="M233.175 134.84L224.305 129.72L233.945 124.15L242.815 129.28L233.175 134.84Z" fill="#FAF6F0"/>
<path d="M20.0649 159.81L11.1949 154.68V150.81L20.0649 155.94V159.81Z" fill="#C0BBB1"/>
<path d="M29.7049 154.24L20.0649 159.81V155.94L29.7049 150.37V154.24Z" fill="#ECE7DE"/>
<path d="M20.0649 155.94L11.1949 150.81L20.8349 145.25L29.7049 150.37L20.0649 155.94Z" fill="#FAF6F0"/>
<path d="M178.475 246.82L166.465 239.88V234.65L178.475 241.59V246.82Z" fill="#C0BBB1"/>
<path d="M191.515 239.29L178.475 246.82V241.59L191.515 234.06V239.29Z" fill="#ECE7DE"/>
<path d="M178.475 241.59L166.465 234.65L179.505 227.12L191.515 234.06L178.475 241.59Z" fill="#FAF6F0"/>
<path d="M270.155 158.92C267.565 160.14 274.485 164.75 265.455 164.75C253.355 164.75 243.545 159.68 243.545 153.43C243.545 147.18 253.355 142.11 265.455 142.11C271.495 142.11 278.265 143.22 283.275 146.85C284.975 148.08 286.555 149.72 287.135 151.79C287.525 153.19 287.335 153.7 286.165 154.11C286.005 154.17 285.085 154.22 284.025 154.26C281.375 154.36 278.775 154.97 276.365 156.07C273.735 157.27 271.195 158.44 270.155 158.93V158.92Z" fill="#2F6B8E"/>
<path d="M287.855 148.83C286.715 148.13 284.885 147.3 283.395 146.71C282.305 147.88 281.485 148.97 280.415 150.16C285.755 153.03 288.185 154.09 289.475 152.22C290.235 150.69 289.265 149.69 287.865 148.83H287.855Z" fill="#393938"/>
<path d="M287.085 149.1C285.625 148.36 284.305 147.77 282.905 147.31C282.065 148.19 281.215 149.06 280.405 149.96C280.055 150.35 279.705 150.75 279.365 151.15C280.935 152 282.525 152.07 283.705 152.56C286.725 153.8 288.245 153.67 289.385 152.48C290.325 151.5 288.545 149.84 287.085 149.1Z" fill="#F8F3ED"/>
<path d="M270.535 135.03C270.345 134.91 267.775 136.3 266.645 138.23C265.035 140.99 265.015 144.08 265.225 144.38C265.545 144.83 275.415 146.81 279.895 147.77L287.405 141.49C285.785 139.98 273.035 136.59 270.525 135.02L270.535 135.03Z" fill="#393938"/>
<path d="M286.045 141C282.615 141.7 278.145 143.34 274.435 146.48C269.475 150.67 265.235 153.35 265.235 153.35C265.235 153.35 267.665 158.18 268.585 158C277.445 152.68 289.645 149.13 288.965 144.18C288.545 141.1 286.395 140.93 286.045 141Z" fill="#393938"/>
<path d="M263.935 157.19C264.575 159.36 265.395 161.32 266.355 163.27C266.925 164.41 268.025 165.4 269.535 164.4C271.805 162.91 270.635 160.19 267.305 155.12C266.195 155.83 265.065 156.5 263.935 157.19Z" fill="#F8F3ED"/>
<path d="M262.845 157.21C263.725 159.11 265.115 161.37 265.915 162.99C266.285 163.75 266.815 164.39 267.525 164.71C268.315 165.06 269.315 164.74 269.565 163.91C270.025 162.42 268.805 159.79 266.245 155.86C265.165 156.52 263.905 156.52 262.835 157.21H262.845Z" fill="#393938"/>
<path d="M256.315 150.72C255.915 158.23 258.965 159.34 260.225 159.57C263.345 160.13 268.095 156.09 271.385 153.17C274.495 150.41 275.565 148.7 276.985 147.47C274.105 147.6 267.665 148.41 266.725 148.49C266.725 148.49 267.475 138.24 266.045 137.47C265.685 137.28 265.265 137.27 264.855 137.27C263.475 137.28 262.095 137.37 260.725 137.54C259.835 137.65 256.705 137.75 256.705 137.75C256.805 138.46 256.685 140.97 256.665 141.42C256.595 143.04 256.445 148.17 256.315 150.72Z" fill="#393938"/>
<path d="M273.795 126.17C273.605 124.62 273.255 120.57 273.255 120.57C273.255 120.57 272.805 119.46 272.225 119.83C270.615 120.87 268.975 121.84 267.175 122.28C268.025 124.85 268.885 127.23 269.345 128.48C269.595 129.16 274.235 137.59 274.395 138.37L277.435 136.98C277.055 136.7 273.825 126.45 273.795 126.17Z" fill="#FBBD9E"/>
<path d="M266.445 124.46C266.965 126.3 274.215 124.5 274.475 122.96C274.435 119.8 271.515 107.98 267.355 108.86C267.355 108.86 261.945 109.06 266.455 124.46H266.445Z" fill="white"/>
<path d="M254.575 116.39C251.835 119.8 255.165 124.99 256.025 127.97C256.965 131.23 256.605 133.56 256.485 137.27C256.305 142.76 274.445 139.61 271.185 133.55C270.785 132.8 270.375 132.06 270.155 131.24C269.725 129.66 271.075 124.13 272.075 117.74C272.165 117.19 272.195 116.62 272.165 116.06C272.135 115.31 272.095 114.74 271.945 114.08C271.705 113.08 269.935 110.69 268.965 110.34C265.685 109.14 255.635 115.06 254.565 116.39H254.575Z" fill="white"/>
<path d="M261.695 146.36V146.73C261.695 146.79 261.735 146.85 261.815 146.9L271.195 152.32C271.355 152.41 271.625 152.41 271.785 152.32L285.065 144.6C285.145 144.55 285.185 144.49 285.185 144.43V144.06L261.695 146.36Z" fill="#E6E1E0"/>
<path d="M285.065 143.89L275.685 138.47C275.525 138.38 275.255 138.38 275.095 138.47L261.815 146.19C261.655 146.28 261.655 146.44 261.815 146.53L271.195 151.95C271.355 152.04 271.625 152.04 271.785 151.95L285.065 144.23C285.225 144.14 285.225 143.98 285.065 143.89Z" fill="url(#paint0_linear_463_284)"/>
<g style="mix-blend-mode:multiply" opacity="0.3">
<path d="M274.665 143.25L270.285 145.78C270.185 145.84 270.025 145.84 269.925 145.78L267.025 144.1C266.925 144.04 266.925 143.95 267.025 143.89L271.405 141.36C271.505 141.3 271.665 141.3 271.765 141.36L274.665 143.04C274.765 143.1 274.765 143.19 274.665 143.25Z" fill="#E6E1E0"/>
</g>
<path d="M268.225 148.58L267.635 148.92C267.575 148.95 267.485 148.95 267.425 148.92L266.925 148.63C266.865 148.6 266.865 148.54 266.925 148.51L267.515 148.17C267.575 148.14 267.665 148.14 267.725 148.17L268.225 148.46C268.285 148.49 268.285 148.55 268.225 148.58ZM269.175 147.91L268.675 147.62C268.615 147.59 268.525 147.59 268.465 147.62L267.875 147.96C267.815 147.99 267.815 148.05 267.875 148.08L268.375 148.37C268.435 148.4 268.525 148.4 268.585 148.37L269.175 148.03C269.235 148 269.235 147.94 269.175 147.91ZM270.125 147.36L269.625 147.07C269.565 147.04 269.475 147.04 269.415 147.07L268.825 147.41C268.765 147.44 268.765 147.5 268.825 147.53L269.325 147.82C269.385 147.85 269.475 147.85 269.535 147.82L270.125 147.48C270.185 147.45 270.185 147.39 270.125 147.36ZM271.075 146.81L270.575 146.52C270.515 146.49 270.425 146.49 270.365 146.52L269.775 146.86C269.715 146.89 269.715 146.95 269.775 146.98L270.275 147.27C270.335 147.3 270.425 147.3 270.485 147.27L271.075 146.93C271.135 146.9 271.135 146.84 271.075 146.81ZM272.025 146.26L271.525 145.97C271.465 145.94 271.375 145.94 271.315 145.97L270.725 146.31C270.665 146.34 270.665 146.4 270.725 146.43L271.225 146.72C271.285 146.75 271.375 146.75 271.435 146.72L272.025 146.38C272.085 146.35 272.085 146.29 272.025 146.26ZM272.975 145.71L272.475 145.42C272.415 145.39 272.325 145.39 272.265 145.42L271.675 145.76C271.615 145.79 271.615 145.85 271.675 145.88L272.175 146.17C272.235 146.2 272.325 146.2 272.385 146.17L272.975 145.83C273.035 145.8 273.035 145.74 272.975 145.71ZM273.925 145.16L273.425 144.87C273.365 144.84 273.275 144.84 273.215 144.87L272.625 145.21C272.565 145.24 272.565 145.3 272.625 145.33L273.125 145.62C273.185 145.65 273.275 145.65 273.335 145.62L273.925 145.28C273.985 145.25 273.985 145.19 273.925 145.16ZM274.875 144.61L274.375 144.32C274.315 144.29 274.225 144.29 274.165 144.32L273.575 144.66C273.515 144.69 273.515 144.75 273.575 144.78L274.075 145.07C274.135 145.1 274.225 145.1 274.285 145.07L274.875 144.73C274.935 144.7 274.935 144.64 274.875 144.61ZM275.825 144.06L275.325 143.77C275.265 143.74 275.175 143.74 275.115 143.77L274.525 144.11C274.465 144.14 274.465 144.2 274.525 144.23L275.025 144.52C275.085 144.55 275.175 144.55 275.235 144.52L275.825 144.18C275.885 144.15 275.885 144.09 275.825 144.06ZM277.085 143.33L276.585 143.04C276.525 143.01 276.435 143.01 276.375 143.04L275.475 143.56C275.415 143.59 275.415 143.65 275.475 143.68L275.975 143.97C276.035 144 276.125 144 276.185 143.97L277.085 143.45C277.145 143.42 277.145 143.36 277.085 143.33ZM280.665 144.28L280.165 143.99C280.105 143.96 280.015 143.96 279.955 143.99L279.365 144.33C279.305 144.36 279.305 144.42 279.365 144.45L279.865 144.74C279.925 144.77 280.015 144.77 280.075 144.74L280.665 144.4C280.725 144.37 280.725 144.31 280.665 144.28ZM281.615 143.73L281.115 143.44C281.055 143.41 280.965 143.41 280.905 143.44L280.315 143.78C280.255 143.81 280.255 143.87 280.315 143.9L280.815 144.19C280.875 144.22 280.965 144.22 281.025 144.19L281.615 143.85C281.675 143.82 281.675 143.76 281.615 143.73ZM282.565 143.18L282.065 142.89C282.005 142.86 281.915 142.86 281.855 142.89L281.265 143.23C281.205 143.26 281.205 143.32 281.265 143.35L281.765 143.64C281.825 143.67 281.915 143.67 281.975 143.64L282.565 143.3C282.625 143.27 282.625 143.21 282.565 143.18ZM281.535 144.78L281.035 144.49C280.975 144.46 280.885 144.46 280.825 144.49L280.235 144.83C280.175 144.86 280.175 144.92 280.235 144.95L280.735 145.24C280.795 145.27 280.885 145.27 280.945 145.24L281.535 144.9C281.595 144.87 281.595 144.81 281.535 144.78ZM282.485 144.23L281.985 143.94C281.925 143.91 281.835 143.91 281.775 143.94L281.185 144.28C281.125 144.31 281.125 144.37 281.185 144.4L281.685 144.69C281.745 144.72 281.835 144.72 281.895 144.69L282.485 144.35C282.545 144.32 282.545 144.26 282.485 144.23ZM283.435 143.68L282.935 143.39C282.875 143.36 282.785 143.36 282.725 143.39L282.135 143.73C282.075 143.76 282.075 143.82 282.135 143.85L282.635 144.14C282.695 144.17 282.785 144.17 282.845 144.14L283.435 143.8C283.495 143.77 283.495 143.71 283.435 143.68ZM269.385 148.78L268.885 148.49C268.825 148.46 268.735 148.46 268.675 148.49L267.775 149.01C267.715 149.04 267.715 149.1 267.775 149.13L268.275 149.42C268.335 149.45 268.425 149.45 268.485 149.42L269.385 148.9C269.445 148.87 269.445 148.81 269.385 148.78ZM270.335 148.23L269.835 147.94C269.775 147.91 269.685 147.91 269.625 147.94L269.035 148.28C268.975 148.31 268.975 148.37 269.035 148.4L269.535 148.69C269.595 148.72 269.685 148.72 269.745 148.69L270.335 148.35C270.395 148.32 270.395 148.26 270.335 148.23ZM271.285 147.68L270.785 147.39C270.725 147.36 270.635 147.36 270.575 147.39L269.985 147.73C269.925 147.76 269.925 147.82 269.985 147.85L270.485 148.14C270.545 148.17 270.635 148.17 270.695 148.14L271.285 147.8C271.345 147.77 271.345 147.71 271.285 147.68ZM272.235 147.13L271.735 146.84C271.675 146.81 271.585 146.81 271.525 146.84L270.935 147.18C270.875 147.21 270.875 147.27 270.935 147.3L271.435 147.59C271.495 147.62 271.585 147.62 271.645 147.59L272.235 147.25C272.295 147.22 272.295 147.16 272.235 147.13ZM273.185 146.58L272.685 146.29C272.625 146.26 272.535 146.26 272.475 146.29L271.885 146.63C271.825 146.66 271.825 146.72 271.885 146.75L272.385 147.04C272.445 147.07 272.535 147.07 272.595 147.04L273.185 146.7C273.245 146.67 273.245 146.61 273.185 146.58ZM274.135 146.03L273.635 145.74C273.575 145.71 273.485 145.71 273.425 145.74L272.835 146.08C272.775 146.11 272.775 146.17 272.835 146.2L273.335 146.49C273.395 146.52 273.485 146.52 273.545 146.49L274.135 146.15C274.195 146.12 274.195 146.06 274.135 146.03ZM275.085 145.48L274.585 145.19C274.525 145.16 274.435 145.16 274.375 145.19L273.785 145.53C273.725 145.56 273.725 145.62 273.785 145.65L274.285 145.94C274.345 145.97 274.435 145.97 274.495 145.94L275.085 145.6C275.145 145.57 275.145 145.51 275.085 145.48ZM276.035 144.93L275.535 144.64C275.475 144.61 275.385 144.61 275.325 144.64L274.735 144.98C274.675 145.01 274.675 145.07 274.735 145.1L275.235 145.39C275.295 145.42 275.385 145.42 275.445 145.39L276.035 145.05C276.095 145.02 276.095 144.96 276.035 144.93ZM276.985 144.38L276.485 144.09C276.425 144.06 276.335 144.06 276.275 144.09L275.685 144.43C275.625 144.46 275.625 144.52 275.685 144.55L276.185 144.84C276.245 144.87 276.335 144.87 276.395 144.84L276.985 144.5C277.045 144.47 277.045 144.41 276.985 144.38ZM277.935 143.83L277.435 143.54C277.375 143.51 277.285 143.51 277.225 143.54L276.635 143.88C276.575 143.91 276.575 143.97 276.635 144L277.135 144.29C277.195 144.32 277.285 144.32 277.345 144.29L277.935 143.95C277.995 143.92 277.995 143.86 277.935 143.83ZM269.895 149.46L269.395 149.17C269.335 149.14 269.245 149.14 269.185 149.17L268.595 149.51C268.535 149.54 268.535 149.6 268.595 149.63L269.095 149.92C269.155 149.95 269.245 149.95 269.305 149.92L269.895 149.58C269.955 149.55 269.955 149.49 269.895 149.46ZM270.845 148.91L270.345 148.62C270.285 148.59 270.195 148.59 270.135 148.62L269.545 148.96C269.485 148.99 269.485 149.05 269.545 149.08L270.045 149.37C270.105 149.4 270.195 149.4 270.255 149.37L270.845 149.03C270.905 149 270.905 148.94 270.845 148.91ZM271.795 148.36L271.295 148.07C271.235 148.04 271.145 148.04 271.085 148.07L270.495 148.41C270.435 148.44 270.435 148.5 270.495 148.53L270.995 148.82C271.055 148.85 271.145 148.85 271.205 148.82L271.795 148.48C271.855 148.45 271.855 148.39 271.795 148.36ZM272.745 147.81L272.245 147.52C272.185 147.49 272.095 147.49 272.035 147.52L271.445 147.86C271.385 147.89 271.385 147.95 271.445 147.98L271.945 148.27C272.005 148.3 272.095 148.3 272.155 148.27L272.745 147.93C272.805 147.9 272.805 147.84 272.745 147.81ZM271.615 150.46L271.115 150.17C271.055 150.14 270.965 150.14 270.905 150.17L270.315 150.51C270.255 150.54 270.255 150.6 270.315 150.63L270.815 150.92C270.875 150.95 270.965 150.95 271.025 150.92L271.615 150.58C271.675 150.55 271.675 150.49 271.615 150.46ZM272.565 149.91L272.065 149.62C272.005 149.59 271.915 149.59 271.855 149.62L271.265 149.96C271.205 149.99 271.205 150.05 271.265 150.08L271.765 150.37C271.825 150.4 271.915 150.4 271.975 150.37L272.565 150.03C272.625 150 272.625 149.94 272.565 149.91ZM273.515 149.36L273.015 149.07C272.955 149.04 272.865 149.04 272.805 149.07L272.215 149.41C272.155 149.44 272.155 149.5 272.215 149.53L272.715 149.82C272.775 149.85 272.865 149.85 272.925 149.82L273.515 149.48C273.575 149.45 273.575 149.39 273.515 149.36ZM274.465 148.81L273.965 148.52C273.905 148.49 273.815 148.49 273.755 148.52L273.165 148.86C273.105 148.89 273.105 148.95 273.165 148.98L273.665 149.27C273.725 149.3 273.815 149.3 273.875 149.27L274.465 148.93C274.525 148.9 274.525 148.84 274.465 148.81ZM280.485 145.33L279.985 145.04C279.925 145.01 279.835 145.01 279.775 145.04L278.875 145.56C278.815 145.59 278.815 145.65 278.875 145.68L279.375 145.97C279.435 146 279.525 146 279.585 145.97L280.485 145.45C280.545 145.42 280.545 145.36 280.485 145.33ZM273.685 147.26L273.185 146.97C273.125 146.94 273.035 146.94 272.975 146.97L272.385 147.31C272.325 147.34 272.325 147.4 272.385 147.43L272.885 147.72C272.945 147.75 273.035 147.75 273.095 147.72L273.685 147.38C273.745 147.35 273.745 147.29 273.685 147.26ZM274.635 146.71L274.135 146.42C274.075 146.39 273.985 146.39 273.925 146.42L273.335 146.76C273.275 146.79 273.275 146.85 273.335 146.88L273.835 147.17C273.895 147.2 273.985 147.2 274.045 147.17L274.635 146.83C274.695 146.8 274.695 146.74 274.635 146.71ZM275.585 146.16L275.085 145.87C275.025 145.84 274.935 145.84 274.875 145.87L274.285 146.21C274.225 146.24 274.225 146.3 274.285 146.33L274.785 146.62C274.845 146.65 274.935 146.65 274.995 146.62L275.585 146.28C275.645 146.25 275.645 146.19 275.585 146.16ZM276.535 145.61L276.035 145.32C275.975 145.29 275.885 145.29 275.825 145.32L275.235 145.66C275.175 145.69 275.175 145.75 275.235 145.78L275.735 146.07C275.795 146.1 275.885 146.1 275.945 146.07L276.535 145.73C276.595 145.7 276.595 145.64 276.535 145.61ZM277.485 145.06L276.985 144.77C276.925 144.74 276.835 144.74 276.775 144.77L276.185 145.11C276.125 145.14 276.125 145.2 276.185 145.23L276.685 145.52C276.745 145.55 276.835 145.55 276.895 145.52L277.485 145.18C277.545 145.15 277.545 145.09 277.485 145.06ZM278.745 144.33L278.245 144.04C278.185 144.01 278.095 144.01 278.035 144.04L277.135 144.56C277.075 144.59 277.075 144.65 277.135 144.68L277.635 144.97C277.695 145 277.785 145 277.845 144.97L278.745 144.45C278.805 144.42 278.805 144.36 278.745 144.33ZM271.055 149.78L270.555 149.49C270.495 149.46 270.405 149.46 270.345 149.49L269.445 150.01C269.385 150.04 269.385 150.1 269.445 150.13L269.945 150.42C270.005 150.45 270.095 150.45 270.155 150.42L271.055 149.9C271.115 149.87 271.115 149.81 271.055 149.78ZM272.005 149.23L271.505 148.94C271.445 148.91 271.355 148.91 271.295 148.94L270.705 149.28C270.645 149.31 270.645 149.37 270.705 149.4L271.205 149.69C271.265 149.72 271.355 149.72 271.415 149.69L272.005 149.35C272.065 149.32 272.065 149.26 272.005 149.23ZM272.955 148.68L272.455 148.39C272.395 148.36 272.305 148.36 272.245 148.39L271.655 148.73C271.595 148.76 271.595 148.82 271.655 148.85L272.155 149.14C272.215 149.17 272.305 149.17 272.365 149.14L272.955 148.8C273.015 148.77 273.015 148.71 272.955 148.68ZM273.905 148.13L273.405 147.84C273.345 147.81 273.255 147.81 273.195 147.84L272.605 148.18C272.545 148.21 272.545 148.27 272.605 148.3L273.105 148.59C273.165 148.62 273.255 148.62 273.315 148.59L273.905 148.25C273.965 148.22 273.965 148.16 273.905 148.13ZM274.855 147.58L274.355 147.29C274.295 147.26 274.205 147.26 274.145 147.29L273.555 147.63C273.495 147.66 273.495 147.72 273.555 147.75L274.055 148.04C274.115 148.07 274.205 148.07 274.265 148.04L274.855 147.7C274.915 147.67 274.915 147.61 274.855 147.58ZM275.805 147.03L275.305 146.74C275.245 146.71 275.155 146.71 275.095 146.74L274.505 147.08C274.445 147.11 274.445 147.17 274.505 147.2L275.005 147.49C275.065 147.52 275.155 147.52 275.215 147.49L275.805 147.15C275.865 147.12 275.865 147.06 275.805 147.03ZM276.755 146.48L276.255 146.19C276.195 146.16 276.105 146.16 276.045 146.19L275.455 146.53C275.395 146.56 275.395 146.62 275.455 146.65L275.955 146.94C276.015 146.97 276.105 146.97 276.165 146.94L276.755 146.6C276.815 146.57 276.815 146.51 276.755 146.48ZM277.705 145.93L277.205 145.64C277.145 145.61 277.055 145.61 276.995 145.64L276.405 145.98C276.345 146.01 276.345 146.07 276.405 146.1L276.905 146.39C276.965 146.42 277.055 146.42 277.115 146.39L277.705 146.05C277.765 146.02 277.765 145.96 277.705 145.93ZM278.655 145.38L278.155 145.09C278.095 145.06 278.005 145.06 277.945 145.09L277.355 145.43C277.295 145.46 277.295 145.52 277.355 145.55L277.855 145.84C277.915 145.87 278.005 145.87 278.065 145.84L278.655 145.5C278.715 145.47 278.715 145.41 278.655 145.38ZM279.605 144.83L279.105 144.54C279.045 144.51 278.955 144.51 278.895 144.54L278.305 144.88C278.245 144.91 278.245 144.97 278.305 145L278.805 145.29C278.865 145.32 278.955 145.32 279.015 145.29L279.605 144.95C279.665 144.92 279.665 144.86 279.605 144.83ZM277.955 142.78L277.455 142.49C277.395 142.46 277.305 142.46 277.245 142.49L276.655 142.83C276.595 142.86 276.595 142.92 276.655 142.95L277.155 143.24C277.215 143.27 277.305 143.27 277.365 143.24L277.955 142.9C278.015 142.87 278.015 142.81 277.955 142.78ZM278.905 142.23L278.405 141.94C278.345 141.91 278.255 141.91 278.195 141.94L277.605 142.28C277.545 142.31 277.545 142.37 277.605 142.4L278.105 142.69C278.165 142.72 278.255 142.72 278.315 142.69L278.905 142.35C278.965 142.32 278.965 142.26 278.905 142.23ZM279.855 141.68L279.355 141.39C279.295 141.36 279.205 141.36 279.145 141.39L278.555 141.73C278.495 141.76 278.495 141.82 278.555 141.85L279.055 142.14C279.115 142.17 279.205 142.17 279.265 142.14L279.855 141.8C279.915 141.77 279.915 141.71 279.855 141.68ZM280.725 142.18L280.225 141.89C280.165 141.86 280.075 141.86 280.015 141.89L279.425 142.23C279.365 142.26 279.365 142.32 279.425 142.35L279.925 142.64C279.985 142.67 280.075 142.67 280.135 142.64L280.725 142.3C280.785 142.27 280.785 142.21 280.725 142.18Z" fill="white"/>
<path d="M264.495 148.35L264.895 148.58C264.895 148.58 264.975 148.59 264.975 148.54C264.975 148.49 264.935 148.43 264.895 148.41L264.495 148.18C264.495 148.18 264.415 148.17 264.415 148.22C264.415 148.27 264.455 148.33 264.495 148.35Z" fill="#BDB7B5"/>
<path d="M265.235 148.77L265.635 149C265.635 149 265.715 149.01 265.715 148.96C265.715 148.91 265.675 148.85 265.635 148.83L265.235 148.6C265.235 148.6 265.155 148.59 265.155 148.64C265.155 148.69 265.195 148.75 265.235 148.77Z" fill="#BDB7B5"/>
<path d="M267.425 150.01L266.275 149.34V149.24L267.425 149.9V150.01Z" fill="#BDB7B5"/>
<path d="M267.505 117.9C267.225 118.41 266.715 118.75 266.145 118.89C265.075 119.15 263.955 119.06 263.035 118.51C261.765 117.74 260.685 116.26 260.885 114.26C260.905 114.05 261.005 113.84 261.155 113.69C261.845 112.99 262.665 111.81 263.145 109.43C263.295 108.69 264.155 108.37 264.755 108.83C266.775 110.42 268.345 113.5 268.325 114.84C268.325 115.38 268.065 116.89 267.505 117.89V117.9Z" fill="#F2A883"/>
<path d="M274.875 146.74C274.695 145.98 274.385 144.96 274.065 144.35C274.395 144.35 274.655 144.22 274.415 143.85C274.035 143.28 273.465 142.32 272.615 141.7C272.435 141.57 272.065 141.34 271.855 141.26C271.645 141.17 271.415 141.12 271.145 141.12C270.675 141.12 270.275 141.14 269.895 141.03C267.255 139.07 262.585 134.62 261.215 133.43C260.995 133.24 260.875 132.97 260.875 132.69C260.875 131.14 260.995 129.52 261.055 127.9C261.085 127.21 260.355 126.74 259.725 127.04C257.995 127.87 256.265 128.63 254.415 128.85C254.945 131.51 255.505 133.97 255.815 135.27C255.985 135.98 256.355 136.62 256.905 137.09C259.155 139.01 264.885 141.58 267.855 143.27C268.895 143.95 270.425 147.51 271.205 148.07C271.835 148.52 273.335 148.13 274.255 147.83C274.705 147.68 274.975 147.22 274.865 146.75L274.875 146.74Z" fill="#FBBD9E"/>
<path d="M253.545 130.96C253.835 132.85 261.255 131.96 261.695 130.46C262.045 127.32 260.595 115.23 256.355 115.59C256.355 115.59 250.965 115.13 253.545 130.96Z" fill="white"/>
<path d="M279.365 138.98C278.325 137.87 277.545 137.06 277.445 136.99C276.075 136.8 275.065 137.28 274.405 138.38C274.515 138.91 274.825 140.28 274.985 140.8C275.245 141.69 275.405 145.11 276.325 145.36C277.105 145.57 280.695 144.43 280.565 143.01C280.565 143.01 280.665 140.35 279.375 138.98H279.365Z" fill="#FBBD9E"/>
<path d="M271.735 152.32L274.945 143.33L274.845 143.24L271.635 152.23C271.595 152.34 271.605 152.42 271.635 152.46L271.735 152.55C271.735 152.55 271.685 152.43 271.735 152.32Z" fill="#E6E1E0"/>
<path d="M288.905 134.88C288.845 134.82 288.725 134.84 288.555 134.94L275.545 142.45C275.255 142.62 274.945 142.96 274.845 143.23L274.945 143.32C275.035 143.06 275.355 142.71 275.645 142.54L288.655 135.03C288.825 134.93 288.945 134.92 289.005 134.97L288.905 134.88Z" fill="url(#paint1_linear_463_284)"/>
<path d="M288.645 135.03L275.635 142.54C275.345 142.71 275.035 143.05 274.935 143.32L271.725 152.31C271.635 152.57 271.795 152.65 272.085 152.48L285.095 144.97C285.385 144.8 285.695 144.46 285.795 144.19L289.005 135.2C289.095 134.94 288.935 134.86 288.645 135.03Z" fill="#D9D5D4"/>
<path d="M281.775 143.34C281.775 143.79 281.295 144.45 280.705 144.83C280.115 145.21 279.635 145.15 279.635 144.7C279.635 144.25 280.115 143.59 280.705 143.21C281.295 142.83 281.775 142.89 281.775 143.34Z" fill="#C8C3C2"/>
<path d="M270.645 105.94C269.675 104.28 268.355 103.52 266.445 103.43C265.925 103.41 265.075 103.86 264.595 104.03C262.785 104.68 262.445 107.69 262.375 109.39C262.285 111.54 262.375 113.87 263.765 115.54C266.475 118.78 269.555 119.17 269.915 117.12C269.945 116.94 269.965 116.71 270.125 116.63C270.185 116.6 270.255 116.6 270.315 116.58C270.615 116.49 270.705 116.11 270.705 115.79C270.705 115.51 270.685 115.23 270.645 114.96C270.615 114.75 270.565 114.53 270.595 114.32C270.655 113.85 271.035 113.5 271.295 113.1C271.895 112.14 271.825 110.63 271.735 109.55C271.635 108.29 271.285 107.03 270.645 105.94Z" fill="#FBBD9E"/>
<path d="M271.025 104.91C269.105 102.79 266.365 102.6 264.495 103.72C259.705 104.85 259.755 110.39 262.625 113.98C262.325 113.03 263.585 112.51 263.765 112.81C264.285 113.68 264.385 114.37 264.905 114.41C265.325 114.44 265.045 113.65 266.245 113.14C266.455 113.05 269.975 113.04 271.585 111.67C271.705 111.56 271.795 111.42 271.855 111.27C272.135 110.49 273.365 107.5 271.025 104.9V104.91Z" fill="#393938"/>
<path d="M263.405 112.28C262.595 111.36 261.155 112.54 263.445 115.11C263.675 115.37 263.975 115.63 264.275 115.45C264.935 115.05 263.875 112.82 263.395 112.28H263.405Z" fill="#FBBD9E"/>
<path d="M49.9849 132.2L37.7949 125.17V119.85L49.9849 126.89V132.2Z" fill="#C0BBB1"/>
<path d="M69.1449 121.15L49.9849 132.2V126.89L69.1449 115.84V121.15Z" fill="#ECE7DE"/>
<path d="M49.9849 126.89L37.7949 119.85L56.9449 108.8L69.1449 115.84L49.9849 126.89Z" fill="#FAF6F0"/>
<path d="M120.825 121.8C60.185 121.8 6.21495 190.27 58.7249 190.27H158.875L163.525 121.8C163.525 121.8 165.345 121.8 120.825 121.8Z" fill="#2F6B8E"/>
<path d="M114.225 175.08L117.475 177.59C119.035 178.79 120.755 179.94 122.645 181.04C143.955 193.34 178.405 193.34 199.575 181.04C201.325 180.02 202.935 178.95 204.385 177.84L207.655 175.35L114.215 175.09L114.225 175.08Z" fill="#C0BBB1"/>
<path d="M199.395 111.53C178.085 99.23 143.635 99.23 122.465 111.53C101.295 123.83 101.405 143.79 122.715 156.09C144.025 168.39 178.475 168.39 199.645 156.09C220.815 143.79 220.705 123.83 199.395 111.53Z" fill="#FAF6F0"/>
<path d="M102.565 137.57L102.515 154.67C102.495 163.39 108.245 172.13 119.775 178.79C142.685 192.02 179.715 192.02 202.475 178.79C213.785 172.22 219.445 163.62 219.465 155.01L219.515 137.91L102.555 137.58L102.565 137.57Z" fill="url(#paint2_linear_463_284)"/>
<path d="M207.825 117.49L204.575 114.98C219.395 126.42 219.085 142.35 203.595 153.54C202.375 154.42 201.055 155.28 199.645 156.09C187.965 162.88 172.235 165.92 156.895 165.22C144.445 164.65 132.255 161.6 122.705 156.09C103.155 144.81 101.445 127.08 117.635 114.73L114.365 117.22C96.955 130.5 98.795 149.55 119.815 161.68C130.085 167.61 143.185 170.88 156.565 171.49C173.045 172.25 189.955 168.98 202.515 161.68C204.035 160.8 205.445 159.88 206.755 158.93C223.405 146.89 223.745 129.77 207.805 117.48L207.825 117.49Z" fill="#FAF6F0"/>
<path d="M203.595 153.54C202.375 154.42 201.055 155.28 199.645 156.09C187.965 162.88 172.235 165.92 156.895 165.22L156.575 171.5C173.055 172.26 189.965 168.99 202.525 161.69C204.045 160.81 205.455 159.89 206.765 158.94L203.585 153.54H203.595Z" fill="white"/>
<path d="M106.615 117.72L106.565 133.64C106.545 141.76 111.905 149.89 122.635 156.09C143.955 168.4 178.425 168.4 199.605 156.09C210.125 149.97 215.395 141.97 215.425 133.95L215.465 118.03L106.605 117.72H106.615Z" fill="#00A3D4"/>
<path d="M114.225 142.27L117.475 144.78C119.035 145.98 120.755 147.13 122.645 148.23C143.955 160.53 178.405 160.53 199.575 148.23C201.325 147.21 202.935 146.14 204.385 145.03L207.655 142.54L114.215 142.28L114.225 142.27Z" fill="#C0BBB1"/>
<path d="M199.395 78.72C178.085 66.42 143.635 66.42 122.465 78.72C101.295 91.02 101.405 110.98 122.715 123.28C144.025 135.58 178.475 135.58 199.645 123.28C220.815 110.98 220.705 91.02 199.395 78.72Z" fill="#FAF6F0"/>
<path d="M102.565 104.76L102.515 121.86C102.495 130.58 108.245 139.32 119.775 145.98C142.685 159.21 179.715 159.21 202.475 145.98C213.785 139.41 219.445 130.81 219.465 122.2L219.515 105.1L102.555 104.77L102.565 104.76Z" fill="url(#paint3_linear_463_284)"/>
<path d="M207.825 84.68L204.575 82.17C219.395 93.61 219.085 109.54 203.595 120.73C202.375 121.61 201.055 122.47 199.645 123.28C187.965 130.07 172.235 133.11 156.895 132.41C144.445 131.84 132.255 128.79 122.705 123.28C103.155 111.99 101.445 94.27 117.635 81.92L114.365 84.41C96.955 97.69 98.795 116.74 119.815 128.87C130.085 134.8 143.185 138.07 156.565 138.68C173.045 139.44 189.955 136.17 202.515 128.87C204.035 127.99 205.445 127.07 206.755 126.12C223.405 114.08 223.745 96.96 207.805 84.67L207.825 84.68Z" fill="#FAF6F0"/>
<path d="M203.595 120.73C202.375 121.61 201.055 122.47 199.645 123.28C187.965 130.07 172.235 133.11 156.895 132.41L156.575 138.69C173.055 139.45 189.965 136.18 202.525 128.88C204.045 128 205.455 127.08 206.765 126.13L203.585 120.73H203.595Z" fill="white"/>
<path d="M106.615 84.91L106.565 100.83C106.545 108.95 111.905 117.08 122.635 123.28C143.955 135.59 178.425 135.59 199.605 123.28C210.125 117.16 215.395 109.16 215.425 101.14L215.465 85.22L106.605 84.91H106.615Z" fill="#00A3D4"/>
<path d="M114.225 108.17L117.475 110.68C119.035 111.88 120.755 113.03 122.645 114.13C143.955 126.43 178.405 126.43 199.575 114.13C201.325 113.11 202.935 112.04 204.385 110.93L207.655 108.44L114.215 108.18L114.225 108.17Z" fill="#C0BBB1"/>
<path d="M199.395 44.62C178.085 32.32 143.635 32.32 122.465 44.62C101.295 56.92 101.405 76.88 122.715 89.18C144.025 101.48 178.475 101.48 199.645 89.18C220.815 76.88 220.705 56.92 199.395 44.62Z" fill="#FAF6F0"/>
<path d="M102.565 70.66L102.515 87.76C102.495 96.48 108.245 105.22 119.775 111.88C142.685 125.11 179.715 125.11 202.475 111.88C213.785 105.31 219.445 96.71 219.465 88.1L219.515 71L102.555 70.67L102.565 70.66Z" fill="url(#paint4_linear_463_284)"/>
<path d="M207.825 50.58L204.575 48.07C219.395 59.51 219.085 75.44 203.595 86.63C202.375 87.51 201.055 88.36 199.645 89.18C187.965 95.97 172.235 99.01 156.895 98.31C144.445 97.74 132.255 94.69 122.705 89.18C103.155 77.89 101.445 60.17 117.635 47.82L114.365 50.31C96.955 63.59 98.795 82.64 119.815 94.77C130.085 100.7 143.185 103.97 156.565 104.58C173.045 105.34 189.955 102.07 202.515 94.77C204.035 93.89 205.445 92.97 206.755 92.02C223.405 79.98 223.745 62.86 207.805 50.57L207.825 50.58Z" fill="#FAF6F0"/>
<path d="M203.595 86.63C202.375 87.51 201.055 88.36 199.645 89.18C187.965 95.97 172.235 99.01 156.895 98.31L156.575 104.59C173.055 105.35 189.965 102.08 202.525 94.78C204.045 93.9 205.455 92.98 206.765 92.03L203.585 86.63H203.595Z" fill="white"/>
<path d="M106.615 50.81L106.565 66.73C106.545 74.85 111.905 82.98 122.635 89.18C143.955 101.49 178.425 101.49 199.605 89.18C210.125 83.06 215.395 75.06 215.425 67.04L215.465 51.12L106.605 50.81H106.615Z" fill="#00A3D4"/>
<path d="M114.225 72.78L117.475 75.29C119.035 76.49 120.755 77.64 122.645 78.74C143.955 91.04 178.405 91.04 199.575 78.74C201.325 77.72 202.935 76.65 204.385 75.54L207.655 73.05L114.215 72.79L114.225 72.78Z" fill="#C0BBB1"/>
<path d="M102.565 35.26L102.515 52.36C102.495 61.08 108.245 69.82 119.775 76.48C142.685 89.71 179.715 89.71 202.475 76.48C213.785 69.91 219.445 61.31 219.465 52.7L219.515 35.6L102.555 35.27L102.565 35.26Z" fill="url(#paint5_linear_463_284)"/>
<path d="M207.825 15.18L204.575 12.67L117.655 12.42L114.385 14.91C96.975 28.19 98.815 47.24 119.835 59.37C130.105 65.3 143.205 68.57 156.585 69.18C173.065 69.94 189.975 66.67 202.535 59.37C204.055 58.49 205.465 57.57 206.775 56.62C223.425 44.58 223.765 27.46 207.825 15.17V15.18Z" fill="#FAF6F0"/>
<path d="M199.395 9.23001C178.085 -3.06999 143.635 -3.06999 122.465 9.23001C101.295 21.53 101.405 41.49 122.715 53.79C144.025 66.09 178.475 66.09 199.645 53.79C220.815 41.49 220.705 21.53 199.395 9.23001Z" fill="#FFFEF9"/>
<path d="M203.595 51.24C202.375 52.12 201.055 52.98 199.645 53.79C187.965 60.58 172.235 63.62 156.895 62.92L156.575 69.2C173.055 69.96 189.965 66.69 202.525 59.39C204.045 58.51 205.455 57.59 206.765 56.64L203.585 51.24H203.595Z" fill="white"/>
<path d="M42.6849 198.48L26.5349 189.82L0.804932 204.68L26.6749 219.61H49.8549L42.6849 198.48Z" fill="#2F6B8E"/>
<path d="M49.855 219.61L24.595 205.03V183.3L49.855 197.89V219.61Z" fill="#C0BBB1"/>
<path d="M49.855 197.89V219.61L89.555 196.7V174.97L49.855 197.89Z" fill="#ECE7DE"/>
<path d="M49.855 197.89L24.595 183.3L64.285 160.39L89.555 174.97L49.855 197.89Z" fill="#FAF6F0"/>
<path d="M49.5548 153.13C50.4348 154.73 49.2448 157.77 49.1748 158.79C49.7448 158.43 50.3048 158.07 50.8748 157.72C51.3548 157.42 51.8448 157.11 52.2348 156.7C52.7148 156.2 53.0348 155.58 53.3448 154.97C53.9948 153.7 54.6548 152.41 54.9048 151.01C55.3248 148.7 55.7248 145.33 55.0448 143.16C53.1748 137.28 42.4048 140.16 49.5548 153.13Z" fill="#393938"/>
<path d="M54.3349 142.28C54.0549 141.79 53.2249 141.75 52.4649 142.18C51.7049 142.61 51.3149 143.35 51.5949 143.84C51.8749 144.33 52.7049 144.37 53.4649 143.94C54.2249 143.51 54.6149 142.77 54.3349 142.28Z" fill="#FAF6F0"/>
<path d="M71.7049 210.27C71.2549 209.78 70.7349 209.38 70.2649 208.91C69.3249 207.97 67.6949 208.61 67.6449 210.01C67.6449 210.25 67.8049 210.77 67.9649 211.08C68.0249 211.24 68.0849 211.4 68.1649 211.55C68.4949 212.27 68.7249 213.03 68.8549 213.81C68.8749 213.92 70.7049 215.34 72.0349 216.26C72.9249 216.88 74.0549 217.12 75.1049 216.83C75.8649 216.62 76.4849 216.19 76.3049 215.39C75.9149 213.61 74.2249 213.01 71.7249 210.26L71.7049 210.27Z" fill="#403642"/>
<path d="M67.955 207.76C68.175 208.38 68.375 208.77 68.145 209.21C67.985 209.52 68.185 209.88 68.375 210.17C69.345 211.59 69.995 212.7 70.895 213.35C72.435 214.45 74.405 213.7 73.715 212.38C73.375 211.73 72.395 210.91 71.415 209.1C71.075 208.47 70.745 207.48 70.415 206.68C70.275 206.33 67.955 207.76 67.955 207.76Z" fill="#FABC9D"/>
<path d="M77.3149 207.59C76.9849 207.01 76.5549 206.51 76.2049 205.95C75.4949 204.83 73.7649 205.1 73.4049 206.46C73.3449 206.69 73.4049 207.23 73.4849 207.58C73.5049 207.75 73.5349 207.92 73.5749 208.08C73.7449 208.85 73.8049 209.65 73.7549 210.44C73.7549 210.57 75.4549 212.4 76.4849 213.54C77.1749 214.31 78.1649 214.79 79.2049 214.74C79.9849 214.7 80.6949 214.41 80.6949 213.6C80.6949 211.78 79.1749 210.83 77.3249 207.6L77.3149 207.59Z" fill="#403642"/>
<path d="M74.1949 204.31C74.2749 204.96 74.3849 205.39 74.0649 205.76C73.8349 206.02 73.9549 206.43 74.0849 206.75C74.7249 208.35 75.1149 209.57 75.8549 210.4C77.1249 211.81 79.2049 211.5 78.8149 210.07C78.6249 209.36 77.8449 208.35 77.2749 206.37C77.0749 205.69 76.9649 204.65 76.8249 203.79C76.7649 203.42 74.1949 204.31 74.1949 204.31Z" fill="#FABC9D"/>
<path d="M75.0449 190.73C74.7549 188.02 73.5549 186.01 70.3449 182.68C68.5049 180.78 66.4249 178.9 63.2149 176.66C62.1149 175.89 61.1449 174.94 60.3549 173.86L59.1749 172.21C48.3849 174.27 46.8749 177.99 57.5349 183.89L63.7449 186.94C66.8649 188.47 69.2049 191.35 69.7849 194.77C69.9849 195.97 70.4249 197.37 71.2649 198.93C71.9349 200.17 72.5649 201.44 73.0649 202.76C73.5449 204.03 74.0649 205.44 74.1849 205.94C74.4149 206.93 77.4149 206.77 77.2249 205.67C77.2249 205.67 76.6249 196.34 75.0549 190.73H75.0449Z" fill="#393938"/>
<path d="M70.4949 199.83C70.4949 197.66 70.8449 195.05 70.4549 193.17C70.3249 192.54 70.0949 191.92 69.6549 191.46C69.3149 191.1 59.8849 184.34 57.4249 181.73L52.8249 177.01L47.6849 176.14C46.8449 178.41 46.7949 180.97 47.5349 183.27C48.2749 185.58 49.8149 187.62 51.8149 188.98C53.3149 189.99 63.9749 195.39 65.0249 196.01C65.1349 196.08 65.2549 196.16 65.2949 196.28C65.3349 196.41 65.2749 196.54 65.2249 196.66C64.8849 197.37 64.5449 198.32 64.4649 199.11C64.1549 202.26 66.7849 205.62 68.0649 208.23C68.3649 208.84 69.1849 208.88 69.8949 208.75C70.6149 208.62 71.2349 208.32 71.1249 207.73C71.0549 206.73 70.4949 201.99 70.5049 199.83H70.4949Z" fill="#393938"/>
<path d="M56.2049 154.47C55.8249 158.05 59.5049 165.47 60.4749 167.22C60.6049 167.46 64.8749 174.19 65.6849 175.35C66.4349 176.43 68.9349 174.97 68.4549 173.8C67.5749 171.68 63.8649 164.7 63.8349 164.56C62.9649 161.1 62.0049 153.47 60.5049 152.44C58.3249 150.94 56.3849 152.84 56.2149 154.46L56.2049 154.47Z" fill="white"/>
<path d="M47.5649 176.46C47.5649 176.46 50.2649 178.33 55.3149 177.37C58.3649 176.79 61.0849 175.11 60.3549 173.86C59.8349 172.97 58.7749 171.4 59.4249 168.54C59.6949 167.34 60.0549 166.53 60.7149 165.66C63.7749 161.63 60.0049 159.97 60.2949 155.83C60.3549 154.97 60.6649 154.13 60.6149 153.27C60.5749 152.47 59.6449 152.06 58.7649 152.01C57.2549 151.92 48.6149 156.05 46.6749 157.95C46.4049 158.21 46.2949 158.57 46.3349 158.94C46.4749 160.09 47.2549 161.24 47.7149 162.22C50.9149 168.98 49.0149 171.14 47.5549 176.47L47.5649 176.46Z" fill="white"/>
<path d="M58.4248 146.76L58.3448 146.96L62.5548 148.82L62.6248 148.29L58.4248 146.76Z" fill="#393938"/>
<path d="M57.7249 158.3L57.4949 160.01L56.9549 158.61C55.3149 159.37 52.3849 157.67 52.6349 154.94C52.6549 154.73 52.7949 154.41 52.9549 154.26C53.5249 153.69 53.9349 152.6 54.4049 150.76C54.5949 150.02 55.4749 149.74 56.0649 150.23C57.7749 151.63 58.5949 154.43 58.5349 155.59C58.5249 155.8 58.6649 156.51 58.6549 156.78C58.6549 157.07 58.5849 157.42 58.4749 157.61C58.2649 157.99 58.0549 158.18 57.7349 158.3H57.7249Z" fill="#F7AD8D"/>
<path d="M58.0148 156.26C58.4648 156.44 58.9848 156.6 59.4148 156.38C59.7848 156.2 59.9748 155.8 60.1348 155.42C61.0148 153.32 61.5048 151.05 61.5648 148.77C61.5848 148 61.5448 147.2 61.1648 146.53C60.5548 145.47 59.2148 145.03 57.9848 145.04C56.3448 145.05 54.6148 145.81 53.9048 147.28C53.4048 148.32 51.6848 149.64 51.7348 150.76C51.7648 151.46 52.7248 152.47 53.7848 153.16C54.4048 154.84 56.4648 155.64 58.0148 156.25V156.26Z" fill="#FABC9D"/>
<path d="M54.8049 151.21C54.2849 151.55 54.0049 151.05 53.7649 150.65C52.6149 148.76 51.5749 150.33 52.1949 151.55C52.4249 152 52.8149 152.35 53.2349 152.64C53.8749 153.07 53.8749 153.37 53.8749 153.37L53.0749 154.14C49.3449 151.23 49.1949 146.69 50.8849 144.32C52.6349 141.86 56.3049 140.63 58.8749 142.6C58.9849 142.68 60.3049 143.83 60.5649 144.1C61.0149 144.57 61.7049 145.88 61.3649 146.93C60.9849 146.55 58.9949 147.13 57.5249 148.2C55.9749 149.33 55.2149 150.94 54.8149 151.21H54.8049Z" fill="#393938"/>
<g style="mix-blend-mode:screen" opacity="0.4">
<path d="M57.3549 152.62C57.3549 152.62 57.2549 152.6 57.2449 152.59C57.1749 152.55 57.1449 152.47 57.1449 152.36V151.56C57.1449 151.48 57.2049 151.39 57.2849 151.34L59.2849 150.19C59.4049 150.21 59.4149 150.24 59.4149 150.27V151.03C59.4149 151.28 59.2049 151.61 58.9549 151.75L57.5849 152.54C57.5049 152.59 57.4249 152.61 57.3549 152.61V152.62ZM60.5449 150.78C60.5449 150.78 60.4449 150.76 60.4349 150.75C60.3649 150.71 60.3249 150.63 60.3249 150.52V149.72C60.3249 149.64 60.3849 149.55 60.4649 149.5L62.4649 148.35C62.5849 148.37 62.5949 148.4 62.5949 148.43V149.19C62.5949 149.44 62.3849 149.77 62.1349 149.91L60.7649 150.7C60.6849 150.75 60.6049 150.77 60.5349 150.77L60.5449 150.78Z" fill="#7D96FF"/>
</g>
<path d="M62.6249 148.23C62.5649 148.2 62.4849 148.2 62.4049 148.24L60.3949 149.4C60.2849 149.46 60.1949 149.6 60.1949 149.72C60.0649 149.72 59.9249 149.72 59.7749 149.82C59.6549 149.89 59.5449 149.99 59.4449 150.11C59.3649 150.04 59.2849 150.04 59.2049 150.09L57.1949 151.25C57.0849 151.31 56.9949 151.45 56.9949 151.57V152.37C56.9949 152.52 57.0549 152.64 57.1649 152.7C57.2149 152.73 57.2749 152.74 57.3349 152.74C57.4249 152.74 57.5249 152.71 57.6249 152.65L58.9949 151.86C59.2849 151.69 59.5149 151.33 59.5149 151.03V150.35C59.6149 150.2 59.7449 150.07 59.8849 149.99C60.0049 149.92 60.1149 149.91 60.1949 149.93V150.51C60.1949 150.66 60.2549 150.78 60.3649 150.84C60.4149 150.87 60.4749 150.88 60.5349 150.88C60.6249 150.88 60.7249 150.85 60.8249 150.79L62.1949 150C62.4849 149.83 62.7149 149.47 62.7149 149.17V148.37C62.7149 148.3 62.6849 148.24 62.6249 148.2V148.23ZM59.3149 151.03C59.3149 151.25 59.1249 151.55 58.9049 151.67L57.5349 152.46C57.4349 152.52 57.3449 152.53 57.2849 152.5C57.2349 152.47 57.2249 152.39 57.2249 152.35V151.55C57.2249 151.55 57.2649 151.44 57.3149 151.41L59.3149 150.26V151.02V151.03ZM62.5049 149.19C62.5049 149.41 62.3149 149.71 62.0949 149.83L60.7249 150.62C60.6249 150.68 60.5349 150.69 60.4749 150.66C60.4249 150.63 60.4149 150.55 60.4149 150.51V149.71C60.4149 149.71 60.4549 149.6 60.5049 149.57L62.5049 148.42V149.18V149.19Z" fill="#393938"/>
<path d="M52.9549 149.9L52.8849 150.1L57.0849 151.96L57.1549 151.42L52.9549 149.9Z" fill="#393938"/>
<path d="M52.1949 151.56C52.4249 152.01 52.8149 152.36 53.2349 152.65L53.7649 150.66C52.6149 148.77 51.5749 150.34 52.1949 151.56Z" fill="#FABC9D"/>
<path d="M54.7649 185.23V185.62C54.7649 185.69 54.8049 185.75 54.8949 185.8L64.8249 191.53C64.9949 191.63 65.2749 191.63 65.4449 191.53L79.4949 183.37C79.5849 183.32 79.6249 183.26 79.6249 183.19V182.8L54.7749 185.23H54.7649Z" fill="#E6E1E0"/>
<path d="M79.4948 182.62L69.5648 176.89C69.3948 176.79 69.1148 176.79 68.9448 176.89L54.8948 185.05C54.7248 185.15 54.7248 185.31 54.8948 185.41L64.8248 191.14C64.9948 191.24 65.2748 191.24 65.4448 191.14L79.4948 182.98C79.6648 182.88 79.6648 182.72 79.4948 182.62Z" fill="url(#paint6_linear_463_284)"/>
<g style="mix-blend-mode:multiply" opacity="0.3">
<path d="M68.4848 181.94L63.8548 184.61C63.7548 184.67 63.5848 184.67 63.4748 184.61L60.4048 182.84C60.3048 182.78 60.3048 182.68 60.4048 182.62L65.0348 179.95C65.1348 179.89 65.3048 179.89 65.4148 179.95L68.4848 181.72C68.5848 181.78 68.5848 181.88 68.4848 181.94Z" fill="#E6E1E0"/>
</g>
<path d="M61.6649 187.58L61.0449 187.94C60.9849 187.97 60.8849 187.97 60.8249 187.94L60.2949 187.64C60.2349 187.61 60.2349 187.55 60.2949 187.51L60.9149 187.15C60.9749 187.12 61.0749 187.12 61.1349 187.15L61.6649 187.45C61.7249 187.48 61.7249 187.54 61.6649 187.58ZM62.6749 186.87L62.1449 186.57C62.0849 186.54 61.9849 186.54 61.9249 186.57L61.3049 186.93C61.2449 186.97 61.2449 187.02 61.3049 187.06L61.8349 187.36C61.8949 187.39 61.9949 187.39 62.0549 187.36L62.6749 187C62.7349 186.97 62.7349 186.91 62.6749 186.87ZM63.6849 186.29L63.1549 185.99C63.0949 185.96 62.9949 185.96 62.9349 185.99L62.3149 186.35C62.2549 186.39 62.2549 186.44 62.3149 186.48L62.8449 186.78C62.9049 186.81 63.0049 186.81 63.0649 186.78L63.6849 186.42C63.7449 186.39 63.7449 186.33 63.6849 186.29ZM64.6949 185.71L64.1649 185.41C64.1049 185.37 64.0049 185.37 63.9449 185.41L63.3249 185.77C63.2649 185.81 63.2649 185.86 63.3249 185.9L63.8549 186.2C63.9149 186.24 64.0149 186.24 64.0749 186.2L64.6949 185.84C64.7549 185.8 64.7549 185.75 64.6949 185.71ZM65.7049 185.13L65.1749 184.83C65.1149 184.8 65.0149 184.8 64.9549 184.83L64.3349 185.19C64.2749 185.22 64.2749 185.28 64.3349 185.32L64.8649 185.62C64.9249 185.65 65.0249 185.65 65.0849 185.62L65.7049 185.26C65.7649 185.23 65.7649 185.17 65.7049 185.13ZM66.7149 184.55L66.1849 184.25C66.1249 184.22 66.0249 184.22 65.9649 184.25L65.3449 184.61C65.2849 184.65 65.2849 184.7 65.3449 184.74L65.8749 185.04C65.9349 185.07 66.0349 185.07 66.0949 185.04L66.7149 184.68C66.7749 184.64 66.7749 184.59 66.7149 184.55ZM67.7249 183.97L67.1949 183.67C67.1349 183.64 67.0349 183.64 66.9749 183.67L66.3549 184.03C66.2949 184.07 66.2949 184.12 66.3549 184.16L66.8849 184.46C66.9449 184.49 67.0449 184.49 67.1049 184.46L67.7249 184.1C67.7849 184.07 67.7849 184.01 67.7249 183.97ZM68.7349 183.39L68.2049 183.09C68.1449 183.06 68.0449 183.06 67.9849 183.09L67.3649 183.45C67.3049 183.48 67.3049 183.54 67.3649 183.58L67.8949 183.88C67.9549 183.91 68.0549 183.91 68.1149 183.88L68.7349 183.52C68.7949 183.49 68.7949 183.43 68.7349 183.39ZM69.7449 182.81L69.2149 182.51C69.1549 182.47 69.0549 182.47 68.9949 182.51L68.3749 182.87C68.3149 182.91 68.3149 182.96 68.3749 183L68.9049 183.3C68.9649 183.34 69.0649 183.34 69.1249 183.3L69.7449 182.94C69.8049 182.9 69.8049 182.85 69.7449 182.81ZM71.0749 182.04L70.5449 181.74C70.4849 181.71 70.3849 181.71 70.3249 181.74L69.3749 182.29C69.3149 182.32 69.3149 182.38 69.3749 182.42L69.9049 182.72C69.9649 182.75 70.0649 182.75 70.1249 182.72L71.0749 182.17C71.1349 182.14 71.1349 182.08 71.0749 182.04ZM74.8649 183.05L74.3349 182.75C74.2749 182.71 74.1749 182.71 74.1149 182.75L73.4949 183.11C73.4349 183.14 73.4349 183.2 73.4949 183.24L74.0249 183.54C74.0849 183.58 74.1849 183.58 74.2449 183.54L74.8649 183.18C74.9249 183.14 74.9249 183.09 74.8649 183.05ZM75.8749 182.47L75.3449 182.17C75.2849 182.14 75.1849 182.14 75.1249 182.17L74.5049 182.53C74.4449 182.56 74.4449 182.62 74.5049 182.66L75.0349 182.96C75.0949 182.99 75.1949 182.99 75.2549 182.96L75.8749 182.6C75.9349 182.57 75.9349 182.51 75.8749 182.47ZM76.8849 181.89L76.3549 181.59C76.2949 181.56 76.1949 181.56 76.1349 181.59L75.5149 181.95C75.4549 181.98 75.4549 182.04 75.5149 182.08L76.0449 182.38C76.1049 182.41 76.2049 182.41 76.2649 182.38L76.8849 182.02C76.9449 181.99 76.9449 181.93 76.8849 181.89ZM75.7949 183.59L75.2649 183.29C75.2049 183.25 75.1049 183.25 75.0449 183.29L74.4249 183.65C74.3649 183.69 74.3649 183.74 74.4249 183.78L74.9549 184.08C75.0149 184.12 75.1149 184.12 75.1749 184.08L75.7949 183.72C75.8549 183.69 75.8549 183.63 75.7949 183.59ZM76.8049 183.01L76.2749 182.71C76.2149 182.68 76.1149 182.68 76.0549 182.71L75.4349 183.07C75.3749 183.1 75.3749 183.16 75.4349 183.2L75.9649 183.5C76.0249 183.53 76.1249 183.53 76.1849 183.5L76.8049 183.14C76.8649 183.1 76.8649 183.05 76.8049 183.01ZM77.8149 182.43L77.2849 182.13C77.2249 182.09 77.1249 182.09 77.0649 182.13L76.4449 182.49C76.3849 182.52 76.3849 182.58 76.4449 182.62L76.9749 182.92C77.0349 182.96 77.1349 182.96 77.1949 182.92L77.8149 182.56C77.8749 182.52 77.8749 182.47 77.8149 182.43ZM62.9549 187.82L62.4249 187.52C62.3649 187.48 62.2649 187.48 62.2049 187.52L61.2549 188.07C61.1949 188.1 61.1949 188.16 61.2549 188.2L61.7849 188.5C61.8449 188.53 61.9449 188.53 62.0049 188.5L62.9549 187.95C63.0149 187.92 63.0149 187.86 62.9549 187.82ZM63.9649 187.24L63.4349 186.94C63.3749 186.91 63.2749 186.91 63.2149 186.94L62.5949 187.3C62.5349 187.33 62.5349 187.39 62.5949 187.43L63.1249 187.73C63.1849 187.76 63.2849 187.76 63.3449 187.73L63.9649 187.37C64.0249 187.33 64.0249 187.28 63.9649 187.24ZM64.9749 186.66L64.4449 186.36C64.3849 186.32 64.2849 186.32 64.2249 186.36L63.6049 186.72C63.5449 186.76 63.5449 186.81 63.6049 186.85L64.1349 187.15C64.1949 187.19 64.2949 187.19 64.3549 187.15L64.9749 186.79C65.0349 186.76 65.0349 186.7 64.9749 186.66ZM65.9849 186.08L65.4549 185.78C65.3949 185.74 65.2949 185.74 65.2349 185.78L64.6149 186.14C64.5549 186.17 64.5549 186.23 64.6149 186.27L65.1449 186.57C65.2049 186.6 65.3049 186.6 65.3649 186.57L65.9849 186.21C66.0449 186.18 66.0449 186.12 65.9849 186.08ZM66.9949 185.5L66.4649 185.2C66.4049 185.17 66.3049 185.17 66.2449 185.2L65.6249 185.56C65.5649 185.59 65.5649 185.65 65.6249 185.69L66.1549 185.99C66.2149 186.03 66.3149 186.03 66.3749 185.99L66.9949 185.63C67.0549 185.59 67.0549 185.54 66.9949 185.5ZM68.0049 184.92L67.4749 184.62C67.4149 184.59 67.3149 184.59 67.2549 184.62L66.6349 184.98C66.5749 185.02 66.5749 185.07 66.6349 185.11L67.1649 185.41C67.2249 185.44 67.3249 185.44 67.3849 185.41L68.0049 185.05C68.0649 185.02 68.0649 184.96 68.0049 184.92ZM69.0149 184.34L68.4849 184.04C68.4249 184 68.3249 184 68.2649 184.04L67.6449 184.4C67.5849 184.43 67.5849 184.49 67.6449 184.53L68.1749 184.83C68.2349 184.86 68.3349 184.86 68.3949 184.83L69.0149 184.47C69.0749 184.44 69.0749 184.38 69.0149 184.34ZM70.0249 183.76L69.4949 183.46C69.4349 183.42 69.3349 183.42 69.2749 183.46L68.6549 183.82C68.5949 183.86 68.5949 183.91 68.6549 183.95L69.1849 184.25C69.2449 184.29 69.3449 184.29 69.4049 184.25L70.0249 183.89C70.0849 183.85 70.0849 183.8 70.0249 183.76ZM71.0349 183.18L70.5049 182.88C70.4449 182.85 70.3449 182.85 70.2849 182.88L69.6649 183.24C69.6049 183.27 69.6049 183.33 69.6649 183.37L70.1949 183.67C70.2549 183.7 70.3549 183.7 70.4149 183.67L71.0349 183.31C71.0949 183.28 71.0949 183.22 71.0349 183.18ZM72.0449 182.6L71.5149 182.3C71.4549 182.26 71.3549 182.26 71.2949 182.3L70.6749 182.66C70.6149 182.69 70.6149 182.75 70.6749 182.79L71.2049 183.09C71.2649 183.13 71.3649 183.13 71.4249 183.09L72.0449 182.73C72.1049 182.69 72.1049 182.64 72.0449 182.6ZM63.5349 188.56L63.0049 188.26C62.9449 188.23 62.8449 188.23 62.7849 188.26L62.1649 188.62C62.1049 188.65 62.1049 188.71 62.1649 188.75L62.6949 189.05C62.7549 189.08 62.8549 189.08 62.9149 189.05L63.5349 188.69C63.5949 188.66 63.5949 188.6 63.5349 188.56ZM64.5449 187.98L64.0149 187.68C63.9549 187.65 63.8549 187.65 63.7949 187.68L63.1749 188.04C63.1149 188.07 63.1149 188.13 63.1749 188.17L63.7049 188.47C63.7649 188.5 63.8649 188.5 63.9249 188.47L64.5449 188.11C64.6049 188.07 64.6049 188.02 64.5449 187.98ZM65.5549 187.4L65.0249 187.1C64.9649 187.07 64.8649 187.07 64.8049 187.1L64.1849 187.46C64.1249 187.5 64.1249 187.55 64.1849 187.59L64.7149 187.89C64.7749 187.92 64.8749 187.92 64.9349 187.89L65.5549 187.53C65.6149 187.5 65.6149 187.44 65.5549 187.4ZM66.5649 186.82L66.0349 186.52C65.9749 186.49 65.8749 186.49 65.8149 186.52L65.1949 186.88C65.1349 186.91 65.1349 186.97 65.1949 187.01L65.7249 187.31C65.7849 187.34 65.8849 187.34 65.9449 187.31L66.5649 186.95C66.6249 186.92 66.6249 186.86 66.5649 186.82ZM65.3649 189.62L64.8349 189.32C64.7749 189.28 64.6749 189.28 64.6149 189.32L63.9949 189.68C63.9349 189.71 63.9349 189.77 63.9949 189.81L64.5249 190.11C64.5849 190.14 64.6849 190.14 64.7449 190.11L65.3649 189.75C65.4249 189.72 65.4249 189.66 65.3649 189.62ZM66.3749 189.04L65.8449 188.74C65.7849 188.7 65.6849 188.7 65.6249 188.74L65.0049 189.1C64.9449 189.14 64.9449 189.19 65.0049 189.23L65.5349 189.53C65.5949 189.57 65.6949 189.57 65.7549 189.53L66.3749 189.17C66.4349 189.14 66.4349 189.08 66.3749 189.04ZM67.3849 188.46L66.8549 188.16C66.7949 188.13 66.6949 188.13 66.6349 188.16L66.0149 188.52C65.9549 188.55 65.9549 188.61 66.0149 188.65L66.5449 188.95C66.6049 188.98 66.7049 188.98 66.7649 188.95L67.3849 188.59C67.4449 188.56 67.4449 188.5 67.3849 188.46ZM68.3949 187.88L67.8649 187.58C67.8049 187.54 67.7049 187.54 67.6449 187.58L67.0249 187.94C66.9649 187.97 66.9649 188.03 67.0249 188.07L67.5549 188.37C67.6149 188.41 67.7149 188.41 67.7749 188.37L68.3949 188.01C68.4549 187.97 68.4549 187.92 68.3949 187.88ZM74.7649 184.2L74.2349 183.9C74.1749 183.87 74.0749 183.87 74.0149 183.9L73.0649 184.45C73.0049 184.48 73.0049 184.54 73.0649 184.58L73.5949 184.88C73.6549 184.91 73.7549 184.91 73.8149 184.88L74.7649 184.33C74.8249 184.3 74.8249 184.24 74.7649 184.2ZM67.5749 186.24L67.0449 185.94C66.9849 185.9 66.8849 185.9 66.8249 185.94L66.2049 186.3C66.1449 186.34 66.1449 186.39 66.2049 186.43L66.7349 186.73C66.7949 186.77 66.8949 186.77 66.9549 186.73L67.5749 186.37C67.6349 186.33 67.6349 186.28 67.5749 186.24ZM68.5849 185.66L68.0549 185.36C67.9949 185.33 67.8949 185.33 67.8349 185.36L67.2149 185.72C67.1549 185.75 67.1549 185.81 67.2149 185.85L67.7449 186.15C67.8049 186.18 67.9049 186.18 67.9649 186.15L68.5849 185.79C68.6449 185.76 68.6449 185.7 68.5849 185.66ZM69.5949 185.08L69.0649 184.78C69.0049 184.75 68.9049 184.75 68.8449 184.78L68.2249 185.14C68.1649 185.17 68.1649 185.23 68.2249 185.27L68.7549 185.57C68.8149 185.6 68.9149 185.6 68.9749 185.57L69.5949 185.21C69.6549 185.17 69.6549 185.12 69.5949 185.08ZM70.6049 184.5L70.0749 184.2C70.0149 184.17 69.9149 184.17 69.8549 184.2L69.2349 184.56C69.1749 184.6 69.1749 184.65 69.2349 184.69L69.7649 184.99C69.8249 185.02 69.9249 185.02 69.9849 184.99L70.6049 184.63C70.6649 184.6 70.6649 184.54 70.6049 184.5ZM71.6149 183.92L71.0849 183.62C71.0249 183.59 70.9249 183.59 70.8649 183.62L70.2449 183.98C70.1849 184.01 70.1849 184.07 70.2449 184.11L70.7749 184.41C70.8349 184.44 70.9349 184.44 70.9949 184.41L71.6149 184.05C71.6749 184.02 71.6749 183.96 71.6149 183.92ZM72.9449 183.15L72.4149 182.85C72.3549 182.82 72.2549 182.82 72.1949 182.85L71.2449 183.4C71.1849 183.44 71.1849 183.49 71.2449 183.53L71.7749 183.83C71.8349 183.87 71.9349 183.87 71.9949 183.83L72.9449 183.28C73.0049 183.25 73.0049 183.19 72.9449 183.15ZM64.8049 188.92L64.2749 188.62C64.2149 188.59 64.1149 188.59 64.0549 188.62L63.1049 189.17C63.0449 189.21 63.0449 189.26 63.1049 189.3L63.6349 189.6C63.6949 189.64 63.7949 189.64 63.8549 189.6L64.8049 189.05C64.8649 189.01 64.8649 188.96 64.8049 188.92ZM65.8149 188.34L65.2849 188.04C65.2249 188.01 65.1249 188.01 65.0649 188.04L64.4449 188.4C64.3849 188.44 64.3849 188.49 64.4449 188.53L64.9749 188.83C65.0349 188.86 65.1349 188.86 65.1949 188.83L65.8149 188.47C65.8749 188.44 65.8749 188.38 65.8149 188.34ZM66.8249 187.76L66.2949 187.46C66.2349 187.43 66.1349 187.43 66.0749 187.46L65.4549 187.82C65.3949 187.85 65.3949 187.91 65.4549 187.95L65.9849 188.25C66.0449 188.28 66.1449 188.28 66.2049 188.25L66.8249 187.89C66.8849 187.86 66.8849 187.8 66.8249 187.76ZM67.8349 187.18L67.3049 186.88C67.2449 186.84 67.1449 186.84 67.0849 186.88L66.4649 187.24C66.4049 187.28 66.4049 187.33 66.4649 187.37L66.9949 187.67C67.0549 187.71 67.1549 187.71 67.2149 187.67L67.8349 187.31C67.8949 187.27 67.8949 187.22 67.8349 187.18ZM68.8449 186.6L68.3149 186.3C68.2549 186.27 68.1549 186.27 68.0949 186.3L67.4749 186.66C67.4149 186.69 67.4149 186.75 67.4749 186.79L68.0049 187.09C68.0649 187.12 68.1649 187.12 68.2249 187.09L68.8449 186.73C68.9049 186.7 68.9049 186.64 68.8449 186.6ZM69.8549 186.02L69.3249 185.72C69.2649 185.69 69.1649 185.69 69.1049 185.72L68.4849 186.08C68.4249 186.11 68.4249 186.17 68.4849 186.21L69.0149 186.51C69.0749 186.54 69.1749 186.54 69.2349 186.51L69.8549 186.15C69.9149 186.11 69.9149 186.06 69.8549 186.02ZM70.8649 185.44L70.3349 185.14C70.2749 185.11 70.1749 185.11 70.1149 185.14L69.4949 185.5C69.4349 185.54 69.4349 185.59 69.4949 185.63L70.0249 185.93C70.0849 185.97 70.1849 185.97 70.2449 185.93L70.8649 185.57C70.9249 185.54 70.9249 185.48 70.8649 185.44ZM71.8749 184.86L71.3449 184.56C71.2849 184.53 71.1849 184.53 71.1249 184.56L70.5049 184.92C70.4449 184.95 70.4449 185.01 70.5049 185.05L71.0349 185.35C71.0949 185.38 71.1949 185.38 71.2549 185.35L71.8749 184.99C71.9349 184.96 71.9349 184.9 71.8749 184.86ZM72.8849 184.28L72.3549 183.98C72.2949 183.94 72.1949 183.94 72.1349 183.98L71.5149 184.34C71.4549 184.38 71.4549 184.43 71.5149 184.47L72.0449 184.77C72.1049 184.81 72.2049 184.81 72.2649 184.77L72.8849 184.41C72.9449 184.37 72.9449 184.32 72.8849 184.28ZM73.8949 183.7L73.3649 183.4C73.3049 183.37 73.2049 183.37 73.1449 183.4L72.5249 183.76C72.4649 183.79 72.4649 183.85 72.5249 183.89L73.0549 184.19C73.1149 184.23 73.2149 184.23 73.2749 184.19L73.8949 183.83C73.9549 183.8 73.9549 183.74 73.8949 183.7ZM72.1549 181.53L71.6249 181.23C71.5649 181.19 71.4649 181.19 71.4049 181.23L70.7849 181.59C70.7249 181.62 70.7249 181.68 70.7849 181.72L71.3149 182.02C71.3749 182.06 71.4749 182.06 71.5349 182.02L72.1549 181.66C72.2149 181.62 72.2149 181.57 72.1549 181.53ZM73.1649 180.95L72.6349 180.65C72.5749 180.62 72.4749 180.62 72.4149 180.65L71.7949 181.01C71.7349 181.04 71.7349 181.1 71.7949 181.14L72.3249 181.44C72.3849 181.47 72.4849 181.47 72.5449 181.44L73.1649 181.08C73.2249 181.05 73.2249 180.99 73.1649 180.95ZM74.1749 180.37L73.6449 180.07C73.5849 180.04 73.4849 180.04 73.4249 180.07L72.8049 180.43C72.7449 180.47 72.7449 180.52 72.8049 180.56L73.3349 180.86C73.3949 180.89 73.4949 180.89 73.5549 180.86L74.1749 180.5C74.2349 180.47 74.2349 180.41 74.1749 180.37ZM75.0949 180.9L74.5649 180.6C74.5049 180.56 74.4049 180.56 74.3449 180.6L73.7249 180.96C73.6649 180.99 73.6649 181.05 73.7249 181.09L74.2549 181.39C74.3149 181.43 74.4149 181.43 74.4749 181.39L75.0949 181.03C75.1549 180.99 75.1549 180.94 75.0949 180.9Z" fill="white"/>
<path d="M57.7249 187.34L58.1449 187.58C58.1449 187.58 58.2349 187.59 58.2349 187.54C58.2349 187.49 58.1949 187.43 58.1449 187.4L57.7249 187.16C57.7249 187.16 57.6349 187.15 57.6349 187.2C57.6349 187.25 57.6749 187.31 57.7249 187.34Z" fill="#BDB7B5"/>
<path d="M58.5049 187.79L58.9249 188.03C58.9249 188.03 59.0149 188.04 59.0149 187.99C59.0149 187.94 58.9749 187.88 58.9249 187.85L58.5049 187.61C58.5049 187.61 58.4149 187.6 58.4149 187.65C58.4149 187.7 58.4549 187.76 58.5049 187.79Z" fill="#BDB7B5"/>
<path d="M60.8249 189.09L59.6049 188.39V188.28L60.8249 188.98V189.09Z" fill="#BDB7B5"/>
<path d="M65.3849 191.53L68.7749 182.02L68.6749 181.92L65.2849 191.43C65.2449 191.55 65.2449 191.63 65.2849 191.67L65.3849 191.77C65.3849 191.77 65.3349 191.65 65.3849 191.53Z" fill="#E6E1E0"/>
<path d="M83.5549 173.09C83.4949 173.03 83.3649 173.05 83.1849 173.15L69.4149 181.1C69.1149 181.28 68.7749 181.64 68.6749 181.92L68.7749 182.02C68.8749 181.74 69.2049 181.37 69.5149 181.2L83.2849 173.25C83.4649 173.15 83.5949 173.13 83.6549 173.19L83.5549 173.09Z" fill="url(#paint7_linear_463_284)"/>
<path d="M83.2849 173.25L69.5149 181.2C69.2149 181.38 68.8749 181.74 68.7749 182.02L65.3849 191.53C65.2849 191.81 65.4549 191.88 65.7649 191.71L79.5349 183.76C79.8349 183.58 80.1749 183.22 80.2749 182.94L83.6649 173.43C83.7649 173.15 83.5949 173.08 83.2849 173.25Z" fill="#D9D5D4"/>
<path d="M76.0049 182.04C76.0049 182.51 75.5049 183.22 74.8749 183.61C74.2549 184.01 73.7449 183.95 73.7449 183.48C73.7449 183.01 74.2449 182.3 74.8749 181.91C75.4949 181.51 76.0049 181.57 76.0049 182.04Z" fill="#C8C3C2"/>
<path d="M45.7049 164.48C45.7649 167.74 46.7049 173.97 46.9449 174.36C48.0449 176.12 57.7649 180.49 57.8949 180.54C59.0549 181.06 60.5049 178.56 59.7149 177.98C57.0049 176.06 51.1149 171.57 51.1149 171.57C50.9549 168.24 51.0549 166.18 51.0549 162.84C51.0549 160.23 50.2049 157.8 47.6549 157.6C45.5749 157.43 45.6649 161.97 45.7149 164.47L45.7049 164.48Z" fill="white"/>
<path d="M64.635 178.4C64.555 178.3 63.485 177.77 63.135 177.71C62.845 177.66 60.5849 178.29 59.595 178.17C58.805 178.05 57.3849 180.07 58.3049 180.41C58.7849 180.58 59.0449 180.92 59.2849 181.05C59.5949 181.22 59.9649 181.23 60.3249 181.21C60.7449 181.19 61.175 181.15 61.595 181.08C61.935 181.02 62.1749 181.01 62.3949 181.26C62.5249 181.4 62.785 182 62.935 182.11C63.405 182.45 65.2849 181.22 65.4349 180.84C65.6249 180.37 64.895 178.72 64.635 178.39V178.4Z" fill="#FABC9D"/>
<path d="M70.8149 176.13C70.5249 175.7 69.0749 174.78 68.4549 174.24C67.8249 173.43 65.8049 174.54 65.9649 175.33C66.0249 175.62 66.5349 176 66.6449 176.46C66.7149 176.76 66.7349 177.28 66.6749 177.58C66.6049 177.95 66.4349 178.41 66.6949 178.42C66.9649 178.43 67.1349 178.35 67.2949 178.16C67.5449 177.84 67.5449 177.43 67.7649 177.1C67.7949 177.05 68.3349 177.92 68.3649 178.01C68.5349 178.57 68.5949 179.82 68.9449 180.02C69.2949 180.22 69.3249 179.97 69.7749 180C70.0149 180.02 69.9949 179.84 70.1449 179.77C70.2249 179.73 70.3049 179.78 70.3949 179.77C70.8349 179.71 70.6749 179.38 70.8949 179.29C71.0549 179.23 71.1749 179.07 71.1849 178.9C71.2149 178.02 71.0249 176.45 70.8149 176.14V176.13Z" fill="#FBBD9E"/>
<path d="M121.455 229C111.205 229 102.895 232.61 102.895 237.07C102.895 241.53 111.205 245.14 121.455 245.14C122.435 245.14 123.395 245.1 124.335 245.04C124.855 243.23 123.825 237.07 124.345 237.07L141.165 236.26C143.815 236.36 136.985 230.62 136.985 230.62C136.985 230.62 131.695 229.01 121.445 229.01L121.455 229Z" fill="#2F6B8E"/>
<path d="M144.605 235.52C144.575 235.32 144.625 234.77 144.365 234.54C143.715 233.97 142.485 233 141.235 232.33L133.885 231.15C133.855 231.46 133.855 231.8 133.885 232.12C133.925 232.77 133.985 233.04 134.735 233.5C138.545 235.83 139.075 236.14 139.765 236.49C140.545 236.88 141.505 237.37 143.555 236.78C144.595 236.32 144.665 235.89 144.615 235.51L144.605 235.52Z" fill="#393938"/>
<path d="M144.155 234.19C143.215 233.43 140.925 231.9 139.785 230.88C139.475 230.6 138.735 229.84 138.555 229.44C138.115 228.42 135.775 228.43 134.475 229.1C133.865 229.42 133.755 230.47 133.815 231.44C133.855 232.09 133.915 232.36 134.665 232.83C138.475 235.16 139.315 235.58 140.025 235.89C140.705 236.19 141.425 236.46 142.915 236.14C143.425 236.03 143.905 235.79 144.255 235.4C144.565 235.06 144.715 234.64 144.145 234.18L144.155 234.19Z" fill="#393938"/>
<path d="M120.545 242.4C120.375 244 120.335 245.64 120.915 246.16C122.145 247.27 125.195 247.79 126.055 246.09C126.255 245.69 126.105 244.08 125.895 242.4H120.545Z" fill="#393938"/>
<path d="M120.905 245.24C122.135 246.35 125.185 246.87 126.045 245.17C126.445 244.38 125.575 238.97 125.545 237.42C125.545 236.98 125.525 236.19 125.525 236.19C125.415 236.04 124.835 235.9 124.665 235.81C123.935 235.44 122.585 235.74 121.765 235.69C121.345 235.66 120.955 238.44 120.915 238.72C120.685 240.41 119.955 244.37 120.915 245.24H120.905Z" fill="#393938"/>
<path d="M149.045 199.37C149.045 199.37 148.175 198.58 147.765 197.8C147.355 197.02 151.025 197.8 150.735 196.7C150.495 195.8 147.245 196.4 146.345 195.83C145.955 195.58 142.195 185.64 142.125 185.36C141.715 183.76 140.215 179.19 140.215 179.19C138.675 180.31 137.125 181.36 135.365 181.9C136.355 184.39 137.335 186.69 137.865 187.9C138.155 188.56 143.215 196.62 143.415 197.38C143.555 197.9 143.945 199.23 144.125 199.74C144.435 200.6 145.675 201.44 146.595 201.63C147.375 201.79 149.045 199.37 149.045 199.37Z" fill="#FBBD9E"/>
<path d="M134.885 184.13C135.505 185.92 142.225 183.91 141.845 182.44C141.415 181.02 137.515 167.95 134.885 168.67C134.885 168.67 129.555 169.18 134.885 184.13Z" fill="white"/>
<path d="M139.415 211.44C139.705 208.18 139.725 203.25 138.285 194.22C138.115 193.17 137.155 192.47 136.115 192.71L124.935 195.36C120.295 202.54 122.405 206.09 121.925 217.44C121.875 218.68 121.535 219.9 121.165 221.09C120.465 223.35 119.965 223.85 120.485 228.47C120.835 231.55 120.655 233.58 121.005 236.67C121.005 238.4 125.755 238.76 125.645 237.1C126.245 233.14 127.095 224.8 127.375 223.92C127.465 223.63 127.575 223.34 127.675 223.05C128.165 221.75 128.605 220.45 128.895 219.09C129.535 216.11 130.615 211.01 131.015 208.87C131.015 208.87 132.585 214.83 132.955 217.13C133.325 219.43 132.895 222.1 133.265 224.06C133.645 226.03 133.755 229 133.755 229C133.725 231.03 138.915 231.16 138.995 229.36C138.995 229.36 139.735 223.79 139.405 219.71C139.185 216.96 139.175 214.2 139.415 211.45V211.44Z" fill="#393938"/>
<path d="M135.685 171.28C132.575 170.53 124.555 174.62 123.815 175.03C120.635 176.84 123.275 179.39 124.385 186.78C124.795 189.53 124.005 194.69 123.125 198.31C121.795 203.78 139.535 203.19 139.005 198.13C138.755 196.3 138.245 190.89 138.375 186.13C138.555 179.62 138.705 172.01 135.695 171.28H135.685Z" fill="white"/>
<path d="M127.265 174.81C127.815 176.45 130.465 179.99 133.545 179.02C136.185 178.19 135.505 174.35 134.495 172.53C133.475 170.71 126.605 172.83 127.265 174.8V174.81Z" fill="#FCBE9F"/>
<path d="M135.015 177.23C134.735 177.73 134.235 178.07 133.675 178.21C132.615 178.47 131.505 178.38 130.605 177.83C129.435 177.12 128.425 175.8 128.455 174.03C128.455 173.62 128.615 173.22 128.895 172.91C129.545 172.21 130.265 171.05 130.705 168.89C130.855 168.16 131.715 167.79 132.295 168.25C134.295 169.82 135.855 172.88 135.835 174.2C135.835 174.74 135.575 176.23 135.025 177.22L135.015 177.23Z" fill="#F2A883"/>
<path d="M153.185 198.65L153.015 198.16L143.055 199.98L143.225 200.47C143.245 200.53 143.315 200.57 143.435 200.58L149.495 201.2C149.765 201.23 150.185 201.1 150.435 200.91L153.015 198.93C153.155 198.82 153.215 198.72 153.185 198.65Z" fill="#ECE7DE"/>
<path d="M152.845 198.44L150.265 200.42C150.015 200.61 149.595 200.74 149.325 200.71L143.265 200.09C142.995 200.06 142.975 199.89 143.225 199.7L145.805 197.72C146.055 197.53 146.475 197.4 146.745 197.42L152.805 198.04C153.075 198.07 153.095 198.24 152.845 198.44Z" fill="#403642"/>
<path d="M146.615 200.9C146.195 200.85 145.825 200.63 145.585 200.28C145.445 200.08 145.305 199.86 145.195 199.69C145.495 199.82 146.065 199.83 146.405 199.82C146.845 199.8 147.685 199.24 146.995 198.98C146.355 198.74 144.915 198.33 143.975 197.88C143.775 197.79 143.375 197.63 143.155 197.58C142.935 197.53 142.695 197.52 142.435 197.57C141.975 197.65 141.595 197.74 141.205 197.71C138.285 196.28 132.155 192.38 130.615 191.46C130.375 191.31 130.205 191.08 130.155 190.8C129.885 189.29 129.705 187.69 129.475 186.11L123.185 188.21C124.175 190.7 125.155 193 125.685 194.21C125.975 194.87 126.445 195.43 127.075 195.79C129.605 197.26 136.435 199.14 139.635 200.25C140.765 200.72 142.475 202.74 143.415 202.74C144.665 202.74 147.815 202.26 148.685 201.12L146.625 200.91L146.615 200.9Z" fill="#FBBD9E"/>
<path d="M123.115 189.38C123.685 191.63 130.145 190.01 130.035 187.8C129.935 185.95 128.065 174.43 123.915 175.17C123.915 175.17 119.425 175.19 123.115 189.38Z" fill="white"/>
<path d="M138.435 165.51C137.475 163.87 136.165 163.12 134.275 163.03C133.765 163.01 132.925 163.45 132.445 163.63C130.655 164.28 130.315 167.25 130.245 168.93C130.155 171.05 130.245 173.36 131.625 175.02C133.635 177.42 135.715 178.59 136.845 177.99C137.225 177.79 137.755 176.17 137.925 176.09C137.985 176.06 138.495 175.88 138.495 175.57C138.495 175.3 138.365 174.02 138.385 173.81C138.445 173.34 138.825 173 139.075 172.6C139.665 171.65 139.605 170.16 139.515 169.09C139.415 167.84 139.075 166.6 138.435 165.51Z" fill="#FBBD9E"/>
<path d="M139.015 164.06C137.115 161.96 132.345 161.37 130.665 164.01C127.955 164.78 127.665 169.92 130.495 173.47C130.195 172.53 130.995 171.58 131.275 171.78C132.345 172.58 132.075 173.91 132.665 174.11C133.035 174.24 133.185 173.71 133.465 173.03C133.725 172.41 134.285 171.97 134.945 171.85C136.405 171.59 139.125 171.03 139.565 170.4C140.165 169.57 141.325 166.62 139.005 164.05L139.015 164.06Z" fill="#393938"/>
<path d="M131.275 171.78C130.475 170.87 129.055 172.04 131.315 174.58C131.545 174.84 131.845 175.1 132.135 174.91C132.785 174.52 131.735 172.31 131.265 171.77L131.275 171.78Z" fill="#FBBD9E"/>
<path d="M229.585 218.19C226.565 217.47 223.785 217.58 220.545 217.47C215.435 217.3 210.225 217.35 203.735 220.25C199.925 221.95 197.485 226.8 202.095 230.48C204.575 232.46 211.505 232.28 211.505 232.28C211.785 231.01 212.745 228.44 213.255 227.24C213.395 226.92 213.545 226.59 213.815 226.36C214.055 226.16 214.355 226.06 214.655 225.96C216.345 225.41 218.035 224.86 219.745 224.34C222.775 223.42 226.115 222.62 229.035 223.86C229.525 224.07 229.985 224.33 230.485 224.5C231.135 224.73 231.825 224.81 232.515 224.83C233.715 224.86 235.065 224.86 235.065 224.86C235.065 224.86 232.605 218.91 229.585 218.18V218.19Z" fill="#2F6B8E"/>
<path d="M237.605 222.19C236.895 221.57 235.565 220.52 234.215 219.8C233.395 219.89 232.545 219.91 231.675 219.86C229.885 219.77 227.795 219.54 226.255 218.52C226.225 218.86 226.225 219.22 226.255 219.57C226.305 220.28 226.355 220.57 227.185 221.07C231.315 223.6 231.885 223.93 232.625 224.3C233.475 224.72 234.505 225.25 236.735 224.62C237.865 224.12 237.935 223.65 237.885 223.24C237.855 223.02 237.905 222.43 237.625 222.18L237.605 222.19Z" fill="#393938"/>
<path d="M237.385 221.81C236.375 220.99 233.885 219.33 232.655 218.23C232.315 217.93 232.125 217.34 231.935 216.91C231.455 215.81 228.325 215.57 226.905 216.31C226.245 216.66 226.125 217.79 226.195 218.85C226.245 219.56 226.295 219.85 227.125 220.35C231.255 222.88 232.165 223.33 232.925 223.66C233.665 223.98 234.435 224.28 236.055 223.93C236.605 223.81 237.125 223.55 237.505 223.13C237.835 222.76 238.005 222.31 237.385 221.81Z" fill="#F8F3ED"/>
<path d="M208.835 231.46C210.205 232.53 213.425 232.86 214.195 231.02C214.555 230.16 213.135 224.57 212.995 222.95C212.955 222.49 212.885 221.67 212.885 221.67C212.755 221.52 212.265 221.42 212.085 221.35C211.295 221.02 209.905 221.43 209.045 221.43C208.605 221.43 208.395 224.37 208.375 224.66C208.255 226.44 207.775 230.64 208.835 231.47V231.46Z" fill="#393938"/>
<path d="M208.755 230.49C210.125 231.56 213.345 231.89 214.115 230.05C214.475 229.19 213.185 223.6 213.035 221.98C212.995 221.52 212.925 220.7 212.925 220.7C212.795 220.55 212.185 220.45 211.995 220.37C211.205 220.04 209.815 220.45 208.955 220.45C208.515 220.45 208.305 223.39 208.285 223.68C208.165 225.46 207.685 229.66 208.745 230.49H208.755Z" fill="#F8F3ED"/>
<path d="M231.215 203.61C231.015 202.46 230.815 201.32 230.735 200.15C230.505 196.56 231.585 194 229.505 182.02C228.775 179.04 213.925 180.47 213.495 184.32C212.595 189.16 211.785 194.36 211.785 199.28C211.785 200.55 211.845 201.84 211.545 203.07C211.315 203.99 210.895 204.86 210.515 205.73C209.165 208.83 208.865 210.97 208.545 214.33C208.385 215.99 208.225 218.94 208.285 220.61C208.265 222.26 212.815 222.73 213.295 221.11C215.055 212.31 217.655 209.82 219.325 201.52C219.685 199.72 221.645 191.92 221.645 191.92C222.215 195.12 224.005 202.32 224.145 204.02C224.285 205.73 224.275 206.75 224.615 208.43C225.085 210.72 225.925 212.2 226.505 216.92C226.585 218.31 231.835 218.43 231.695 216.59C231.075 208.56 231.595 205.83 231.205 203.59L231.215 203.61Z" fill="#393938"/>
<path d="M239.545 163.16C238.045 161.83 235.195 159.71 232.165 157.81C231.505 159.82 230.915 161.56 230.305 163.59L236.655 166.34L237.235 170.85C237.235 170.85 238.525 172.61 239.375 172.2C239.885 171.96 240.255 170.39 240.485 168.22C240.585 167.28 240.655 166.47 240.655 165.63C240.655 164.68 240.245 163.78 239.535 163.15L239.545 163.16Z" fill="#FBBD9E"/>
<path d="M234.975 159.26C231.515 156.69 227.315 154.37 224.355 154.79C223.715 157.66 223.725 160.63 226.365 162.7L231.415 165.05C233.195 166 235.915 159.95 234.975 159.26Z" fill="white"/>
<path d="M212.985 158.75C212.185 159.2 211.425 159.78 210.895 160.53C209.965 161.84 209.935 163.6 210.355 165.15C211.175 168.15 214.915 170.24 214.585 176.48C214.395 180.03 214.075 180.94 213.525 184.13C212.805 188.28 230.085 187.55 229.475 181.76C229.475 181.76 228.485 177.01 228.715 172.08C228.875 168.57 229.825 162.82 230.065 160.13C230.155 159.1 229.875 157.9 229.365 157C226.415 151.81 216.475 156.78 212.975 158.75H212.985Z" fill="white"/>
<path d="M210.695 187.87C210.475 187.61 210.195 187.38 210.005 187.09C209.915 186.96 209.865 186.8 209.825 186.65C209.955 183.6 210.685 175.93 210.685 175.93C210.685 175.93 212.515 171.74 213.805 168.3C212.035 168.3 209.765 167.92 208.005 167.96C207.205 171.06 206.605 174.77 206.605 175.41C206.605 176.64 206.575 185.12 206.675 186.65C206.705 187.46 206.435 188.25 206.245 189.04C206.195 189.25 206.145 189.47 206.175 189.68C206.225 190.11 206.535 190.46 206.875 190.72C207.535 191.22 208.345 191.47 209.125 191.72C209.295 191.77 209.465 191.82 209.645 191.8C209.955 191.76 210.185 191.48 210.335 191.21C210.495 190.94 210.615 190.63 210.855 190.43C210.945 190.36 211.045 190.3 211.125 190.22C211.335 190.01 211.365 189.69 211.335 189.39C211.285 188.83 211.055 188.29 210.695 187.87Z" fill="#FBBD9E"/>
<path d="M237.095 169.79C236.665 169.63 236.145 169.37 235.685 169.47C235.475 169.52 235.295 169.63 235.095 169.69C234.835 169.77 234.555 169.74 234.285 169.79C233.075 170 233.055 171.11 232.915 172.09C232.865 172.39 232.835 172.73 233.015 172.98C233.105 173.1 233.235 173.19 233.295 173.33C233.335 173.42 233.335 173.51 233.355 173.6C233.435 174 233.855 174.25 234.265 174.32C235.675 174.54 238.195 173.19 238.915 172.75C239.495 172.4 239.965 171.79 239.965 171.17C239.965 170.45 239.715 169.41 237.915 169.44C237.455 169.44 237.105 169.78 237.105 169.78L237.095 169.79Z" fill="#FBBD9E"/>
<path d="M237.185 172.89C236.685 172.21 237.035 171.93 235.815 172.14C234.915 172.29 234.025 172.44 233.135 172.67C233.045 172.69 232.975 172.69 232.895 172.68C232.915 172.79 232.945 172.9 233.015 172.99C233.105 173.11 233.235 173.2 233.295 173.34C233.335 173.43 233.335 173.52 233.355 173.61C233.435 174.01 233.855 174.26 234.265 174.33C235.235 174.48 236.725 173.89 237.805 173.36C237.565 173.26 237.355 173.12 237.195 172.89H237.185Z" fill="#F2A883"/>
<path d="M238.935 170.22C239.445 170.59 239.805 170.98 239.505 172.25C239.795 172.12 240.015 171.64 240.015 171.06C240.015 170.58 239.915 170.26 239.365 169.81C238.925 169.45 238.335 169.33 237.655 169.43C237.455 169.46 237.095 169.78 237.095 169.78C237.525 169.78 238.245 169.7 238.935 170.21V170.22Z" fill="#2F2B30"/>
<path d="M225.365 156.82C226.065 159.71 224.525 162.59 221.915 163.27C219.305 163.95 216.615 162.15 215.915 159.27C215.215 156.38 224.665 153.94 225.375 156.82H225.365Z" fill="#FBBD9E"/>
<path d="M223.305 161.21C222.755 161.94 222.545 162.22 222.075 162.31C220.635 162.59 217.795 159.95 218.205 157.13C218.235 156.94 218.325 156.77 218.465 156.64C219.115 156.04 219.885 155.02 220.415 152.9C220.575 152.24 221.365 151.99 221.875 152.43C223.615 153.93 224.905 156.75 224.845 157.95C224.805 158.62 223.725 160.66 223.305 161.21Z" fill="#F2A883"/>
<path d="M227.885 152.06C227.935 151.32 227.875 150.51 227.265 150.07C226.325 149.39 224.145 148.15 220.185 150.09C219.615 150.37 219.235 150.93 218.835 151.42C218.375 151.99 218.355 152.33 218.395 153C218.475 154.26 218.255 154.79 219.955 156.91C221.385 158.7 223.465 160.16 223.935 160.43C224.535 160.78 225.155 160.88 225.765 160.74C226.335 160.61 226.945 160.07 227.155 158.73C227.315 157.7 227.705 154.78 227.885 152.05V152.06Z" fill="#FBBD9E"/>
<path d="M220.875 154.05C221.055 154.43 221.825 154.6 222.075 153.74C222.375 152.69 223.395 152.5 224.155 152.5C225.395 152.5 226.505 152.32 227.425 151.85C227.615 151.75 227.765 151.64 227.905 151.48C227.905 151.48 228.365 151.02 228.025 149.83C227.845 149.2 227.015 146.75 224.465 146.01C223.255 145.66 221.945 145.68 220.735 146.03C216.115 147.34 217.305 153.12 217.865 154.2C218.265 154.97 219.065 156.04 219.565 156.45C219.335 155.59 218.375 153.82 219.305 153.27C219.655 153.06 220.075 153.08 220.395 153.33C220.645 153.53 220.745 153.77 220.875 154.05Z" fill="#393938"/>
<path d="M239.445 169.33L237.025 169.67L237.075 169.96C237.075 169.96 237.135 170.04 237.215 170.06L238.385 170.32C238.535 170.35 238.735 170.32 238.845 170.22L239.445 169.73C239.445 169.73 239.515 169.65 239.505 169.61L239.455 169.32L239.445 169.33Z" fill="url(#paint8_linear_463_284)"/>
<path d="M239.305 169.23C239.455 169.26 239.485 169.36 239.385 169.45L238.785 169.94C238.675 170.03 238.475 170.07 238.325 170.04L237.155 169.78C237.005 169.75 236.975 169.65 237.075 169.56L237.675 169.07C237.785 168.98 237.985 168.94 238.135 168.97L239.305 169.23Z" fill="#2F2B30"/>
<path d="M238.555 170.79C237.805 170.13 237.095 169.78 237.095 169.78C237.075 169.78 237.045 169.76 237.025 169.75C236.835 169.68 236.115 171.68 236.115 171.68C236.115 171.68 239.315 171.45 238.565 170.79H238.555Z" fill="#FBBD9E"/>
<path d="M213.175 172.3C215.555 165.98 217.295 161.89 214.155 159.75C210.585 157.31 207.935 165.55 206.605 169.67C205.965 172.03 212.185 174.25 213.175 172.3Z" fill="white"/>
</g>
<defs>
<linearGradient id="paint0_linear_463_284" x1="261.695" y1="145.21" x2="285.195" y2="145.21" gradientUnits="userSpaceOnUse">
<stop stop-color="#EBE6E2"/>
<stop offset="1" stop-color="#FCF7F1"/>
</linearGradient>
<linearGradient id="paint1_linear_463_284" x1="274.845" y1="139.09" x2="289.005" y2="139.09" gradientUnits="userSpaceOnUse">
<stop stop-color="#EBE6E2"/>
<stop offset="1" stop-color="#FCF7F1"/>
</linearGradient>
<linearGradient id="paint2_linear_463_284" x1="102.515" y1="163.14" x2="219.525" y2="163.14" gradientUnits="userSpaceOnUse">
<stop stop-color="#CEC9C1"/>
<stop offset="0.28" stop-color="#D7D2CA"/>
<stop offset="1" stop-color="#ECE7DE"/>
</linearGradient>
<linearGradient id="paint3_linear_463_284" x1="0.80494" y1="130.33" x2="1.80494" y2="130.33" gradientUnits="userSpaceOnUse">
<stop stop-color="#CEC9C1"/>
<stop offset="0.28" stop-color="#D7D2CA"/>
<stop offset="1" stop-color="#ECE7DE"/>
</linearGradient>
<linearGradient id="paint4_linear_463_284" x1="0.80494" y1="96.23" x2="1.80494" y2="96.23" gradientUnits="userSpaceOnUse">
<stop stop-color="#CEC9C1"/>
<stop offset="0.28" stop-color="#D7D2CA"/>
<stop offset="1" stop-color="#ECE7DE"/>
</linearGradient>
<linearGradient id="paint5_linear_463_284" x1="0.80494" y1="60.83" x2="1.80494" y2="60.83" gradientUnits="userSpaceOnUse">
<stop stop-color="#CEC9C1"/>
<stop offset="0.28" stop-color="#D7D2CA"/>
<stop offset="1" stop-color="#ECE7DE"/>
</linearGradient>
<linearGradient id="paint6_linear_463_284" x1="54.7648" y1="184.02" x2="79.6248" y2="184.02" gradientUnits="userSpaceOnUse">
<stop stop-color="#EBE6E2"/>
<stop offset="1" stop-color="#FCF7F1"/>
</linearGradient>
<linearGradient id="paint7_linear_463_284" x1="68.6749" y1="177.54" x2="83.6549" y2="177.54" gradientUnits="userSpaceOnUse">
<stop stop-color="#EBE6E2"/>
<stop offset="1" stop-color="#FCF7F1"/>
</linearGradient>
<linearGradient id="paint8_linear_463_284" x1="237.025" y1="169.84" x2="239.495" y2="169.84" gradientUnits="userSpaceOnUse">
<stop stop-color="#D9D6D0"/>
<stop offset="1" stop-color="#EEEBE5"/>
</linearGradient>
<clipPath id="clip0_463_284">
<rect width="300.39" height="247.19" fill="white" transform="translate(0.804932)"/>
</clipPath>
</defs>
</svg>
