<svg width="752" height="573" viewBox="0 0 752 573" fill="none" xmlns="http://www.w3.org/2000/svg">
<g opacity="0.6">
<path d="M282.072 379.601L281.419 379.223L175.707 318.121C175.707 318.121 175.707 318.121 175.706 318.121L175.705 318.12L176.706 316.388C175.119 315.473 174.223 314.334 174.223 313.232C174.223 312.148 175.119 311.009 176.669 310.112L282.072 379.601ZM282.072 379.601C280.091 380.814 278.367 382.677 278.367 385.001C278.367 387.426 280.229 389.352 282.334 390.563M282.072 379.601L282.334 390.563M560.743 429.363C563.414 430.901 566.855 431.605 570.167 431.605C573.479 431.605 576.917 430.901 579.581 429.361L579.591 429.355C581.653 428.146 583.491 426.238 583.491 423.838C583.491 421.494 581.75 419.615 579.732 418.399L580.384 418.022L644.693 380.792L644.701 380.787L644.709 380.783C646.442 379.759 648.118 378.116 648.118 375.941C648.118 373.765 646.422 372.083 644.636 371.053C644.636 371.052 644.635 371.052 644.635 371.052L363.616 208.702L363.613 208.701C361.252 207.341 358.232 206.725 355.34 206.725C352.449 206.725 349.434 207.34 347.087 208.705L347.087 208.705L175.667 308.381C175.666 308.381 175.666 308.382 175.665 308.382L561.741 427.63M560.743 429.363L561.741 427.63M560.743 429.363C560.744 429.363 560.744 429.364 560.745 429.364L561.741 427.63M560.743 429.363C560.681 429.327 560.618 429.29 560.556 429.253M561.741 427.63C559.856 426.546 558.773 425.145 558.773 423.8C558.773 422.474 559.837 421.092 561.685 420.008C563.963 418.682 567.024 418.028 570.086 418.028C573.147 418.028 576.227 418.682 578.523 420.008M560.556 429.253L558.864 427.6C557.594 426.36 557.04 425.076 557.04 423.8C557.04 421.989 558.14 420.073 560.809 418.514C560.811 418.513 560.812 418.512 560.814 418.511C560.817 418.51 560.82 418.508 560.823 418.506C563.377 417.021 566.725 416.282 570.086 416.293C573.064 416.303 576.053 416.901 578.51 418.091L579.382 418.513L578.523 420.008M560.556 429.253C559.874 428.844 559.224 428.36 558.66 427.809C557.547 426.718 556.773 425.363 556.773 423.8C556.773 421.4 558.612 419.492 560.674 418.283L560.679 418.28C560.682 418.278 560.685 418.276 560.689 418.274L559.818 416.777M560.556 429.253L560.742 429.435L558.475 430.758L473.276 480.485L473.27 480.489C470.915 481.851 467.898 482.467 465.004 482.467C462.11 482.467 459.09 481.851 456.728 480.491L456.726 480.49L303.447 391.964L301.177 390.652L301.415 390.417M578.523 420.008L579.386 418.515L578.579 427.63C580.427 426.546 581.491 425.164 581.491 423.838C581.491 422.493 580.409 421.092 578.523 420.008ZM559.818 416.777L560.69 418.273C563.355 416.725 566.787 416.028 570.086 416.028C573.039 416.028 576.111 416.586 578.645 417.812C578.946 417.957 579.239 418.112 579.524 418.276L643.635 372.784C645.222 373.7 646.118 374.858 646.118 375.941C646.118 377.025 645.241 378.146 643.691 379.061L579.382 416.291C573.595 413.489 565.251 413.62 559.818 416.777ZM559.818 416.777C556.738 418.57 555.04 421.054 555.04 423.8C555.04 425.102 555.432 426.335 556.172 427.471L301.965 377.977L301.104 379.47C301.108 379.472 301.113 379.475 301.117 379.477C303.222 380.688 305.085 382.614 305.085 385.039C305.085 385.044 305.085 385.05 305.085 385.055C305.079 386.592 304.321 387.926 303.234 389.004C302.691 389.541 302.068 390.014 301.415 390.417M301.415 390.417L303.042 388.809C304.271 387.594 304.812 386.315 304.8 385.058L304.8 385.048V385.039C304.8 383.234 303.689 381.299 300.978 379.717L282.338 390.565C282.337 390.564 282.336 390.563 282.334 390.563M301.415 390.417C301.338 390.465 301.262 390.511 301.184 390.556L301.174 390.562C298.512 392.101 295.076 392.811 291.762 392.813C288.45 392.816 285.008 392.112 282.334 390.563M300.975 379.716L300.117 381.209C297.821 379.883 294.741 379.229 291.679 379.229C288.618 379.229 285.556 379.883 283.279 381.209L300.975 379.716Z" stroke="white" stroke-width="4" stroke-linecap="round"/>
</g>
<path opacity="0.6" d="M725.436 271.051L725.922 97.7541C725.922 92.8598 723.327 88.3392 719.089 85.8921L584.889 8.4435C581.118 6.27658 576.433 8.98523 576.414 13.3191L576.302 54.285L579.345 56.0409L579.457 13.3191C579.457 11.3203 581.641 10.0687 583.377 11.0587L718.809 89.1985C721.348 90.6556 722.897 93.3642 722.897 96.297L722.412 269.688C719.799 268.866 717.335 269.034 715.3 270.211C712.5 271.817 710.95 275.068 710.932 279.345C710.913 287.509 716.438 297.092 723.513 301.183C725.66 302.434 727.77 303.051 729.711 303.051C731.148 303.051 732.493 302.715 733.687 302.023C736.487 300.398 738.037 297.166 738.055 292.889C738.074 284.744 732.549 275.161 725.455 271.051H725.436ZM731.802 298.792C730.196 299.726 727.9 299.427 725.362 297.951C719.425 294.533 714.628 286.182 714.646 279.364C714.646 276.487 715.542 274.376 717.148 273.461C717.764 273.106 718.492 272.919 719.276 272.919C720.545 272.919 722.02 273.386 723.588 274.283C729.524 277.72 734.341 286.052 734.322 292.87C734.322 295.765 733.426 297.858 731.82 298.792H731.802Z" fill="white"/>
<path d="M704.23 141.186L461.348 0.877978C459.948 0.074724 458.454 -0.14944 457.035 0.112085L449.064 1.55047L451.827 3.97891C451.473 4.57668 451.137 5.23049 450.894 5.94034L380.91 197.787C379.061 202.831 380.76 208.771 384.68 211.05L625.864 350.387L624.987 353.32L631.875 352.143C634.47 351.676 636.84 349.583 638.035 346.314L708.019 154.468C709.868 149.424 708.169 143.465 704.249 141.204L704.23 141.186Z" fill="#F0F5F7"/>
<path d="M620.6 368.208C620.6 368.208 620.6 368.17 620.6 368.152V356.402L599.58 353.618L374.768 223.734C370.848 221.474 364.482 221.455 360.599 223.734L222.796 303.873L209.524 302.117V313.979C209.524 315.473 210.513 316.986 212.473 318.126L455.355 458.452C459.276 460.713 465.641 460.731 469.543 458.452L617.688 372.299C619.61 371.178 620.562 369.721 620.581 368.264V368.226L620.6 368.208Z" fill="#C0CED5"/>
<path d="M617.65 352.236C621.57 354.496 621.608 358.195 617.706 360.455L469.561 446.609C465.66 448.888 459.294 448.869 455.374 446.609L212.492 306.282C208.572 304.022 208.534 300.323 212.454 298.063L360.599 211.91C364.501 209.649 370.848 209.649 374.768 211.91L617.65 352.236Z" fill="#F0F5F7"/>
<path d="M591.535 351.62C593.215 352.591 593.233 354.179 591.572 355.15L516.23 398.974C514.55 399.946 511.824 399.946 510.144 398.974L292.986 273.517C291.306 272.546 291.287 270.958 292.948 269.987L368.29 226.163C369.97 225.191 372.696 225.191 374.376 226.163L591.535 351.62Z" fill="#D7E1E5"/>
<path d="M379.845 241.611L378.576 242.358L378.147 242.601L377.176 243.18L374.619 241.705L375.589 241.126L376.019 240.883L377.307 240.135L379.845 241.611Z" fill="white"/>
<path d="M550.503 374.279L539.844 380.481L515.334 366.321L526.012 360.119L550.503 374.279Z" fill="white"/>
<path d="M523.828 389.783L513.15 396.004L473.425 373.046L484.103 366.844L523.828 389.783Z" fill="white"/>
<path d="M481.546 365.368L470.868 371.57L460.209 365.406L470.887 359.204L481.546 365.368Z" fill="white"/>
<path d="M365.08 298.063L354.402 304.284L341.185 296.643L351.863 290.442L365.08 298.063Z" fill="white"/>
<path d="M537.156 382.031L526.497 388.233L494.893 369.982L505.552 363.78L537.156 382.031Z" fill="white"/>
<path d="M320.614 272.378L309.936 278.598L298.026 271.705L308.704 265.503L320.614 272.378Z" fill="white"/>
<path d="M349.567 273.648L338.908 279.85L311.373 263.953L322.032 257.751L349.567 273.648Z" fill="white"/>
<path d="M577.198 358.755L566.539 364.957L542.047 350.798L552.706 344.596L577.198 358.755Z" fill="white"/>
<path d="M374.619 241.705L363.941 247.906L351.415 240.659L362.074 234.457L374.619 241.705Z" fill="white"/>
<path d="M586.513 353.338L579.886 357.186L566.072 349.21L572.699 345.362L586.513 353.338Z" fill="white"/>
<path d="M383.915 236.287L377.307 240.135L364.762 232.906L371.389 229.039L383.915 236.287Z" fill="white"/>
<path d="M366.368 252.408L355.69 258.61L338.068 248.43L348.727 242.228L366.368 252.408Z" fill="white"/>
<path d="M470.289 286.201L463.662 290.049L379.845 241.611L386.472 237.763L470.289 286.201Z" fill="white"/>
<path d="M570.142 343.886L563.515 347.734L466.22 291.525L472.847 287.658L570.142 343.886Z" fill="white"/>
<path d="M550.149 343.12L539.49 349.322L366.498 249.382L377.176 243.18L550.149 343.12Z" fill="white"/>
<path d="M530.977 347.51L520.318 353.712L358.247 260.086L368.906 253.884L530.977 347.51Z" fill="white"/>
<path d="M450.539 347.454L439.88 353.656L356.941 305.759L367.618 299.539L450.539 347.454Z" fill="white"/>
<path d="M547.479 357.056L536.82 363.257L522.857 355.188L533.516 348.986L547.479 357.056Z" fill="white"/>
<path d="M468.329 357.728L457.651 363.93L442.419 355.131L453.097 348.93L468.329 357.728Z" fill="white"/>
<path d="M523.454 358.643L512.795 364.845L350.108 270.846L360.767 264.644L523.454 358.643Z" fill="white"/>
<path d="M502.995 362.305L492.336 368.507L341.465 281.326L352.124 275.124L502.995 362.305Z" fill="white"/>
<path d="M563.851 366.508L553.192 372.71L539.378 364.733L550.037 358.531L563.851 366.508Z" fill="white"/>
<path d="M358.229 263.168L347.551 269.37L324.72 256.182L335.38 249.98L358.229 263.168Z" fill="white"/>
<path d="M334.969 280.672L324.291 286.892L312.493 280.074L323.171 273.853L334.969 280.672Z" fill="white"/>
<path d="M349.306 288.966L338.628 295.168L326.83 288.349L337.508 282.147L349.306 288.966Z" fill="white"/>
<path d="M425.301 360.474C426.421 361.128 426.44 362.174 425.301 362.828L380.406 388.924C379.285 389.578 377.475 389.578 376.355 388.924L303.533 346.856C302.413 346.202 302.394 345.156 303.514 344.502L348.41 318.406C349.53 317.752 351.34 317.752 352.46 318.406L425.282 360.474H425.301Z" fill="#D7E1E5"/>
<path d="M696.352 142.624C700.272 144.885 701.971 150.844 700.123 155.887L630.139 347.734C628.291 352.778 623.605 355.038 619.685 352.778L376.803 212.451C372.883 210.191 371.202 204.232 373.032 199.188L443.016 7.36005C444.864 2.31637 449.531 0.0373704 453.47 2.31637L696.352 142.643V142.624Z" fill="white"/>
<path d="M390.803 200.683L455.486 23.3317L682.352 154.412L617.669 331.762L390.803 200.683Z" fill="#2099BD" fill-opacity="0.42"/>
<path d="M624.744 263.075C615 264.644 605.18 268.119 595.529 266.12C584.87 263.916 576.433 255.117 572.307 245.048C568.181 234.98 567.789 223.753 568.536 212.9C569.302 202.046 571.131 191.249 571.262 180.358C571.318 174.642 570.814 168.646 567.715 163.845C562.208 155.327 550.018 153.403 540.404 156.616C530.791 159.829 523.081 166.965 515.483 173.708C507.886 180.433 499.672 187.177 489.759 189.288C479.847 191.399 467.844 187.251 464.409 177.706C462.3 171.859 463.718 165.396 464.521 159.231C465.324 153.067 465.249 146.061 460.974 141.541C456.251 136.553 448.206 136.59 441.709 138.795C435.213 140.999 429.408 144.959 422.818 146.865C418.842 148.023 414.287 148.191 410.423 146.921L390.803 200.701L617.669 331.781L642.347 264.158C636.934 262.253 630.512 262.178 624.744 263.112V263.075Z" fill="#007193"/>
<path d="M455.486 23.3317L416.751 129.492C419.962 131.715 424.218 132.705 428.194 132.481C434.504 132.145 440.421 129.511 446.488 127.755C452.555 125.999 459.406 125.177 464.932 128.24C476.17 134.461 475.124 151.871 484.533 160.595C491.626 167.189 502.939 166.946 511.918 163.266C520.878 159.586 528.364 153.104 536.578 147.948C544.791 142.792 554.592 138.832 564.019 141.074C574.846 143.633 582.425 153.963 585.188 164.742C587.932 175.52 586.793 186.878 585.86 197.955C584.926 209.051 584.292 220.521 587.969 231.019C591.647 241.518 600.738 250.895 611.845 251.549C621.477 252.11 630.139 246.3 639.081 242.639C642.777 241.126 647.033 240.117 651.121 240.005L682.352 154.374L455.486 23.3317Z" fill="#A6E1F4"/>
<path d="M611.863 251.586C600.756 250.951 591.684 241.555 587.988 231.057C584.292 220.559 584.945 209.089 585.878 197.993C586.812 186.897 587.95 175.558 585.206 164.779C582.443 154.001 574.864 143.67 564.037 141.111C554.61 138.869 544.791 142.83 536.596 147.985C528.383 153.141 520.915 159.623 511.936 163.303C502.976 166.983 491.664 167.226 484.551 160.632C475.143 151.89 476.188 134.498 464.95 128.278C459.425 125.214 452.574 126.036 446.507 127.792C440.44 129.548 434.522 132.182 428.213 132.518C424.237 132.724 419.981 131.752 416.77 129.529L410.423 146.921C414.287 148.191 418.842 148.023 422.818 146.865C429.408 144.959 435.213 140.999 441.709 138.795C448.206 136.59 456.251 136.553 460.974 141.541C465.249 146.061 465.342 153.067 464.521 159.231C463.718 165.396 462.281 171.859 464.409 177.706C467.863 187.251 479.847 191.399 489.759 189.288C499.672 187.177 507.904 180.433 515.483 173.708C523.081 166.983 530.791 159.847 540.404 156.616C550.018 153.403 562.208 155.308 567.715 163.845C570.814 168.646 571.318 174.642 571.262 180.358C571.15 191.249 569.302 202.046 568.536 212.9C567.771 223.753 568.163 234.98 572.307 245.048C576.433 255.117 584.87 263.916 595.529 266.12C605.18 268.119 615 264.644 624.744 263.075C630.512 262.16 636.934 262.216 642.347 264.121L651.14 240.042C647.052 240.154 642.814 241.144 639.099 242.676C630.176 246.337 621.514 252.147 611.863 251.586Z" fill="#2099BD" fill-opacity="0.42"/>
<g opacity="0.6">
<path d="M556.496 177.444C553.434 175.67 550.951 177.089 550.933 180.62C550.933 184.151 553.397 188.428 556.458 190.203C559.52 191.978 562.021 190.558 562.021 187.046C562.021 183.515 559.557 179.238 556.477 177.463L556.496 177.444Z" fill="white"/>
<path d="M584.03 206.119L655.545 247.439C658.607 249.214 661.108 247.794 661.108 244.283C661.108 240.752 658.644 236.474 655.564 234.699L584.049 193.379C580.987 191.604 578.505 193.024 578.486 196.554C578.486 200.085 580.95 204.363 584.012 206.137L584.03 206.119Z" fill="white"/>
<path d="M556.402 214.132C559.464 215.907 561.965 214.469 561.984 210.957C561.984 207.426 559.52 203.148 556.44 201.374C553.36 199.599 550.895 201.019 550.877 204.549C550.877 208.08 553.341 212.377 556.402 214.132Z" fill="white"/>
<path d="M583.956 230.067L655.471 271.388C658.532 273.162 661.033 271.724 661.033 268.212C661.033 264.681 658.569 260.404 655.489 258.629L583.974 217.308C580.913 215.533 578.43 216.953 578.411 220.484C578.411 224.014 580.875 228.311 583.937 230.067H583.956Z" fill="white"/>
<path d="M556.496 225.173C553.434 223.398 550.951 224.818 550.933 228.348C550.933 231.879 553.397 236.157 556.458 237.931C559.52 239.706 562.021 238.286 562.021 234.774C562.021 231.244 559.557 226.966 556.477 225.191L556.496 225.173Z" fill="white"/>
<path d="M655.583 282.428L584.068 241.107C581.006 239.332 578.523 240.752 578.505 244.282C578.486 247.813 580.969 252.091 584.03 253.865L655.545 295.186C658.607 296.961 661.108 295.541 661.108 292.029C661.108 288.499 658.644 284.221 655.564 282.446L655.583 282.428Z" fill="white"/>
<path d="M556.44 249.102C553.378 247.327 550.895 248.747 550.877 252.278C550.877 255.808 553.341 260.105 556.402 261.861C559.464 263.635 561.965 262.197 561.984 258.685C561.984 255.154 559.52 250.877 556.44 249.102Z" fill="white"/>
<path d="M655.527 306.357L584.012 265.036C580.95 263.262 578.467 264.681 578.449 268.212C578.449 271.743 580.913 276.039 583.974 277.795L655.489 319.116C658.551 320.89 661.052 319.452 661.052 315.94C661.052 312.41 658.588 308.132 655.508 306.357H655.527Z" fill="white"/>
</g>
</svg>
