<svg width="72" height="59" viewBox="0 0 72 59" fill="none" xmlns="http://www.w3.org/2000/svg">
<path fill-rule="evenodd" clip-rule="evenodd" d="M45.7614 22.3897C45.6463 22.5041 45.608 24.7933 45.608 31.9279C45.608 41.0718 45.608 41.3134 45.8509 41.4406C45.9714 41.5022 46.1008 41.5451 46.2344 41.5678C46.3112 41.5678 47.2445 40.8683 48.3185 40.029C49.3924 39.1896 50.3513 38.4265 50.428 38.3502C50.671 38.1722 51.1696 38.3502 51.3358 38.6682C51.4125 38.8335 51.9751 40.1816 52.5888 41.6568C53.2408 43.2592 53.8289 44.4928 54.0207 44.6836C54.4938 45.1668 55.3632 45.0778 55.7979 44.5055C56.1303 44.0731 55.9641 43.4118 54.7495 40.4995C54.0079 38.7318 53.5605 37.4854 53.6116 37.3455C53.7267 36.9767 54.0974 36.8496 55.555 36.7224C58.9175 36.4299 59.1988 36.3917 59.3778 36.1501C59.4665 36.0304 59.5236 35.8905 59.544 35.7431C59.544 35.6287 58.291 34.2806 56.7696 32.7418C55.2481 31.203 52.8573 28.7866 51.4892 27.3877C50.1212 25.9888 48.4207 24.2592 47.7048 23.547C46.4518 22.2625 46.0938 22.0616 45.7614 22.3897Z" fill="#1CC2FA"/>
<path fill-rule="evenodd" clip-rule="evenodd" d="M42.092 0.0449366C42.028 0.0576542 41.5038 0.18483 40.9413 0.299288C39.5988 0.591792 36.5559 1.36756 34.6764 1.91442C34.1906 2.05431 33.6152 2.20692 33.3979 2.27051C31.0582 2.90639 30.4573 3.21161 30.7769 3.60585C30.9559 3.82205 31.1732 3.80933 32.0554 3.55498C36.5815 2.24507 38.8317 1.64735 40.8134 1.18952C42.4372 0.807991 42.6417 0.744401 42.7312 0.528203C42.7555 0.458221 42.7547 0.382061 42.7291 0.312561C42.7035 0.243061 42.6546 0.184473 42.5906 0.146676C42.3604 -0.0186528 42.3221 -0.0313688 42.092 0.0449366Z" fill="#1CC2FA"/>
<path fill-rule="evenodd" clip-rule="evenodd" d="M46.5669 1.96784C43.46 2.57828 41.7084 2.95981 38.9596 3.65928C36.492 4.28244 33.1422 5.23626 31.0326 5.89757C30.4317 6.08833 29.7797 6.29181 29.5623 6.34268C27.4783 6.92769 27.197 7.04215 27.197 7.34737C27.197 7.76705 27.5295 7.91966 28.0664 7.76704C28.3221 7.69074 29.0253 7.47455 29.6263 7.2965C30.2272 7.11846 30.892 6.92769 31.0966 6.8641C31.3011 6.80051 32.145 6.54616 32.9505 6.29181C33.7559 6.03746 34.8555 5.71952 35.3797 5.57963C35.9039 5.43974 36.6582 5.23626 37.0418 5.1218C39.5477 4.42233 45.0071 3.18873 47.0783 2.84535C47.7687 2.73089 48.0372 2.56557 48.0372 2.27306C48.0372 2.06958 47.6536 1.71349 47.5002 1.77707C47.4746 1.78725 47.0706 1.87627 46.5669 1.96784Z" fill="#1CC2FA"/>
<path fill-rule="evenodd" clip-rule="evenodd" d="M49.8271 4.30532C49.5842 4.35619 48.8298 4.49608 48.165 4.61054C47.5002 4.725 46.7203 4.87761 46.439 4.9412C46.1577 5.00478 45.4161 5.14468 44.7769 5.25914C44.1376 5.37359 43.4216 5.5262 43.1787 5.57707C42.9358 5.62794 42.1047 5.84414 41.3248 6.02219C38.2435 6.74709 34.5997 7.75178 31.2244 8.82005C30.2015 9.13799 28.271 9.71028 27.5166 9.92648C27.2353 10.0028 26.7495 10.1427 26.4299 10.2317C24.7294 10.7404 20.2162 11.8468 18.1833 12.2538C17.2755 12.4318 16.2911 12.6353 16.0098 12.6989C15.7285 12.7625 14.987 12.9024 14.3477 13.0169C12.0847 13.3984 11.8673 13.462 11.7906 13.729C11.5988 14.314 12.1486 14.4667 13.5039 14.225C15.7029 13.8181 19.6025 13.0296 20.5486 12.8134C22.9139 12.2665 28.8079 10.6641 31.007 9.97735C33.513 9.18886 34.2417 8.97267 35.5075 8.61658C36.249 8.4131 37.3358 8.10787 37.9367 7.94254C39.2792 7.56101 41.7851 6.95057 44.0737 6.45459C45.3778 6.1748 47.7814 5.72969 49.8015 5.38631C51.1823 5.15739 51.5276 4.87761 51.0289 4.38162C50.8116 4.16542 50.5303 4.13999 49.8271 4.30532Z" fill="#1CC2FA"/>
<path fill-rule="evenodd" clip-rule="evenodd" d="M51.0415 7.12864C50.6963 7.19223 49.5968 7.383 48.6123 7.56105C45.0452 8.18421 44.879 8.22236 40.9411 9.13803C40.0333 9.35423 38.9082 9.63402 38.4479 9.76119C37.9877 9.88837 37.0416 10.1554 36.3384 10.3462C35.6352 10.537 34.4589 10.8803 33.7174 11.1093C32.0297 11.6307 29.0507 12.5591 28.5393 12.7117C28.1685 12.8134 26.4169 13.3094 25.3429 13.6019C25.0617 13.6782 24.5758 13.8181 24.2562 13.9071C23.016 14.2505 22.6069 14.3522 21.3155 14.6575C18.3238 15.3569 17.4288 15.5604 15.6261 15.8911C13.6315 16.2599 12.9667 16.3743 11.6754 16.5778C10.3841 16.7813 9.93657 17.0484 10.1795 17.5189C10.4096 17.9386 10.9978 17.9004 14.6032 17.2137C15.4471 17.0484 16.5466 16.8449 17.0324 16.7686C17.5183 16.6923 18.2215 16.5397 18.5667 16.4506C18.9119 16.3616 19.5512 16.2217 19.9731 16.1327C20.8936 15.9292 24.4863 15.0135 26.174 14.5557C26.8388 14.3649 27.7082 14.1233 28.0918 14.0216C28.7566 13.8435 31.8507 12.8897 33.7813 12.2665C34.6379 11.9868 35.4945 11.7451 38.5119 10.9185C39.7521 10.5751 41.8872 10.0537 43.1785 9.77391C43.4215 9.72304 44.0607 9.58314 44.5849 9.45597C45.1091 9.32879 45.8507 9.1889 46.2215 9.12531C46.5922 9.06173 47.1931 8.95998 47.5639 8.89639C47.9347 8.8328 48.753 8.6802 49.3794 8.56574C50.0059 8.45128 51.0671 8.28595 51.732 8.18421C53.1 7.99345 53.5475 7.72637 53.2918 7.24311C53.1639 7.01419 53.0361 6.97604 52.4096 6.98876C51.9507 7.00191 51.4935 7.04866 51.0415 7.12864Z" fill="#1CC2FA"/>
<path fill-rule="evenodd" clip-rule="evenodd" d="M18.6052 9.12529C17.3139 9.41779 16.9175 9.74845 17.4162 10.1554C17.5696 10.2826 17.7997 10.2699 18.5924 10.1045C20.0372 9.81203 20.3184 9.72302 20.4719 9.4941C20.6509 9.2016 20.3568 8.88365 19.9221 8.89637C19.7431 8.90908 19.1422 9.01083 18.6052 9.12529Z" fill="#1CC2FA"/>
<path fill-rule="evenodd" clip-rule="evenodd" d="M53.1512 9.90105C52.8316 9.96464 52.1156 10.0664 51.553 10.1554C50.9905 10.2444 50.1339 10.3716 49.6352 10.4733C49.1366 10.5751 48.3439 10.7023 47.8453 10.7786C45.0964 11.2491 39.4453 12.5209 38.1923 12.966C37.9238 13.055 36.543 13.4238 35.5713 13.6782C35.2261 13.7672 31.4416 14.9499 30.3293 15.306C29.2681 15.6621 25.7394 16.6922 24.4608 17.0229C23.9622 17.1628 23.2079 17.3535 22.7859 17.468C22.364 17.5825 21.8143 17.7351 21.5713 17.7859C18.5796 18.46 15.8563 19.0577 15.1786 19.1722C14.7184 19.2612 13.9512 19.4011 13.4526 19.5028C12.954 19.6046 12.0718 19.7317 11.4709 19.808C10.87 19.8843 9.75765 20.037 8.97774 20.1387C6.49737 20.4566 5.29555 20.5838 4.00422 20.6601C3.00696 20.7237 2.70012 20.7873 2.50834 20.9781C2.20149 21.2833 2.20149 21.4105 2.50834 21.7157C2.84076 22.0463 3.82523 21.9955 8.78596 21.3977C10.9211 21.1434 13.491 20.7491 14.9869 20.4566C15.3449 20.3803 16.227 20.2023 16.9686 20.0624C18.912 19.6682 20.9576 19.2103 22.5302 18.8034C26.0974 17.8877 29.5494 16.8703 33.3339 15.624C34.2161 15.3442 35.4818 14.9626 36.1467 14.7846C36.8115 14.6066 37.617 14.3904 37.9366 14.3013C40.8261 13.4365 45.2243 12.4573 48.996 11.8087C49.4946 11.7324 50.3256 11.5925 50.8498 11.4908C51.374 11.389 52.3585 11.2491 53.0234 11.1601C54.2508 11.0075 54.6855 10.8167 54.6855 10.4098C54.6855 10.13 54.2763 9.77388 53.9695 9.78659C53.8467 9.79931 53.4708 9.85273 53.1512 9.90105Z" fill="#1CC2FA"/>
<path fill-rule="evenodd" clip-rule="evenodd" d="M62.5486 12.2029C57.9203 12.4191 52.7294 13.0423 47.3979 14.0343C43.9842 14.6701 39.3303 15.7766 36.4664 16.6286C35.9806 16.7813 35.1751 17.0229 34.6765 17.1628C34.1778 17.3027 33.0016 17.6842 32.0555 18.0021C30.2783 18.5744 26.6473 19.6936 25.4071 20.0369C24.5504 20.2786 24.218 20.3549 22.9139 20.6983C22.3514 20.8509 21.6865 21.0162 21.4436 21.0925C16.4957 22.4406 8.27466 23.7378 3.04544 24.0048C1.20434 24.0939 1.06371 24.1193 0.83357 24.3864C0.539506 24.7552 0.539508 24.8442 0.859142 25.1621C1.10206 25.4038 1.22992 25.4165 2.62352 25.3529C6.30962 25.1262 9.98034 24.6974 13.6189 24.0684C14.2326 23.9667 15.0253 23.8268 15.3705 23.7632C15.7158 23.6996 16.4445 23.5597 16.9687 23.4453C17.4929 23.3308 18.2856 23.1528 18.7075 23.0637C19.6536 22.8603 21.0856 22.5296 21.6993 22.3643C25.2025 21.4613 26.1998 21.1943 27.5167 20.7746C27.7979 20.6855 28.4628 20.4821 28.987 20.3295C29.5112 20.1768 30.9559 19.719 32.1961 19.3121C35.0856 18.371 41.0819 16.6795 43.0509 16.2598C43.9842 16.0564 46.8609 15.4586 47.7048 15.2933C48.4975 15.1407 49.3541 14.9881 51.8089 14.6065C55.3121 14.047 61.5641 13.462 63.9422 13.462C65.4381 13.462 65.8984 13.3221 66.0262 12.8515C66.1285 12.4064 65.681 12.0503 65.0545 12.0885C64.7988 12.0885 63.6737 12.1419 62.5486 12.2029Z" fill="#1CC2FA"/>
<path fill-rule="evenodd" clip-rule="evenodd" d="M61.5896 15.5095C55.0691 16.0182 52.039 16.4125 46.8225 17.4299C43.5367 18.0657 39.9824 18.9051 37.5531 19.6173C36.9522 19.7953 35.955 20.0878 35.3157 20.2786C34.6764 20.4694 33.0783 20.9654 31.7358 21.4105C30.3933 21.8556 28.8719 22.3388 28.3477 22.4915C27.8235 22.6441 27.1586 22.8475 26.8773 22.9493C25.765 23.3181 21.0089 24.5899 19.5897 24.9078C19.3084 24.9587 18.6819 25.0986 18.1833 25.213C13.1586 26.3576 5.29563 27.4513 2.09928 27.4513C1.11481 27.4513 0.603394 27.6929 0.603394 28.1508C0.624358 28.3454 0.71514 28.526 0.859101 28.6595C1.08924 28.863 1.28102 28.8757 2.93033 28.7994C4.68193 28.7103 8.3769 28.3543 10.1669 28.0872C10.934 27.9727 11.6883 27.8583 14.1559 27.4513C14.8463 27.3369 17.0837 26.879 18.8226 26.4848C19.3212 26.3703 19.9477 26.2304 20.2289 26.1796C20.5102 26.1287 21.0856 25.9761 21.5075 25.8616C21.9294 25.7472 22.9394 25.4928 23.7449 25.2766C25.6499 24.7806 27.3888 24.2592 31.4801 22.9366C35.1367 21.7666 39.5093 20.4821 41.0052 20.1387C41.5294 20.0243 42.1431 19.8716 42.3477 19.8081C43.5495 19.452 47.6024 18.638 50.4664 18.1802C55.6061 17.3408 59.1093 16.9975 65.144 16.7558C68.9924 16.6032 69.0307 16.5905 69.2225 16.298C69.4015 16.0309 69.4015 15.9801 69.2097 15.6876L69.0052 15.3696L65.9622 15.3823C64.3001 15.3951 62.3312 15.4586 61.5896 15.5095Z" fill="#1CC2FA"/>
<path fill-rule="evenodd" clip-rule="evenodd" d="M63.8909 18.7652C60.3622 18.9432 58.3677 19.1086 54.7494 19.5155C53.0745 19.6936 52.8316 19.7317 50.0188 20.1896C46.7585 20.7364 46.4261 20.8254 46.9375 21.1434C47.1706 21.293 47.3927 21.4587 47.6024 21.6394C48.0626 22.0336 48.0626 22.0336 49.7631 21.7284C54.775 20.8127 59.9019 20.3422 65.8727 20.2532C70.6672 20.1641 70.9229 20.126 70.9229 19.5282C70.9011 19.3153 70.8115 19.1147 70.6672 18.956C70.4115 18.6762 70.3348 18.6762 67.4964 18.7016C65.8982 18.7143 64.2745 18.7398 63.8909 18.7652Z" fill="#1CC2FA"/>
<path fill-rule="evenodd" clip-rule="evenodd" d="M42.8591 21.6266C42.0152 21.8301 41.1586 22.0463 40.9413 22.0972C40.7239 22.1481 40.0974 22.3261 39.5349 22.4787C35.9677 23.4453 33.3595 24.2592 27.9641 26.0524C27.7851 26.1159 27.1331 26.3067 26.4938 26.4975C25.8545 26.6882 25.2025 26.879 25.0235 26.9426C24.8445 27.0062 24.3586 27.1334 23.9367 27.2478C23.5148 27.3623 22.7732 27.553 22.2746 27.6929C21.776 27.8328 20.9833 28.0363 20.4847 28.1508C19.986 28.2652 19.3851 28.4051 19.1166 28.4687C16.9303 29.0537 11.7522 29.9821 8.46641 30.3763C7.83992 30.4526 6.91938 30.5671 6.42075 30.6307C5.92212 30.6943 4.89929 30.7833 4.11938 30.8342C2.57235 30.9232 2.13765 31.0885 2.13765 31.5845C2.13765 31.877 2.57235 32.4111 2.80249 32.4111C3.12212 32.4111 7.35408 32.0169 8.18513 31.9024C8.72211 31.8389 9.64266 31.7117 10.2308 31.6354C10.8189 31.5591 11.7139 31.4319 12.2381 31.3302C12.7623 31.2284 13.6061 31.1012 14.092 31.0122C16.4573 30.618 22.07 29.3462 23.6171 28.8502C23.7961 28.7994 24.3075 28.6467 24.7678 28.5323C25.228 28.4178 25.8289 28.2398 26.1102 28.1508C26.3915 28.0617 27.0563 27.8583 27.5805 27.7056C28.1047 27.553 29.9842 26.9426 31.7358 26.3703C34.4974 25.4546 36.4152 24.8569 37.3614 24.6153C37.502 24.5771 38.4225 24.3228 39.407 24.043C40.3915 23.7632 41.6061 23.4453 42.0919 23.3308C43.8563 22.9238 44.3294 22.7458 44.3294 22.5042C44.3294 22.377 44.47 22.059 44.649 21.8047C44.7714 21.641 44.8784 21.4665 44.9687 21.2833C44.9687 21.1561 44.3422 21.2578 42.8591 21.6266Z" fill="#1CC2FA"/>
<path fill-rule="evenodd" clip-rule="evenodd" d="M65.0417 22.1888C62.5485 22.3032 59.0965 22.5067 57.8819 22.6339C53.4453 23.079 50.0061 23.575 49.8654 23.8039C49.7887 23.9183 50.5175 24.7195 50.8755 24.923C51.0289 24.9993 51.5403 24.9739 52.3458 24.8594C57.2707 24.1132 62.2463 23.7475 67.228 23.7657H70.8846L71.1659 23.4605C71.5239 23.079 71.4599 22.583 71.0124 22.3414C70.7312 22.1887 67.1768 22.0972 65.0417 22.1888Z" fill="#1CC2FA"/>
<path fill-rule="evenodd" clip-rule="evenodd" d="M42.6671 25.124C42.2836 25.2257 41.4142 25.4547 40.7493 25.62C40.0845 25.7853 39.3941 25.9888 39.2151 26.0397C39.0361 26.0905 38.6653 26.2177 38.384 26.294C36.4023 26.8409 33.9859 27.5785 32.247 28.1635C28.6288 29.3971 26.9539 29.9185 23.2973 30.9486C22.8754 31.0631 22.3895 31.2157 22.2105 31.2793C21.8525 31.3938 18.3621 32.2458 17.5439 32.4112C17.2626 32.462 16.4315 32.6274 15.69 32.78C14.9484 32.9326 14.0279 33.1106 13.6443 33.1742C13.2608 33.2378 12.4553 33.3777 11.8544 33.4794C10.8315 33.6575 9.69364 33.8228 8.22332 34.0136C7.81419 34.0644 7.49456 34.1916 7.30278 34.3824C6.93201 34.7512 6.91922 34.8275 7.27721 35.2726C7.5457 35.616 7.57127 35.616 8.45347 35.527C9.56579 35.4252 11.0745 35.1963 13.5165 34.7639C14.5393 34.5859 15.6644 34.3824 16.0096 34.3188C16.3548 34.2552 17.1731 34.0899 17.7996 33.9373C18.4261 33.7847 19.5895 33.5176 20.3566 33.3396C22.7475 32.7673 28.1046 31.1903 32.0553 29.8677C36.2361 28.4687 39.4452 27.5276 42.6671 26.7391C43.4087 26.5611 44.0863 26.3576 44.1758 26.2813C44.2653 26.205 44.3292 25.8743 44.3292 25.531V24.9078L43.8562 24.9205C43.4547 24.9543 43.0569 25.0224 42.6671 25.124Z" fill="#1CC2FA"/>
<path fill-rule="evenodd" clip-rule="evenodd" d="M62.2289 25.8769C60.9632 25.9405 57.8435 26.1948 56.7312 26.3093C53.1769 26.7035 52.8956 26.7544 52.8956 26.9452C52.8956 27.0088 53.1641 27.314 53.5093 27.6319C54.1869 28.2932 53.8928 28.2551 56.6033 27.9499C59.8317 27.6182 63.0747 27.4484 66.3202 27.4412C68.4554 27.4284 70.207 27.3648 70.3604 27.3013C70.5449 27.1984 70.6992 27.0493 70.8079 26.8689C70.9485 26.6018 70.9357 26.5128 70.7056 26.2075L70.4499 25.8642L66.691 25.8515C64.6198 25.8489 62.6125 25.8616 62.2289 25.8769Z" fill="#1CC2FA"/>
<path fill-rule="evenodd" clip-rule="evenodd" d="M42.7313 28.6976C42.0281 28.863 40.481 29.2826 39.2792 29.626C38.0774 29.9694 36.8756 30.3127 36.5943 30.3891C35.8783 30.5925 31.6464 31.9788 30.6491 32.3476C29.9075 32.6146 27.0436 33.5303 25.1514 34.1153C24.3331 34.3697 24.0007 34.6367 24.0007 35.031C24.0007 35.3871 24.461 35.8449 24.819 35.8449C25.2025 35.8449 29.703 34.4078 33.2317 33.1742C35.5459 32.3603 41.6701 30.5925 43.6902 30.1729C43.8611 30.1409 44.0228 30.0714 44.1632 29.9694C44.3806 29.7913 44.3806 28.5196 44.176 28.4433C44.0865 28.4204 43.4345 28.5323 42.7313 28.6976Z" fill="#1CC2FA"/>
<path fill-rule="evenodd" clip-rule="evenodd" d="M62.2289 29.5751C60.3367 29.6387 56.2965 29.9948 56.1686 30.122C56.1047 30.1856 56.3221 30.5163 56.6928 30.8978C57.3321 31.5591 57.3321 31.5591 58.0864 31.5337C58.4956 31.5209 59.5056 31.4574 60.3111 31.3938C61.1166 31.3302 63.2773 31.2284 65.0928 31.1776C68.0718 31.1013 68.4298 31.0758 68.6472 30.8596C68.9668 30.5417 68.9412 29.9312 68.596 29.6896C68.3147 29.4861 66.2947 29.448 62.2289 29.5751Z" fill="#1CC2FA"/>
<path fill-rule="evenodd" clip-rule="evenodd" d="M42.4755 32.4747C41.849 32.6401 41.0051 32.8563 40.6216 32.958C40.238 33.0597 39.4581 33.2759 38.8956 33.4286C36.0572 34.1789 35.6353 34.3824 35.6353 35.0055C35.6353 35.8449 36.2746 36.0357 37.617 35.5778C38.0389 35.4379 38.7038 35.2344 39.0873 35.1327L40.7494 34.6876C41.2736 34.5477 42.2325 34.2933 42.8846 34.128C43.3282 34.0331 43.7641 33.9056 44.1887 33.7465C44.2654 33.7083 44.3293 33.3268 44.3293 32.9071C44.3293 32.1695 44.3293 32.1568 43.9841 32.1695C43.7796 32.1695 43.1147 32.3094 42.4755 32.4747Z" fill="#1CC2FA"/>
<path fill-rule="evenodd" clip-rule="evenodd" d="M60.8992 33.4413C60.2727 33.4921 59.7102 33.5939 59.6335 33.6702C59.5567 33.7465 59.6207 33.9118 59.8892 34.1534C60.1154 34.3714 60.3209 34.6099 60.5029 34.8656C60.733 35.2344 60.7458 35.2344 61.8837 35.1836C62.9449 35.1454 63.0344 35.12 63.3284 34.7893C63.7248 34.3315 63.712 34.0008 63.3029 33.6193C62.9321 33.2759 62.8426 33.2632 60.8992 33.4413Z" fill="#1CC2FA"/>
<path fill-rule="evenodd" clip-rule="evenodd" d="M21.891 43.3737C21.8527 43.4627 21.8399 46.1079 21.8527 49.2619L21.891 54.9848L22.8883 55.023C23.6171 55.0484 23.8728 55.023 23.8855 54.8958C23.8855 54.8068 23.8983 54.0564 23.9111 53.2425C23.9239 52.3904 23.9878 51.7291 24.0645 51.7164C24.1413 51.7037 24.576 52.3014 25.049 53.0772C26.3787 55.2519 26.1358 55.0484 27.4782 55.0484C28.4244 55.0484 28.6161 55.0102 28.565 54.8703C28.5266 54.7686 27.8874 53.7258 27.133 52.543C26.3787 51.3603 25.8161 50.3429 25.8417 50.2666C25.9568 49.9741 28.2454 47.0363 28.3604 47.0363C28.5266 47.0363 28.6545 47.3924 29.0508 48.944C29.5878 51.0042 29.997 52.5303 30.1248 52.95C30.1887 53.1535 30.3422 53.713 30.4572 54.1836C30.6618 54.9339 30.7257 55.0484 30.9814 55.0484C31.1476 55.0484 31.3011 55.0993 31.3394 55.1629C31.3778 55.2264 31.1988 55.8878 30.9559 56.6381C30.649 57.5538 30.5467 58.0497 30.6234 58.126C30.7641 58.2659 32.2088 58.3041 32.4006 58.1896C32.4645 58.1515 32.5924 57.8717 32.6947 57.5665C32.797 57.2613 32.9887 56.6127 33.1422 56.1294C33.2956 55.6461 33.5896 54.7177 33.7814 54.0946C33.9732 53.4714 34.1778 52.8101 34.2289 52.6321C34.2801 52.454 34.5741 51.5383 34.8682 50.5972C35.1623 49.6561 35.5458 48.448 35.712 47.9266C35.8402 47.561 35.9427 47.1871 36.0189 46.8074C36.0189 46.6802 35.7759 46.6548 34.9705 46.6802C33.9221 46.7184 33.9221 46.7184 33.8198 47.0999C33.7686 47.3034 33.5129 48.2191 33.27 49.1347C33.0271 50.0504 32.733 51.1314 32.618 51.5511C32.3495 52.543 32.1705 53.0136 32.0682 53.0136C32.0298 53.0136 31.7102 51.6274 31.3778 49.9359C31.0454 48.2445 30.7257 46.8074 30.7002 46.7565C30.6746 46.7057 29.6262 46.6548 28.4116 46.6548H26.1869L25.6627 47.3543C25.3814 47.7358 24.9084 48.3717 24.6271 48.7659C24.2435 49.2746 24.0645 49.44 24.0006 49.3128C23.9367 49.2238 23.8855 47.8757 23.8855 46.3114C23.8855 44.7472 23.86 43.4245 23.8088 43.3482C23.6938 43.1575 21.955 43.1829 21.891 43.3737Z" fill="#1CC2FA"/>
<path fill-rule="evenodd" clip-rule="evenodd" d="M16.9048 46.6065C16.2399 46.8481 15.8436 47.2296 15.5495 47.9037C15.3978 48.2396 15.3194 48.6037 15.3194 48.9719C15.3194 49.3402 15.3978 49.7043 15.5495 50.0402C15.8308 50.6634 16.2399 50.9686 17.5696 51.5663C17.9937 51.7531 18.4039 51.9699 18.797 52.2149C18.8667 52.2789 18.9217 52.3571 18.9581 52.4443C18.9945 52.5314 19.0115 52.6254 19.0079 52.7197C19.0042 52.814 18.98 52.9064 18.937 52.9905C18.894 53.0746 18.8331 53.1484 18.7586 53.2069C18.5413 53.4104 18.3751 53.4231 17.4545 53.3468C16.8664 53.2959 16.2271 53.2323 16.0098 53.2323L15.6262 53.2069V54.9746L16.4573 55.1272C19.6153 55.7377 21.3541 54.5931 21.0089 52.1513C20.881 51.2229 20.4335 50.7651 18.8481 49.9893C17.5824 49.3662 17.4801 49.2899 17.4801 48.9465C17.4801 48.2725 18.3879 48.0054 19.6792 48.2979C20.3057 48.4378 20.4207 48.2979 20.4207 47.395V46.6701L19.9477 46.5429C19.2573 46.3521 17.5057 46.3877 16.9048 46.6065Z" fill="#1CC2FA"/>
<path fill-rule="evenodd" clip-rule="evenodd" d="M38.8317 48.4735C37.8728 48.944 37.7449 49.3001 37.7449 51.5765C37.7449 53.3316 37.7705 53.5351 38.0134 53.8657C38.5504 54.5779 39.0363 54.7941 40.0974 54.7941C41.2353 54.7941 41.4271 54.7051 41.3632 54.2091C41.3248 53.853 41.312 53.8403 40.4938 53.8021C39.0107 53.7513 38.8317 53.4969 38.8317 51.5384C38.8317 49.5799 39.1769 49.1348 40.6472 49.2238L41.3248 49.262L41.3632 48.8423C41.4015 48.4989 41.3504 48.4099 41.0691 48.3081C40.4938 48.0919 39.4582 48.1683 38.8317 48.4735Z" fill="#393938"/>
<path fill-rule="evenodd" clip-rule="evenodd" d="M43.4906 48.4226C42.7874 48.7405 42.4805 49.1602 42.2888 50.0886C42.097 50.9534 42.1737 52.7974 42.4294 53.5732C42.6851 54.349 43.286 54.7178 44.36 54.7686C45.3445 54.8322 45.8175 54.6796 46.2778 54.1836C46.7636 53.6622 46.8915 53.1154 46.8915 51.4875C46.8915 49.9487 46.7764 49.4527 46.2906 48.855C45.7485 48.2064 44.4188 48.0054 43.4906 48.4226ZM45.37 49.529C45.6641 49.8342 45.6769 49.936 45.6769 51.5638C45.6769 53.1535 45.6641 53.2807 45.3828 53.5477C44.9865 53.9547 44.2066 53.942 43.7719 53.535C43.4522 53.2298 43.4394 53.1789 43.4394 51.5511C43.4394 49.8978 43.4522 49.8597 43.7719 49.529C43.8746 49.4215 43.9982 49.3359 44.1352 49.2775C44.2723 49.2191 44.4199 49.1891 44.569 49.1894C44.718 49.1896 44.8655 49.2201 45.0024 49.2789C45.1392 49.3377 45.2626 49.4237 45.3649 49.5315L45.37 49.529Z" fill="#393938"/>
<path fill-rule="evenodd" clip-rule="evenodd" d="M50.1467 48.3335C49.9315 48.4658 49.7302 48.6192 49.5458 48.7914C49.2773 49.033 49.1878 49.0712 49.1367 48.9313C48.9449 48.2954 48.9321 48.2954 48.523 48.3335L48.1011 48.3717L48.0627 51.5129L48.0372 54.6669L48.3696 54.7432C49.0728 54.9212 49.1239 54.7813 49.1878 52.3396C49.2518 50.1394 49.2645 50.0886 49.5842 49.7706C49.9805 49.3637 50.6837 49.2365 51.0417 49.4908C51.2846 49.6689 51.2974 49.8596 51.3358 52.1615L51.3869 54.6415L51.7066 54.7305C51.8921 54.7687 52.0836 54.7687 52.2691 54.7305C52.4992 54.6542 52.512 54.5015 52.512 52.4667C52.5248 50.114 52.5376 50.025 53.2408 49.5544C53.7266 49.2365 54.2381 49.2619 54.481 49.6053C54.6472 49.8342 54.6856 50.3175 54.6856 52.2633V54.6415L55.018 54.7178C55.2062 54.7661 55.4031 54.7705 55.5933 54.7305C55.8234 54.6542 55.8362 54.5015 55.8362 52.1488C55.8362 49.9232 55.8107 49.6053 55.5805 49.1347C55.4378 48.8162 55.1896 48.5558 54.8773 48.3971C54.0718 48.0156 53.5732 48.1301 52.7933 48.8677L52.3714 49.2619L52.1029 48.9058C51.6298 48.2598 50.7477 48.0054 50.1467 48.3335Z" fill="#393938"/>
<path fill-rule="evenodd" clip-rule="evenodd" d="M59.2242 48.3463C58.2526 49.0076 58.2781 49.0076 58.1375 48.6388C57.9713 48.1937 57.2809 48.1555 57.1786 48.5879C57.1402 48.7533 57.1274 50.7118 57.1402 52.9501L57.1786 57.0197H58.2014L58.2653 55.8115C58.3293 54.6924 58.3421 54.6033 58.585 54.6542C59.6206 54.845 60.3238 54.8068 60.7457 54.5525C61.4745 54.0946 61.5895 53.6877 61.5895 51.4621C61.5895 49.8215 61.5512 49.44 61.3594 49.0839C60.9503 48.3209 59.8252 47.9393 59.2242 48.3463ZM60.2343 49.6181C60.4772 49.936 60.5028 50.1522 60.5028 51.4621C60.5028 53.3443 60.3621 53.7004 59.5822 53.7513C59.2664 53.7726 58.9501 53.7158 58.6617 53.5859L58.2653 53.3825V51.8309C58.2653 50.114 58.3421 49.8978 59.0836 49.44C59.6001 49.1221 59.9019 49.1729 60.2394 49.6181H60.2343Z" fill="#393938"/>
</svg>
