<svg width="50" height="50" viewBox="0 0 50 50" fill="none" xmlns="http://www.w3.org/2000/svg">
<path d="M11.5833 32.6666L21.1667 26.9166M28.8333 23.0833L38.4167 17.3333M25 11.5833V21.1666M25 28.8333V38.4166M11.5833 17.3333L21.1667 23.0833M28.8333 26.9166L38.4167 32.6666M41.2917 19.25V29.7916M27.875 41.2916L38.4167 35.5416M10.625 35.5416L22.125 41.2916M8.70833 30.75V19.25M10.625 14.4583L22.125 8.70831M39.375 14.4583L27.875 8.70831" stroke="white" stroke-width="3.125" stroke-linecap="round" stroke-linejoin="round"/>
<path d="M25 11.5833C26.5878 11.5833 27.875 10.2961 27.875 8.70831C27.875 7.12049 26.5878 5.83331 25 5.83331C23.4122 5.83331 22.125 7.12049 22.125 8.70831C22.125 10.2961 23.4122 11.5833 25 11.5833Z" stroke="white" stroke-width="3.125" stroke-linecap="round" stroke-linejoin="round"/>
<path d="M25 44.1666C26.5878 44.1666 27.875 42.8794 27.875 41.2916C27.875 39.7038 26.5878 38.4166 25 38.4166C23.4122 38.4166 22.125 39.7038 22.125 41.2916C22.125 42.8794 23.4122 44.1666 25 44.1666Z" stroke="white" stroke-width="3.125" stroke-linecap="round" stroke-linejoin="round"/>
<path d="M8.70833 19.25C10.2961 19.25 11.5833 17.9628 11.5833 16.375C11.5833 14.7872 10.2961 13.5 8.70833 13.5C7.12051 13.5 5.83333 14.7872 5.83333 16.375C5.83333 17.9628 7.12051 19.25 8.70833 19.25Z" stroke="white" stroke-width="3.125" stroke-linecap="round" stroke-linejoin="round"/>
<path d="M41.2917 19.25C42.8795 19.25 44.1667 17.9628 44.1667 16.375C44.1667 14.7872 42.8795 13.5 41.2917 13.5C39.7038 13.5 38.4167 14.7872 38.4167 16.375C38.4167 17.9628 39.7038 19.25 41.2917 19.25Z" stroke="white" stroke-width="3.125" stroke-linecap="round" stroke-linejoin="round"/>
<path d="M41.2917 36.5C42.8795 36.5 44.1667 35.2128 44.1667 33.625C44.1667 32.0372 42.8795 30.75 41.2917 30.75C39.7038 30.75 38.4167 32.0372 38.4167 33.625C38.4167 35.2128 39.7038 36.5 41.2917 36.5Z" stroke="white" stroke-width="3.125" stroke-linecap="round" stroke-linejoin="round"/>
<path d="M8.70833 36.5C10.2961 36.5 11.5833 35.2128 11.5833 33.625C11.5833 32.0372 10.2961 30.75 8.70833 30.75C7.12051 30.75 5.83333 32.0372 5.83333 33.625C5.83333 35.2128 7.12051 36.5 8.70833 36.5Z" stroke="white" stroke-width="3.125" stroke-linecap="round" stroke-linejoin="round"/>
<path d="M25 20.6875L28.8333 22.8437V27.1562L25 29.3125L21.1667 27.1562V22.8437L25 20.6875Z" stroke="white" stroke-width="3.125" stroke-linecap="round" stroke-linejoin="round"/>
</svg>
