<svg width="50" height="50" viewBox="0 0 50 50" fill="none" xmlns="http://www.w3.org/2000/svg">
<g clip-path="url(#clip0_1176_288)">
<path fill-rule="evenodd" clip-rule="evenodd" d="M31.5358 11.25H12.1509C10.0087 11.25 7.95431 12.0073 6.43957 13.3552C4.92483 14.7031 4.07385 16.5313 4.07385 18.4375V32.8125C4.07385 34.7187 4.92483 36.5469 6.43957 37.8948C7.95431 39.2427 10.0087 40 12.1509 40H31.5358C33.678 40 35.7324 39.2427 37.2472 37.8948C38.7619 36.5469 39.6129 34.7187 39.6129 32.8125V18.4375C39.6129 16.5313 38.7619 14.7031 37.2472 13.3552C35.7324 12.0073 33.678 11.25 31.5358 11.25ZM7.30468 18.4375C7.30468 17.2938 7.81526 16.1969 8.7241 15.3881C9.63295 14.5794 10.8656 14.125 12.1509 14.125H31.5358C32.8211 14.125 34.0538 14.5794 34.9627 15.3881C35.8715 16.1969 36.3821 17.2938 36.3821 18.4375V32.8125C36.3821 33.9562 35.8715 35.0531 34.9627 35.8619C34.0538 36.6706 32.8211 37.125 31.5358 37.125H12.1509C10.8656 37.125 9.63295 36.6706 8.7241 35.8619C7.81526 35.0531 7.30468 33.9562 7.30468 32.8125V18.4375Z" fill="white"/>
<path fill-rule="evenodd" clip-rule="evenodd" d="M46.8112 14.355L37.1898 19.9239C36.9662 20.0528 36.782 20.229 36.6535 20.4367C36.525 20.6443 36.4561 20.8771 36.4532 21.1141L36.3659 28.6236C36.3626 28.8658 36.4281 29.1048 36.5563 29.3184C36.6846 29.532 36.8713 29.7133 37.0993 29.8455L46.8047 35.4575C47.0485 35.5989 47.3307 35.6791 47.6215 35.6895C47.9122 35.7 48.2007 35.6404 48.4566 35.517C48.7124 35.3936 48.926 35.211 49.0748 34.9885C49.2237 34.766 49.3022 34.5118 49.3022 34.2529V15.5625C49.3028 15.3033 49.2247 15.0488 49.0761 14.8259C48.9275 14.603 48.7139 14.42 48.458 14.2962C48.2021 14.1725 47.9133 14.1126 47.6223 14.123C47.3312 14.1333 47.0488 14.2135 46.8047 14.355M46.0746 31.605L39.6097 27.8646L39.6775 21.9134L46.0746 18.2133V31.605Z" fill="white"/>
</g>
<defs>
<clipPath id="clip0_1176_288">
<rect width="50" height="50" fill="white"/>
</clipPath>
</defs>
</svg>
