<svg width="134" height="103" viewBox="0 0 134 103" fill="none" xmlns="http://www.w3.org/2000/svg">
<path fill-rule="evenodd" clip-rule="evenodd" d="M80.0992 42.0938C79.9448 42.2536 79.8933 45.4488 79.8933 55.4073C79.8933 68.1705 79.8933 68.5078 80.2193 68.6853C80.3811 68.7714 80.5547 68.8312 80.734 68.8628C80.837 68.8628 82.0894 67.8865 83.5306 66.7149C84.9718 65.5433 86.2586 64.4782 86.3616 64.3717C86.6875 64.1232 87.3567 64.3717 87.5797 64.8155C87.6826 65.0463 88.4376 66.9279 89.2611 68.9871C90.1361 71.2237 90.9254 72.9456 91.1827 73.2119C91.8175 73.8865 92.9842 73.7622 93.5676 72.9634C94.0136 72.3598 93.7906 71.4368 92.1607 67.3717C91.1656 64.9043 90.565 63.1647 90.6337 62.9694C90.7881 62.4546 91.2857 62.2771 93.2416 62.0996C97.7539 61.6913 98.1314 61.638 98.3716 61.3008C98.4906 61.1337 98.5673 60.9384 98.5946 60.7327C98.5946 60.5729 96.9132 58.6913 94.8715 56.5434C92.8298 54.3955 89.6214 51.0227 87.7856 49.0701C85.9498 47.1174 83.6679 44.7033 82.7071 43.7092C81.0257 41.9163 80.5453 41.6358 80.0992 42.0938Z" fill="white"/>
<path fill-rule="evenodd" clip-rule="evenodd" d="M75.1751 10.9048C75.0893 10.9225 74.3858 11.1 73.6309 11.2598C71.8294 11.6681 67.746 12.7509 65.2239 13.5142C64.572 13.7095 63.7999 13.9225 63.5082 14.0112C60.3685 14.8988 59.5621 15.3248 59.991 15.8751C60.2312 16.1769 60.5229 16.1592 61.7067 15.8041C67.7803 13.9757 70.8 13.1414 73.4594 12.5024C75.6383 11.9698 75.9128 11.8811 76.0329 11.5793C76.0655 11.4816 76.0645 11.3753 76.0301 11.2783C75.9957 11.1813 75.9301 11.0995 75.8442 11.0468C75.5354 10.816 75.4839 10.7983 75.1751 10.9048Z" fill="white"/>
<path fill-rule="evenodd" clip-rule="evenodd" d="M81.1801 13.5888C77.0109 14.4408 74.6604 14.9734 70.9716 15.9497C67.6603 16.8195 63.1651 18.1509 60.3342 19.0739C59.5278 19.3402 58.6528 19.6242 58.3611 19.6952C55.5645 20.5118 55.1871 20.6716 55.1871 21.0976C55.1871 21.6834 55.6331 21.8964 56.3537 21.6834C56.6969 21.5769 57.6405 21.2751 58.4469 21.0266C59.2533 20.7781 60.1455 20.5118 60.42 20.423C60.6945 20.3343 61.8269 19.9792 62.9078 19.6242C63.9887 19.2692 65.4642 18.8254 66.1676 18.6302C66.8711 18.4349 67.8833 18.1509 68.3981 17.9911C71.7609 17.0148 79.087 15.2929 81.8664 14.8136C82.7929 14.6539 83.1532 14.4231 83.1532 14.0148C83.1532 13.7308 82.6385 13.2337 82.4326 13.3225C82.3983 13.3367 81.8561 13.461 81.1801 13.5888Z" fill="white"/>
<path fill-rule="evenodd" clip-rule="evenodd" d="M85.5551 16.8515C85.2291 16.9225 84.2169 17.1177 83.3247 17.2775C82.4325 17.4373 81.3859 17.6503 81.0085 17.739C80.631 17.8278 79.6359 18.023 78.7781 18.1828C77.9202 18.3426 76.9594 18.5556 76.6334 18.6266C76.3074 18.6976 75.1922 18.9994 74.1456 19.2479C70.0108 20.2597 65.121 21.6621 60.5915 23.1532C59.2189 23.597 56.6282 24.3958 55.6159 24.6975C55.2385 24.804 54.5865 24.9993 54.1576 25.1236C51.8757 25.8336 45.8192 27.378 43.0912 27.946C41.873 28.1946 40.552 28.4786 40.1745 28.5673C39.797 28.6561 38.8019 28.8514 37.9441 29.0111C34.9072 29.5437 34.6156 29.6324 34.5126 30.0052C34.2553 30.8217 34.993 31.0348 36.8117 30.6975C39.7627 30.1294 44.9956 29.0289 46.2653 28.7271C49.4393 27.9638 57.3488 25.7271 60.2998 24.7685C63.6626 23.668 64.6406 23.3662 66.3391 22.8692C67.3342 22.5851 68.7926 22.1591 69.599 21.9283C71.4005 21.3958 74.7633 20.5437 77.8344 19.8514C79.5844 19.4609 82.81 18.8396 85.5208 18.3603C87.3738 18.0408 87.837 17.6503 87.1679 16.958C86.8762 16.6562 86.4988 16.6207 85.5551 16.8515Z" fill="white"/>
<path fill-rule="evenodd" clip-rule="evenodd" d="M87.1848 20.7923C86.7216 20.881 85.2461 21.1473 83.925 21.3958C79.1381 22.2657 78.9151 22.3189 73.6307 23.597C72.4125 23.8988 70.9027 24.2893 70.2851 24.4668C69.6674 24.6443 68.3978 25.0171 67.4541 25.2834C66.5105 25.5497 64.932 26.0289 63.9369 26.3485C61.6722 27.0763 57.6746 28.3721 56.9883 28.5851C56.4907 28.7271 54.1402 29.4194 52.699 29.8277C52.3215 29.9342 51.6696 30.1295 51.2406 30.2538C49.5764 30.733 49.0274 30.8751 47.2945 31.3011C43.2797 32.2774 42.0787 32.5614 39.6596 33.023C36.983 33.5378 36.0909 33.6975 34.358 33.9815C32.6251 34.2656 32.0246 34.6383 32.3506 35.2951C32.6595 35.8809 33.4487 35.8277 38.287 34.8691C39.4194 34.6383 40.8949 34.3543 41.5468 34.2478C42.1988 34.1413 43.1425 33.9283 43.6057 33.804C44.0689 33.6798 44.9268 33.4845 45.493 33.3602C46.7283 33.0762 51.5495 31.7981 53.8142 31.1591C54.7064 30.8928 55.8731 30.5555 56.3878 30.4135C57.2799 30.165 61.432 28.8336 64.0227 27.9638C65.1722 27.5733 66.3218 27.236 70.3708 26.0822C72.0351 25.6029 74.9003 24.8751 76.6332 24.4846C76.9592 24.4136 77.817 24.2183 78.5205 24.0408C79.2239 23.8633 80.219 23.668 80.7166 23.5793C81.2142 23.4905 82.0205 23.3485 82.5181 23.2597C83.0157 23.171 84.1137 22.958 84.9544 22.7982C85.7951 22.6384 87.2192 22.4077 88.1113 22.2657C89.9471 21.9994 90.5476 21.6266 90.2045 20.9521C90.0329 20.6325 89.8614 20.5793 89.0207 20.597C88.4049 20.6154 87.7913 20.6806 87.1848 20.7923Z" fill="white"/>
<path fill-rule="evenodd" clip-rule="evenodd" d="M43.6574 23.5792C41.9245 23.9875 41.3926 24.449 42.0618 25.0171C42.2676 25.1946 42.5765 25.1768 43.6402 24.9461C45.579 24.5378 45.9564 24.4135 46.1623 24.094C46.4025 23.6857 46.0079 23.2419 45.4245 23.2597C45.1843 23.2774 44.378 23.4195 43.6574 23.5792Z" fill="white"/>
<path fill-rule="evenodd" clip-rule="evenodd" d="M90.0159 24.662C89.5869 24.7508 88.6262 24.8928 87.8712 25.0171C87.1163 25.1413 85.9668 25.3188 85.2977 25.4609C84.6285 25.6029 83.5648 25.7804 82.8957 25.8869C79.2069 26.5437 71.6234 28.3188 69.942 28.9401C69.5817 29.0644 67.7287 29.5792 66.4248 29.9342C65.9616 30.0584 60.883 31.7093 59.3904 32.2064C57.9663 32.7034 53.231 34.1413 51.5152 34.6028C50.8461 34.7981 49.8338 35.0643 49.2677 35.2241C48.7015 35.3839 47.9637 35.5969 47.6377 35.6679C43.623 36.6087 39.9685 37.443 39.0592 37.6028C38.4415 37.727 37.4121 37.9223 36.7429 38.0643C36.0738 38.2063 34.89 38.3838 34.0836 38.4903C33.2772 38.5968 31.7845 38.8099 30.7379 38.9519C27.4095 39.3957 25.7967 39.5732 24.0638 39.6797C22.7256 39.7684 22.3138 39.8572 22.0564 40.1235C21.6447 40.5495 21.6447 40.727 22.0564 41.153C22.5025 41.6146 23.8236 41.5436 30.4806 40.7093C33.3458 40.3542 36.7944 39.8039 38.8018 39.3957C39.2822 39.2891 40.466 39.0406 41.4612 38.8454C44.069 38.2951 46.8142 37.656 48.9245 37.088C53.7114 35.8099 58.3438 34.3898 63.4223 32.6501C64.6061 32.2596 66.3047 31.7271 67.1969 31.4786C68.089 31.23 69.1699 30.9283 69.5989 30.804C73.4764 29.5969 79.3784 28.2301 84.4398 27.3247C85.1089 27.2182 86.2241 27.023 86.9276 26.881C87.631 26.739 88.9521 26.5437 89.8443 26.4194C91.4914 26.2064 92.0747 25.9401 92.0747 25.3721C92.0747 24.9816 91.5257 24.4845 91.1139 24.5023C90.9492 24.52 90.4448 24.5946 90.0159 24.662Z" fill="white"/>
<path fill-rule="evenodd" clip-rule="evenodd" d="M102.627 27.875C96.4157 28.1768 89.4499 29.0466 82.2953 30.4312C77.7144 31.3188 71.4692 32.8632 67.626 34.0525C66.974 34.2655 65.8931 34.6028 65.224 34.798C64.5548 34.9933 62.9764 35.5258 61.7068 35.9696C59.3219 36.7684 54.4493 38.3306 52.785 38.8098C51.6355 39.1471 51.1894 39.2536 49.4394 39.7329C48.6845 39.9459 47.7923 40.1767 47.4663 40.2832C40.8265 42.1649 29.7945 43.9755 22.7772 44.3483C20.3066 44.4725 20.1178 44.508 19.809 44.8808C19.4144 45.3956 19.4144 45.5199 19.8433 45.9636C20.1693 46.3009 20.3409 46.3187 22.211 46.2299C27.1575 45.9135 32.0834 45.3149 36.9662 44.437C37.7897 44.295 38.8534 44.0997 39.3167 44.011C39.7799 43.9222 40.7579 43.727 41.4613 43.5672C42.1648 43.4074 43.2285 43.1589 43.7947 43.0347C45.0643 42.7506 46.9859 42.2891 47.8095 42.0583C52.5105 40.798 53.8488 40.4252 55.616 39.8394C55.9934 39.7152 56.8856 39.4311 57.589 39.2181C58.2925 39.0051 60.2312 38.3661 61.8955 37.798C65.773 36.4844 73.8197 34.1235 76.4619 33.5377C77.7144 33.2537 81.5747 32.4194 82.7071 32.1886C83.7709 31.9756 84.9204 31.7626 88.2145 31.23C92.9156 30.449 101.305 29.6324 104.497 29.6324C106.504 29.6324 107.122 29.4371 107.293 28.7803C107.431 28.159 106.83 27.662 105.989 27.7153C105.646 27.7153 104.136 27.7898 102.627 27.875Z" fill="white"/>
<path fill-rule="evenodd" clip-rule="evenodd" d="M101.34 32.4904C92.5896 33.2005 88.5233 33.7507 81.5232 35.1708C77.1138 36.0584 72.3441 37.23 69.0843 38.2241C68.2779 38.4726 66.9396 38.8809 66.0818 39.1471C65.2239 39.4134 63.0793 40.1057 61.2778 40.727C59.4763 41.3483 57.4346 42.0229 56.7311 42.2359C56.0277 42.4489 55.1355 42.7329 54.7581 42.8749C53.2654 43.3897 46.8829 45.1649 44.9785 45.6086C44.601 45.6796 43.7603 45.8749 43.0912 46.0347C36.3484 47.6323 25.7968 49.1589 21.5075 49.1589C20.1864 49.1589 19.5001 49.4962 19.5001 50.1352C19.5283 50.4069 19.6501 50.659 19.8433 50.8453C20.1521 51.1293 20.4095 51.147 22.6227 51.0405C24.9733 50.9163 29.9317 50.4192 32.3337 50.0465C33.3631 49.8867 34.3754 49.7269 37.6867 49.1589C38.6132 48.9991 41.6157 48.3601 43.9491 47.8098C44.6182 47.65 45.4589 47.4548 45.8363 47.3838C46.2138 47.3128 46.9859 47.0997 47.5521 46.94C48.1182 46.7802 49.4737 46.4252 50.5546 46.1234C53.111 45.4311 55.4443 44.7033 60.9346 42.8572C65.8416 41.2241 71.7093 39.4312 73.7167 38.9519C74.4201 38.7921 75.2437 38.5791 75.5182 38.4904C77.131 37.9933 82.5698 36.8572 86.413 36.2182C93.3102 35.0466 98.0112 34.5673 106.109 34.23C111.274 34.017 111.325 33.9993 111.583 33.591C111.823 33.2182 111.823 33.1472 111.565 32.7389L111.291 32.2951L107.207 32.3129C104.977 32.3306 102.335 32.4194 101.34 32.4904Z" fill="white"/>
<path fill-rule="evenodd" clip-rule="evenodd" d="M104.428 37.0347C99.6925 37.2832 97.016 37.514 92.1605 38.082C89.9129 38.3306 89.587 38.3838 85.8124 39.0229C81.4373 39.7862 80.9912 39.9104 81.6775 40.3542C81.9902 40.5631 82.2884 40.7944 82.5697 41.0465C83.1873 41.5968 83.1873 41.5968 85.4692 41.1708C92.1948 39.8927 99.0749 39.2359 107.087 39.1116C113.521 38.9874 113.864 38.9341 113.864 38.0998C113.835 37.8025 113.715 37.5226 113.521 37.301C113.178 36.9105 113.075 36.9105 109.266 36.946C107.122 36.9637 104.943 36.9992 104.428 37.0347Z" fill="white"/>
<path fill-rule="evenodd" clip-rule="evenodd" d="M76.2045 41.0288C75.0721 41.3128 73.9226 41.6146 73.6309 41.6856C73.3392 41.7566 72.4985 42.0051 71.7436 42.2181C66.9568 43.5672 63.4567 44.7033 56.2164 47.2062C55.9762 47.295 55.1012 47.5613 54.2433 47.8275C53.3855 48.0938 52.5105 48.3601 52.2703 48.4488C52.0301 48.5376 51.3781 48.7151 50.8119 48.8749C50.2457 49.0346 49.2506 49.3009 48.5815 49.4962C47.9124 49.6914 46.8486 49.9754 46.1795 50.1352C45.5104 50.295 44.704 50.4902 44.3437 50.579C41.4098 51.3955 34.4612 52.6914 30.0518 53.2417C29.2111 53.3482 27.9758 53.508 27.3066 53.5967C26.6375 53.6855 25.2649 53.8097 24.2183 53.8807C22.1423 54.005 21.559 54.2358 21.559 54.9281C21.559 55.3363 22.1423 56.0819 22.4512 56.0819C22.8801 56.0819 28.5591 55.5316 29.6743 55.3718C30.3949 55.2831 31.6302 55.1056 32.4195 54.9991C33.2087 54.8926 34.4097 54.715 35.1131 54.573C35.8166 54.431 36.9489 54.2535 37.6009 54.1292C40.775 53.579 48.307 51.8038 50.383 51.1115C50.6232 51.0405 51.3095 50.8275 51.9271 50.6677C52.5448 50.508 53.3512 50.2595 53.7286 50.1352C54.1061 50.0109 54.9983 49.7269 55.7017 49.5139C56.4051 49.3009 58.9272 48.4488 61.2778 47.65C64.9837 46.3719 67.5573 45.5376 68.8269 45.2003C69.0156 45.1471 70.251 44.792 71.5721 44.4015C72.8932 44.011 74.5231 43.5672 75.1751 43.4074C77.5427 42.8394 78.1776 42.5909 78.1776 42.2536C78.1776 42.0761 78.3663 41.6323 78.6065 41.2773C78.7708 41.0488 78.9144 40.8052 79.0354 40.5495C79.0354 40.372 78.1947 40.514 76.2045 41.0288Z" fill="white"/>
<path fill-rule="evenodd" clip-rule="evenodd" d="M105.972 41.8134C102.626 41.9731 97.994 42.2571 96.3641 42.4347C90.4106 43.056 85.7953 43.7482 85.6066 44.0678C85.5036 44.2275 86.4816 45.3459 86.962 45.6299C87.1679 45.7364 87.8542 45.7009 88.9351 45.5411C95.5439 44.4995 102.221 43.9891 108.906 44.0145H113.813L114.19 43.5885C114.671 43.056 114.585 42.3636 113.984 42.0264C113.607 41.8134 108.837 41.6856 105.972 41.8134Z" fill="white"/>
<path fill-rule="evenodd" clip-rule="evenodd" d="M75.9469 45.9104C75.4322 46.0524 74.2655 46.3719 73.3733 46.6027C72.4812 46.8335 71.5547 47.1175 71.3145 47.1885C71.0743 47.2595 70.5767 47.437 70.1993 47.5435C67.5399 48.3068 64.2972 49.3364 61.9638 50.153C57.1084 51.8749 54.8608 52.6027 49.9538 54.0405C49.3877 54.2003 48.7357 54.4133 48.4955 54.502C48.0151 54.6618 43.3312 55.8512 42.2331 56.0819C41.8557 56.1529 40.7405 56.3837 39.7453 56.5967C38.7502 56.8097 37.5149 57.0583 37.0002 57.147C36.4855 57.2358 35.4046 57.431 34.5982 57.573C33.2256 57.8216 31.6986 58.0523 29.7256 58.3186C29.1765 58.3896 28.7476 58.5671 28.4903 58.8334C27.9927 59.3482 27.9755 59.4547 28.4559 60.076C28.8162 60.5553 28.8506 60.5553 30.0344 60.431C31.5271 60.289 33.5516 59.9695 36.8286 59.3659C38.2012 59.1174 39.711 58.8334 40.1743 58.7446C40.6375 58.6559 41.7356 58.4251 42.5763 58.2121C43.417 57.9991 44.9783 57.6263 46.0077 57.3778C49.2161 56.579 56.4049 54.3778 61.7065 52.5317C67.3169 50.579 71.6233 49.2654 75.9469 48.1648C76.942 47.9163 77.8514 47.6323 77.9715 47.5258C78.0916 47.4193 78.1773 46.9577 78.1773 46.4785V45.6086L77.5425 45.6264C77.0038 45.6736 76.4699 45.7686 75.9469 45.9104Z" fill="white"/>
<path fill-rule="evenodd" clip-rule="evenodd" d="M102.198 46.9613C100.499 47.0501 96.3126 47.4051 94.82 47.5649C90.0503 48.1151 89.6728 48.1861 89.6728 48.4524C89.6728 48.5412 90.0331 48.9672 90.4964 49.411C91.4057 50.3341 91.0111 50.2808 94.6484 49.8548C98.9806 49.3918 103.333 49.1548 107.688 49.1447C110.553 49.127 112.904 49.0382 113.109 48.9494C113.357 48.8059 113.564 48.5978 113.71 48.3459C113.899 47.9731 113.882 47.8489 113.573 47.4228L113.23 46.9436L108.185 46.9258C105.406 46.9223 102.712 46.94 102.198 46.9613Z" fill="white"/>
<path fill-rule="evenodd" clip-rule="evenodd" d="M76.033 50.8985C75.0893 51.1293 73.0133 51.7151 71.4006 52.1944C69.7878 52.6736 68.175 53.1529 67.7976 53.2594C66.8368 53.5435 61.1578 55.4784 59.8195 55.9931C58.8244 56.3659 54.9812 57.644 52.4419 58.4606C51.3439 58.8156 50.8978 59.1884 50.8978 59.7387C50.8978 60.2357 51.5154 60.8748 51.9958 60.8748C52.5106 60.8748 58.5499 58.8689 63.2852 57.147C66.3907 56.0109 74.609 53.5435 77.3198 52.9577C77.5492 52.9131 77.7661 52.8161 77.9546 52.6737C78.2463 52.4251 78.2463 50.65 77.9717 50.5435C77.8517 50.5115 76.9766 50.6678 76.033 50.8985Z" fill="white"/>
<path fill-rule="evenodd" clip-rule="evenodd" d="M102.198 52.1234C99.6583 52.2121 94.2366 52.7092 94.0651 52.8867C93.9793 52.9755 94.271 53.437 94.7685 53.9695C95.6264 54.8926 95.6264 54.8926 96.6386 54.8571C97.1877 54.8393 98.5431 54.7506 99.624 54.6618C100.705 54.5731 103.604 54.4311 106.041 54.3601C110.038 54.2536 110.519 54.2181 110.81 53.9163C111.239 53.4725 111.205 52.6204 110.742 52.2831C110.364 51.9991 107.654 51.9459 102.198 52.1234Z" fill="white"/>
<path fill-rule="evenodd" clip-rule="evenodd" d="M75.6897 56.1706C74.849 56.4014 73.7166 56.7032 73.2019 56.8452C72.6872 56.9872 71.6406 57.289 70.8857 57.502C67.0768 58.5493 66.5107 58.8334 66.5107 59.7032C66.5107 60.8748 67.3685 61.141 69.17 60.502C69.7362 60.3067 70.6284 60.0227 71.1431 59.8807L73.3735 59.2594C74.077 59.0641 75.3637 58.7091 76.2388 58.4783C76.834 58.3458 77.419 58.1678 77.9888 57.9458C78.0917 57.8925 78.1775 57.36 78.1775 56.7742C78.1775 55.7446 78.1775 55.7269 77.7143 55.7446C77.4397 55.7446 76.5476 55.9399 75.6897 56.1706Z" fill="white"/>
<path fill-rule="evenodd" clip-rule="evenodd" d="M100.413 57.5197C99.5725 57.5907 98.8176 57.7328 98.7146 57.8393C98.6117 57.9458 98.6975 58.1765 99.0578 58.5138C99.3614 58.8181 99.6371 59.1509 99.8813 59.5079C100.19 60.0227 100.207 60.0227 101.734 59.9517C103.158 59.8984 103.278 59.8629 103.673 59.4014C104.205 58.7623 104.188 58.3008 103.639 57.7683C103.141 57.289 103.021 57.2712 100.413 57.5197Z" fill="white"/>
<path fill-rule="evenodd" clip-rule="evenodd" d="M48.0667 71.3835C48.0153 71.5078 47.9981 75.2001 48.0153 79.6024L48.0667 87.5905L49.405 87.6437C50.383 87.6792 50.7261 87.6437 50.7433 87.4662C50.7433 87.342 50.7604 86.2946 50.7776 85.1586C50.7947 83.9692 50.8805 83.0461 50.9835 83.0284C51.0864 83.0106 51.6697 83.8449 52.3046 84.9278C54.0889 87.9633 53.7629 87.6792 55.5644 87.6792C56.834 87.6792 57.0914 87.626 57.0228 87.4307C56.9713 87.2887 56.1134 85.8331 55.1012 84.1822C54.0889 82.5314 53.334 81.1112 53.3683 81.0047C53.5227 80.5965 56.5938 76.4959 56.7483 76.4959C56.9713 76.4959 57.1429 76.9929 57.6747 79.1586C58.3953 82.0343 58.9444 84.1645 59.116 84.7503C59.2017 85.0343 59.4076 85.8153 59.562 86.4721C59.8365 87.5195 59.9223 87.6792 60.2655 87.6792C60.4885 87.6792 60.6944 87.7502 60.7459 87.839C60.7974 87.9277 60.5571 88.8508 60.2312 89.8981C59.8194 91.1762 59.6821 91.8685 59.7851 91.975C59.9738 92.1703 61.9126 92.2236 62.1699 92.0638C62.2557 92.0106 62.4273 91.62 62.5645 91.194C62.7018 90.768 62.9591 89.8626 63.165 89.1881C63.3709 88.5135 63.7655 87.2177 64.0229 86.3479C64.2802 85.4781 64.5548 84.555 64.6234 84.3065C64.692 84.058 65.0866 82.7799 65.4812 81.4663C65.8759 80.1527 66.3906 78.4663 66.6136 77.7385C66.7856 77.2282 66.9232 76.7063 67.0254 76.1764C67.0254 75.9989 66.6994 75.9633 65.6185 75.9988C64.2116 76.0521 64.2116 76.0521 64.0744 76.5847C64.0057 76.8687 63.6626 78.1468 63.3366 79.4249C63.0106 80.703 62.616 82.2118 62.4616 82.7976C62.1013 84.1822 61.8611 84.839 61.7238 84.839C61.6724 84.839 61.2434 82.9041 60.7973 80.5432C60.3513 78.1823 59.9223 76.1764 59.888 76.1054C59.8537 76.0344 58.4468 75.9634 56.8169 75.9634H53.8315L53.1281 76.9397C52.7506 77.4722 52.1158 78.3598 51.7384 78.9101C51.2237 79.6201 50.9835 79.8509 50.8977 79.6734C50.8119 79.5491 50.7433 77.6675 50.7433 75.4841C50.7433 73.3007 50.7089 71.4545 50.6403 71.348C50.4859 71.0817 48.1525 71.1172 48.0667 71.3835Z" fill="white"/>
<path fill-rule="evenodd" clip-rule="evenodd" d="M41.3755 75.8959C40.4833 76.2332 39.9514 76.7657 39.5568 77.7065C39.3533 78.1754 39.248 78.6836 39.248 79.1976C39.248 79.7117 39.3533 80.2199 39.5568 80.6888C39.9343 81.5586 40.4833 81.9846 42.2677 82.8189C42.8368 83.0797 43.3873 83.3822 43.9147 83.7242C44.0084 83.8135 44.0821 83.9227 44.131 84.0444C44.1799 84.166 44.2026 84.2972 44.1977 84.4288C44.1928 84.5605 44.1604 84.6894 44.1026 84.8068C44.0449 84.9242 43.9632 85.0273 43.8633 85.1088C43.5716 85.3929 43.3486 85.4106 42.1132 85.3041C41.324 85.2331 40.4662 85.1443 40.1745 85.1443L39.6598 85.1088V87.5763L40.775 87.7893C45.0128 88.6414 47.3462 87.0437 46.8829 83.6355C46.7114 82.3396 46.1109 81.7006 43.9834 80.6177C42.2848 79.7479 42.1476 79.6414 42.1476 79.1621C42.1476 78.2213 43.3657 77.8485 45.0986 78.2568C45.9393 78.4521 46.0937 78.2568 46.0937 76.9965V75.9847L45.4589 75.8071C44.5324 75.5409 42.1819 75.5906 41.3755 75.8959Z" fill="white"/>
<path fill-rule="evenodd" clip-rule="evenodd" d="M70.8 78.5019C69.5132 79.1587 69.3416 79.6557 69.3416 82.8332C69.3416 85.2829 69.3759 85.5669 69.7019 86.0284C70.4225 87.0225 71.0745 87.3243 72.4986 87.3243C74.0255 87.3243 74.2829 87.2 74.1971 86.5077C74.1456 86.0107 74.1285 85.9929 73.0304 85.9397C71.0402 85.8687 70.8 85.5137 70.8 82.78C70.8 80.0462 71.2632 79.4249 73.2363 79.5492L74.1456 79.6025L74.1971 79.0167C74.2486 78.5374 74.18 78.4131 73.8025 78.2711C73.0304 77.9693 71.6407 78.0759 70.8 78.5019Z" fill="white"/>
<path fill-rule="evenodd" clip-rule="evenodd" d="M77.052 78.4308C76.1083 78.8746 75.6965 79.4604 75.4392 80.7563C75.1818 81.9633 75.2848 84.5373 75.6279 85.6201C75.9711 86.703 76.7774 87.2177 78.2186 87.2887C79.5397 87.3775 80.1746 87.1645 80.7922 86.4722C81.4442 85.7444 81.6158 84.9811 81.6158 82.7089C81.6158 80.561 81.4613 79.8687 80.8094 79.0344C80.0819 78.1291 78.2976 77.8486 77.052 78.4308ZM79.5741 79.9752C79.9687 80.4012 79.9858 80.5432 79.9858 82.8154C79.9858 85.0343 79.9687 85.2118 79.5912 85.5846C79.0593 86.1526 78.0128 86.1349 77.4294 85.5669C77.0005 85.1408 76.9833 85.0698 76.9833 82.7977C76.9833 80.49 77.0005 80.4367 77.4294 79.9752C77.5672 79.8251 77.7331 79.7057 77.917 79.6242C78.1009 79.5427 78.299 79.5008 78.499 79.5011C78.6991 79.5015 78.897 79.544 79.0807 79.6261C79.2643 79.7082 79.4299 79.8282 79.5672 79.9787L79.5741 79.9752Z" fill="white"/>
<path fill-rule="evenodd" clip-rule="evenodd" d="M85.9841 78.3065C85.6953 78.4911 85.4251 78.7052 85.1777 78.9456C84.8174 79.2829 84.6973 79.3361 84.6287 79.1409C84.3713 78.2533 84.3541 78.2533 83.8051 78.3065L83.2389 78.3598L83.1875 82.7444L83.1531 87.1467L83.5992 87.2532C84.5429 87.5017 84.6115 87.3065 84.6973 83.8982C84.7831 80.8272 84.8002 80.7562 85.2292 80.3125C85.761 79.7444 86.7047 79.5669 87.1851 79.9219C87.5111 80.1704 87.5282 80.4367 87.5797 83.6497L87.6483 87.1112L88.0772 87.2355C88.3262 87.2888 88.5832 87.2888 88.8322 87.2355C89.141 87.129 89.1581 86.9159 89.1581 84.0757C89.1753 80.7917 89.1925 80.6675 90.1361 80.0107C90.7881 79.5669 91.4744 79.6024 91.8003 80.0817C92.0234 80.4012 92.0749 81.0758 92.0749 83.7917V87.1112L92.5209 87.2177C92.7735 87.2852 93.0378 87.2913 93.293 87.2355C93.6018 87.129 93.619 86.9159 93.619 83.6319C93.619 80.5255 93.5847 80.0817 93.2759 79.4249C93.0843 78.9802 92.7512 78.6168 92.3322 78.3953C91.2513 77.8628 90.5822 78.0225 89.5356 79.0521L88.9694 79.6024L88.6091 79.1054C87.9743 78.2036 86.7905 77.8486 85.9841 78.3065Z" fill="white"/>
<path fill-rule="evenodd" clip-rule="evenodd" d="M98.1655 78.3244C96.8615 79.2474 96.8959 79.2474 96.7071 78.7326C96.4841 78.1113 95.5576 78.0581 95.4203 78.6616C95.3689 78.8924 95.3517 81.6261 95.3689 84.7503L95.4203 90.4308H96.7929L96.8787 88.7444C96.9645 87.1823 96.9817 87.058 97.3076 87.129C98.6974 87.3953 99.641 87.342 100.207 86.987C101.185 86.348 101.34 85.7799 101.34 82.6735C101.34 80.3835 101.288 79.851 101.031 79.3539C100.482 78.2889 98.9719 77.7563 98.1655 78.3244ZM99.5209 80.0995C99.8469 80.5433 99.8812 80.8451 99.8812 82.6735C99.8812 85.3007 99.6925 85.7977 98.6459 85.8687C98.222 85.8984 97.7976 85.8192 97.4106 85.6379L96.8787 85.3539V83.1882C96.8787 80.7918 96.9817 80.49 97.9768 79.851C98.6699 79.4072 99.0748 79.4782 99.5278 80.0995H99.5209Z" fill="white"/>
</svg>
