<svg width="48" height="48" viewBox="0 0 48 48" fill="none" xmlns="http://www.w3.org/2000/svg">
<g clip-path="url(#clip0_424_410)">
<path d="M35.7963 29.0875L29.9075 26.4487L29.8913 26.4412C29.5856 26.3105 29.2521 26.258 28.921 26.2886C28.5899 26.3191 28.2716 26.4317 27.995 26.6162C27.9624 26.6377 27.9311 26.6611 27.9013 26.6862L24.8588 29.28C22.9313 28.3437 20.9413 26.3687 20.005 24.4662L22.6025 21.3775C22.6275 21.3462 22.6513 21.315 22.6738 21.2812C22.8543 21.0054 22.9638 20.6891 22.9926 20.3607C23.0214 20.0323 22.9686 19.7018 22.8388 19.3987V19.3837L20.1925 13.485C20.0209 13.0891 19.7259 12.7593 19.3515 12.5448C18.9771 12.3303 18.5433 12.2427 18.115 12.295C16.4212 12.5179 14.8665 13.3497 13.7412 14.6351C12.6159 15.9205 11.9969 17.5716 12 19.28C12 29.205 20.075 37.28 30 37.28C31.7084 37.283 33.3595 36.6641 34.6449 35.5388C35.9303 34.4135 36.7621 32.8588 36.985 31.165C37.0374 30.7368 36.95 30.3032 36.7357 29.9288C36.5215 29.5544 36.1919 29.2593 35.7963 29.0875ZM30.2759 35.8012C26.0339 35.7966 21.3583 34.1646 18.3588 31.165C15.3592 28.1654 13.4748 23.8198 13.4702 19.5778C13.4655 18.3571 14.2379 16.6001 15.04 15.68C15.8421 14.7599 17.1489 13.9218 18.3588 13.76C18.3583 13.765 18.3583 13.77 18.3588 13.775L21.44 20.16L19.0763 23.2213C19.05 23.2514 19.0261 23.2836 19.005 23.3175C18.8169 23.6062 18.7065 23.9385 18.6846 24.2823C18.6627 24.6262 18.73 24.9698 18.88 25.28C20.0125 27.5963 21.9356 29.2688 24.2768 30.4C24.5893 30.5486 24.9349 30.6136 25.28 30.5886C25.6251 30.5636 25.9578 30.4495 26.2456 30.2575C26.2777 30.236 26.3086 30.2126 26.3381 30.1875L28.921 27.84L35.5063 30.72H35.52C35.3601 31.9316 34.5203 33.7559 33.6 34.56C32.6797 35.3641 31.498 35.8054 30.2759 35.8012Z" fill="white"/>
</g>
<defs>
<clipPath id="clip0_424_410">
<rect width="32" height="32" fill="white" transform="translate(8 9.28)"/>
</clipPath>
</defs>
</svg>
