<svg width="90" height="19" viewBox="0 0 90 19" fill="none" xmlns="http://www.w3.org/2000/svg">
<g clip-path="url(#clip0_49_171)">
<path d="M8.19029 2.30233C8.27283 2.1607 8.39106 2.04319 8.53318 1.96151C8.67531 1.87983 8.83637 1.83685 9.00029 1.83685C9.16422 1.83685 9.32528 1.87983 9.4674 1.96151C9.60953 2.04319 9.72776 2.1607 9.81029 2.30233L11.9065 5.90083L15.9775 6.78283C16.1377 6.81763 16.2859 6.89379 16.4074 7.00373C16.5289 7.11367 16.6195 7.25354 16.6701 7.4094C16.7207 7.56526 16.7296 7.73166 16.6959 7.89202C16.6621 8.05238 16.5869 8.20109 16.4778 8.32333L13.7028 11.4291L14.1228 15.5728C14.1394 15.736 14.1128 15.9007 14.0459 16.0504C13.9789 16.2001 13.8738 16.3296 13.7411 16.426C13.6085 16.5224 13.4528 16.5823 13.2897 16.5997C13.1267 16.6172 12.9619 16.5915 12.8118 16.5253L9.00029 14.8453L5.18879 16.5253C5.03873 16.5915 4.87394 16.6172 4.71086 16.5997C4.54778 16.5823 4.39213 16.5224 4.25945 16.426C4.12676 16.3296 4.02169 16.2001 3.95472 16.0504C3.88775 15.9007 3.86123 15.736 3.87779 15.5728L4.29779 11.4291L1.52279 8.32408C1.41346 8.20185 1.33811 8.05308 1.30425 7.89262C1.2704 7.73216 1.27922 7.56563 1.32985 7.40965C1.38048 7.25366 1.47114 7.11369 1.59277 7.0037C1.71441 6.89371 1.86277 6.81755 2.02304 6.78283L6.09404 5.90083L8.19029 2.30233Z" fill="#1CC2FA"/>
</g>
<g clip-path="url(#clip1_49_171)">
<path d="M26.1903 2.30233C26.2728 2.1607 26.3911 2.04319 26.5332 1.96151C26.6753 1.87983 26.8364 1.83685 27.0003 1.83685C27.1642 1.83685 27.3253 1.87983 27.4674 1.96151C27.6095 2.04319 27.7278 2.1607 27.8103 2.30233L29.9065 5.90083L33.9775 6.78283C34.1377 6.81763 34.2859 6.89379 34.4074 7.00373C34.5289 7.11367 34.6195 7.25354 34.6701 7.4094C34.7207 7.56526 34.7296 7.73166 34.6959 7.89202C34.6621 8.05238 34.5869 8.20109 34.4778 8.32333L31.7028 11.4291L32.1228 15.5728C32.1394 15.736 32.1128 15.9007 32.0459 16.0504C31.9789 16.2001 31.8738 16.3296 31.7411 16.426C31.6085 16.5224 31.4528 16.5823 31.2897 16.5997C31.1267 16.6172 30.9619 16.5915 30.8118 16.5253L27.0003 14.8453L23.1888 16.5253C23.0387 16.5915 22.8739 16.6172 22.7109 16.5997C22.5478 16.5823 22.3921 16.5224 22.2594 16.426C22.1268 16.3296 22.0217 16.2001 21.9547 16.0504C21.8877 15.9007 21.8612 15.736 21.8778 15.5728L22.2978 11.4291L19.5228 8.32408C19.4135 8.20185 19.3381 8.05308 19.3043 7.89262C19.2704 7.73216 19.2792 7.56563 19.3299 7.40965C19.3805 7.25366 19.4711 7.11369 19.5928 7.0037C19.7144 6.89371 19.8628 6.81755 20.023 6.78283L24.094 5.90083L26.1903 2.30233Z" fill="#1CC2FA"/>
</g>
<g clip-path="url(#clip2_49_171)">
<path d="M44.1903 2.30233C44.2728 2.1607 44.3911 2.04319 44.5332 1.96151C44.6753 1.87983 44.8364 1.83685 45.0003 1.83685C45.1642 1.83685 45.3253 1.87983 45.4674 1.96151C45.6095 2.04319 45.7278 2.1607 45.8103 2.30233L47.9065 5.90083L51.9775 6.78283C52.1377 6.81763 52.2859 6.89379 52.4074 7.00373C52.5289 7.11367 52.6195 7.25354 52.6701 7.4094C52.7207 7.56526 52.7296 7.73166 52.6959 7.89202C52.6621 8.05238 52.5869 8.20109 52.4778 8.32333L49.7028 11.4291L50.1228 15.5728C50.1394 15.736 50.1128 15.9007 50.0459 16.0504C49.9789 16.2001 49.8738 16.3296 49.7411 16.426C49.6085 16.5224 49.4528 16.5823 49.2897 16.5997C49.1267 16.6172 48.9619 16.5915 48.8118 16.5253L45.0003 14.8453L41.1888 16.5253C41.0387 16.5915 40.8739 16.6172 40.7109 16.5997C40.5478 16.5823 40.3921 16.5224 40.2594 16.426C40.1268 16.3296 40.0217 16.2001 39.9547 16.0504C39.8877 15.9007 39.8612 15.736 39.8778 15.5728L40.2978 11.4291L37.5228 8.32408C37.4135 8.20185 37.3381 8.05308 37.3043 7.89262C37.2704 7.73216 37.2792 7.56563 37.3299 7.40965C37.3805 7.25366 37.4711 7.11369 37.5928 7.0037C37.7144 6.89371 37.8628 6.81755 38.023 6.78283L42.094 5.90083L44.1903 2.30233Z" fill="#1CC2FA"/>
</g>
<g clip-path="url(#clip3_49_171)">
<path d="M62.1903 2.30233C62.2728 2.1607 62.3911 2.04319 62.5332 1.96151C62.6753 1.87983 62.8364 1.83685 63.0003 1.83685C63.1642 1.83685 63.3253 1.87983 63.4674 1.96151C63.6095 2.04319 63.7278 2.1607 63.8103 2.30233L65.9065 5.90083L69.9775 6.78283C70.1377 6.81763 70.2859 6.89379 70.4074 7.00373C70.5289 7.11367 70.6195 7.25354 70.6701 7.4094C70.7207 7.56526 70.7296 7.73166 70.6959 7.89202C70.6621 8.05238 70.5869 8.20109 70.4778 8.32333L67.7028 11.4291L68.1228 15.5728C68.1394 15.736 68.1128 15.9007 68.0459 16.0504C67.9789 16.2001 67.8738 16.3296 67.7411 16.426C67.6085 16.5224 67.4528 16.5823 67.2897 16.5997C67.1267 16.6172 66.9619 16.5915 66.8118 16.5253L63.0003 14.8453L59.1888 16.5253C59.0387 16.5915 58.8739 16.6172 58.7109 16.5997C58.5478 16.5823 58.3921 16.5224 58.2594 16.426C58.1268 16.3296 58.0217 16.2001 57.9547 16.0504C57.8877 15.9007 57.8612 15.736 57.8778 15.5728L58.2978 11.4291L55.5228 8.32408C55.4135 8.20185 55.3381 8.05308 55.3043 7.89262C55.2704 7.73216 55.2792 7.56563 55.3299 7.40965C55.3805 7.25366 55.4711 7.11369 55.5928 7.0037C55.7144 6.89371 55.8628 6.81755 56.023 6.78283L60.094 5.90083L62.1903 2.30233Z" fill="#1CC2FA"/>
</g>
<g clip-path="url(#clip4_49_171)">
<path d="M80.1903 2.30233C80.2728 2.1607 80.3911 2.04319 80.5332 1.96151C80.6753 1.87983 80.8364 1.83685 81.0003 1.83685C81.1642 1.83685 81.3253 1.87983 81.4674 1.96151C81.6095 2.04319 81.7278 2.1607 81.8103 2.30233L83.9065 5.90083L87.9775 6.78283C88.1377 6.81763 88.2859 6.89379 88.4074 7.00373C88.5289 7.11367 88.6195 7.25354 88.6701 7.4094C88.7207 7.56526 88.7296 7.73166 88.6959 7.89202C88.6621 8.05238 88.5869 8.20109 88.4778 8.32333L85.7028 11.4291L86.1228 15.5728C86.1394 15.736 86.1128 15.9007 86.0459 16.0504C85.9789 16.2001 85.8738 16.3296 85.7411 16.426C85.6085 16.5224 85.4528 16.5823 85.2897 16.5997C85.1267 16.6172 84.9619 16.5915 84.8118 16.5253L81.0003 14.8453L77.1888 16.5253C77.0387 16.5915 76.8739 16.6172 76.7109 16.5997C76.5478 16.5823 76.3921 16.5224 76.2594 16.426C76.1268 16.3296 76.0217 16.2001 75.9547 16.0504C75.8877 15.9007 75.8612 15.736 75.8778 15.5728L76.2978 11.4291L73.5228 8.32408C73.4135 8.20185 73.3381 8.05308 73.3043 7.89262C73.2704 7.73216 73.2792 7.56563 73.3299 7.40965C73.3805 7.25366 73.4711 7.11369 73.5928 7.0037C73.7144 6.89371 73.8628 6.81755 74.023 6.78283L78.094 5.90083L80.1903 2.30233Z" fill="#1CC2FA"/>
</g>
<defs>
<clipPath id="clip0_49_171">
<rect width="18" height="18" fill="white" transform="translate(0 0.220947)"/>
</clipPath>
<clipPath id="clip1_49_171">
<rect width="18" height="18" fill="white" transform="translate(18 0.220947)"/>
</clipPath>
<clipPath id="clip2_49_171">
<rect width="18" height="18" fill="white" transform="translate(36 0.220947)"/>
</clipPath>
<clipPath id="clip3_49_171">
<rect width="18" height="18" fill="white" transform="translate(54 0.220947)"/>
</clipPath>
<clipPath id="clip4_49_171">
<rect width="18" height="18" fill="white" transform="translate(72 0.220947)"/>
</clipPath>
</defs>
</svg>
