<svg width="36" height="36" viewBox="0 0 36 36" fill="none" xmlns="http://www.w3.org/2000/svg">
<path d="M17.7004 0.578125C8.04044 0.578125 0.200439 8.41813 0.200439 18.0781C0.200439 27.7381 8.04044 35.5781 17.7004 35.5781C27.3604 35.5781 35.2004 27.7381 35.2004 18.0781C35.2004 8.41813 27.3604 0.578125 17.7004 0.578125ZM25.8204 12.4781C25.5579 15.2431 24.4204 21.9631 23.8429 25.0606C23.5979 26.3731 23.1079 26.8106 22.6529 26.8631C21.6379 26.9506 20.8679 26.1981 19.8879 25.5506C18.3479 24.5356 17.4729 23.9056 15.9854 22.9256C14.2529 21.7881 15.3729 21.1581 16.3704 20.1431C16.6329 19.8806 21.1129 15.8031 21.2004 15.4356C21.2126 15.38 21.211 15.3222 21.1957 15.2673C21.1805 15.2124 21.1521 15.162 21.1129 15.1206C21.0079 15.0331 20.8679 15.0681 20.7454 15.0856C20.5879 15.1206 18.1379 16.7481 13.3604 19.9681C12.6604 20.4406 12.0304 20.6856 11.4704 20.6681C10.8404 20.6506 9.65044 20.3181 8.75794 20.0206C7.65544 19.6706 6.79794 19.4781 6.86794 18.8656C6.90294 18.5506 7.34044 18.2356 8.16294 17.9031C13.2729 15.6806 16.6679 14.2106 18.3654 13.5106C23.2304 11.4806 24.2279 11.1306 24.8929 11.1306C25.0329 11.1306 25.3654 11.1656 25.5754 11.3406C25.7504 11.4806 25.8029 11.6731 25.8204 11.8131C25.8029 11.9181 25.8379 12.2331 25.8204 12.4781Z" fill="white"/>
</svg>
