<svg width="36" height="36" viewBox="0 0 36 36" fill="none" xmlns="http://www.w3.org/2000/svg">
<path fill-rule="evenodd" clip-rule="evenodd" d="M17.6572 0.578125C7.99192 0.578125 0.157166 8.41288 0.157166 18.0781C0.157166 21.3856 1.07592 24.4831 2.67367 27.1221L1.11267 32.4281C1.02304 32.7328 1.01714 33.0559 1.09559 33.3636C1.17405 33.6714 1.33395 33.9523 1.55849 34.1768C1.78304 34.4013 2.06393 34.5612 2.37164 34.6397C2.67936 34.7182 3.00252 34.7123 3.30717 34.6226L8.61317 33.0616C11.341 34.7118 14.4691 35.5822 17.6572 35.5781C27.3224 35.5781 35.1572 27.7434 35.1572 18.0781C35.1572 8.41288 27.3224 0.578125 17.6572 0.578125ZM13.6987 22.0384C17.2389 25.5769 20.6182 26.0441 21.8117 26.0879C23.6264 26.1544 25.3939 24.7684 26.0817 23.1601C26.1678 22.9599 26.1989 22.7403 26.1718 22.5241C26.1447 22.3078 26.0605 22.1027 25.9277 21.9299C24.9687 20.7049 23.6719 19.8246 22.4049 18.9496C22.1405 18.7663 21.8153 18.6927 21.4977 18.7442C21.1802 18.7958 20.895 18.9685 20.7022 19.2261L19.6522 20.8274C19.5967 20.9131 19.5107 20.9746 19.4116 20.9993C19.3124 21.024 19.2077 21.0101 19.1184 20.9604C18.4062 20.5526 17.3684 19.8596 16.6229 19.1141C15.8774 18.3686 15.2264 17.3781 14.8607 16.7114C14.8164 16.6264 14.8039 16.5285 14.8254 16.4351C14.8469 16.3418 14.901 16.2592 14.9779 16.2021L16.5949 15.0016C16.8264 14.8014 16.9758 14.5228 17.0145 14.2193C17.0533 13.9157 16.9786 13.6086 16.8049 13.3566C16.0209 12.2086 15.1074 10.7491 13.7827 9.78137C13.6113 9.65828 13.4111 9.58151 13.2014 9.55852C12.9917 9.53552 12.7796 9.56708 12.5857 9.65013C10.9757 10.3396 9.58267 12.1071 9.64917 13.9254C9.69292 15.1189 10.1602 18.4981 13.6987 22.0384Z" fill="white"/>
</svg>
